<svg version="1" xmlns="http://www.w3.org/2000/svg" width="1365.333" height="1365.333" viewBox="0 0 1024.000000 1024.000000"><path d="M423 19.3c-4.9 1.4-12 6.2-12 8.2 0 1 4.9 2.6 15.2 5 .9.2 2.9 1 4.5 1.9 2.2 1.2 2.4 1.5.8 1.4-3.3-.1-10.7 1.2-16 2.9-12.1 3.7-19 8.7-22.9 16.2l-1.7 3.1 3.3.1c1.8.1 5.8.1 8.8.1 3-.1 6.4.2 7.4.5 1.8.5 1.8.7-.5 2.5-2.8 2.2-8 5.7-24.4 16.3-11.7 7.6-17.6 12.7-23.1 20.2-1.6 2.1-3.1 4-3.4 4.3-1.1 1.1-5.7 8.7-7.4 12.5-1.1 2.2-2.2 4.7-2.7 5.6-4.9 10.2-5.7 31.5-2 53.9 2.4 14.5 5.2 23.1 8.9 27.2 1.8 2.1 1.7 2.1-2.7.8-5.4-1.5-10.1 2.3-13.3 10.9-1.6 4.5-1.9 16.7-.4 23.1.3 1.4.8 3.6 1.1 5 .3 1.4 1.8 7.7 3.4 14 1.6 6.3 3.2 14.2 3.6 17.5 1.4 13.7 1.5 14.8 3 21 1.7 7 8.6 15.3 15 17.9 1.9.8 3.5 2.2 3.5 3 0 2.2 11.5 32.8 15.7 41.6 5.9 12.5 16.8 29.6 26.6 41.6.9 1.1 3.9 4.8 6.8 8.4 3 3.6 6.5 7.7 8 9.1 3 3 4.1 9.7 4.3 26.3l.1 9.9-12 1.8c-48.6 7.1-94.8 35.9-121.8 75.8-9.4 14-19.4 37.9-21.3 51.1-.3 1.9-.7 4.1-.9 4.7-2.7 8.1-2.4 47.8.4 62.9.5 2.7 1.2 6.9 1.6 9.4 6.1 42.9 22 81.1 44.5 107 3.6 4.1 7 8.2 7.7 9 1 1.3.1 1.5-7 1.6-10.6 0-18.5 2.5-23.2 7.2-2 2-3.8 4.6-4.1 5.8-.5 1.9-1 2.1-3.5 1.4-2.9-.8-13.3-.6-23.4.5-2.7.3-7.2.8-10 1.1-20 2.1-54.6 12.4-74.8 22.3-25.3 12.2-40.3 25.3-49.2 42.7-6.3 12.6-7.9 28.3-3.6 37.8 1.2 2.9 1.8 5.6 1.4 7.3-.3 1.6-.6 9.3-.6 17.3.1 31.9 9.3 56.5 28.3 75.8 3.5 3.6 8.2 7.2 10.8 8.3 5.4 2.4 8.3 2.4 58.2 1.3 44.5-1 224.2-1.1 236-.2 36.9 3 148.9 3.1 186 .3 5.5-.5 41.7-1.3 88-2.1 36.5-.6 44.9-.8 62.5-1.9 6.1-.4 13.9-.8 17.5-1 3.6-.2 10.1-.6 14.5-.9 4.4-.4 12.8-.8 18.7-1.1 12.2-.5 14-1.2 21.4-8.2 16.4-15.5 23.9-35.5 23.7-63.3-.1-12-2.1-21.2-7.1-33-3.2-7.5-3.8-9.9-3.2-12.6 2.3-10-5.1-25.4-16.6-34.7-5.6-4.5-29.7-18.8-48.9-29-2.2-1.2-4.2-2.2-4.5-2.2-.3-.1-3.4-1.5-7-3.2-3.6-1.6-8.3-3.6-10.5-4.3-2.2-.7-9.6-3.6-16.5-6.5s-15.8-6.5-19.7-8c-4-1.4-7.5-3.1-7.8-3.6-.3-.5-.1-2.6.4-4.6 1.5-5.8 1.9-9.8 2.5-21.8.6-10 1.1-16.8 2.1-23.5.2-1.4.7-4.5 1-7 .3-2.5 1.2-8.1 2-12.5.7-4.4 1.6-10.5 2-13.5.4-3 1.1-7.7 1.5-10.5 1.3-7.1.4-29-1.3-35.3-2.7-9.5-7.7-15.5-13.1-15.5-2.4 0-2.6-.3-2.6-4.1 0-3.6-2.8-22.8-4.5-31.1-1.4-7-4.5-20.4-5.9-25.5-10.7-40.1-15-52.6-25.2-72.5-3.9-7.6-14.7-24.2-18.9-29-21.7-24.9-43.6-37-73.6-41-9.9-1.4-12.3-1.5-27.9-1.5-15.1 0-19.7.2-34.7 1.5l-7.2.7.5-2.9c.9-4.5 1.1-24.3.4-28.4-.6-3.1-.2-4.6 2.2-8.6 1.6-2.6 3.3-5.5 3.8-6.3 8.3-14 20.4-47.5 24.5-68 .2-.8.8-3.3 1.3-5.5 1.1-4.3 3.1-16.1 3.7-21.6.2-1.9.4-3.7.4-4 .1-.4 1.3-.9 2.9-1.2 3-.6 8.9-5.7 11.5-9.9 1.7-2.7 4.4-10 5.3-14.2 1.5-6.6 1.9-14.3 1.9-33.6-.1-17.7-.4-22.2-1.7-25.2-.9-2-1.5-4.5-1.3-5.5.2-1 .4-2.8.4-3.9.1-1.6.7-2.1 2.4-2 1.6.1 2.3-.5 2.5-2.2.3-1.8-.1-2.2-2-2-2.5.3-2.5.4-4.3-18.2-.4-3.6-.8-7.6-1-9-.2-1.4-.7-5.7-1-9.5-.6-6.7-.8-8.9-2.1-18-.4-3.4-2.5-14.7-4-22.2-1-4.9-6.6-20.8-9.8-27.7-10.8-23.4-29.1-40.8-52.7-50.2-6.1-2.4-24.2-6.6-33.9-7.8-2.5-.3-5.6-.8-7-1.1-1.4-.3-4.5-.8-7-1.1-3.7-.4-21.3-6.1-29.5-9.5-8.3-3.4-26.7-4.7-34.5-2.6zm-47.1 626.5c2.8 9.1 10.9 29 12.2 29.8.5.3.2 1.9-.7 3.6-.9 1.7-1.8 6.6-2.1 10.9-.7 9.2 2 21.7 7.2 34.1 3.2 7.6 3.3 10.1.2 5.5-.9-1.2-2.7-3.5-4-5-3.7-4.1-9.3-16-12-25.7-2.4-8.3-2.8-10.1-4.3-20.5-1.2-8.3-.7-40.5.6-40.5.3 0 1.6 3.5 2.9 7.8z"/></svg>