<svg id="Layer_1" data-name="Layer 1" xmlns="http://www.w3.org/2000/svg" xmlns:xlink="http://www.w3.org/1999/xlink" viewBox="0 0 800 200"><defs><style>.cls-1,.cls-15{fill:#01313c;}.cls-2{fill:#4a9ab7;}.cls-3{fill:#fff2e9;}.cls-10,.cls-4{fill:#fff;}.cls-5{fill:#606161;}.cls-6{fill:#ee6c22;}.cls-7{fill:#a4a4a4;}.cls-8{fill:#807f7f;}.cls-9{fill:#eaddd7;}.cls-10,.cls-11,.cls-12,.cls-13,.cls-14,.cls-15{fill-rule:evenodd;}.cls-11{opacity:0.53;fill:url(#linear-gradient);}.cls-12{fill:url(#linear-gradient-2);}.cls-13{fill:url(#linear-gradient-3);}.cls-14{fill:url(#linear-gradient-4);}</style><linearGradient id="linear-gradient" x1="103.47" y1="107.06" x2="104.93" y2="157.51" gradientUnits="userSpaceOnUse"><stop offset="0.08" stop-color="#fff"/><stop offset="1" stop-color="#fff" stop-opacity="0"/></linearGradient><linearGradient id="linear-gradient-2" x1="88.6" y1="62.83" x2="90.44" y2="126.28" xlink:href="#linear-gradient"/><linearGradient id="linear-gradient-3" x1="101.28" y1="75.39" x2="102.73" y2="125.18" xlink:href="#linear-gradient"/><linearGradient id="linear-gradient-4" x1="116.62" y1="75.17" x2="118.07" y2="124.98" xlink:href="#linear-gradient"/></defs><title>Full Logo</title><path class="cls-1" d="M71.26,42.28c.55-.06.63-.57.51-1h-.59c-.29,0-.57,0-.85,0C70.38,41.85,70.65,42.36,71.26,42.28Z"/><path class="cls-2" d="M90.55,42.13a1.65,1.65,0,0,0,1.32.17c.87-.23,1.65-.86,1.19-1.75h-.39a1,1,0,0,1-.06.55,1.26,1.26,0,0,1-.78.73,1.17,1.17,0,0,1-1.09-.13,1.28,1.28,0,0,1-.5-.9l-.23,0C90.09,41.33,90.09,41.84,90.55,42.13Z"/><path class="cls-3" d="M91.21,14.68l-.06,0,.07,0Z"/><path class="cls-4" d="M92.76,42.39l1.58-.08a3.18,3.18,0,0,0,.5-1.62h-.06a6.64,6.64,0,0,0-1.32-.13A1.67,1.67,0,0,1,92.76,42.39Z"/><path class="cls-4" d="M72.44,43.19l.81-.1c.27-.34.58-.65.84-1s.28-.41.44-.59a4.35,4.35,0,0,0-.52-.1A9.3,9.3,0,0,0,73,41.31,1.71,1.71,0,0,1,72.44,43.19Z"/><path class="cls-4" d="M89.53,42.44a.15.15,0,0,1,.06.09l.72-.06-.08-.06a1.77,1.77,0,0,1-.52-1.5c-.38.07-.76.16-1.14.25C88.57,41.7,89.13,42.17,89.53,42.44Z"/><path class="cls-1" d="M91,41.36a.77.77,0,0,0,.66,0,.79.79,0,0,0,.49-.47.55.55,0,0,0,0-.34h0c-.49,0-1,.09-1.48.16A1.07,1.07,0,0,0,91,41.36Z"/><path class="cls-5" d="M66.64,145l0,0a.26.26,0,0,1,0,.38l.32,5.27.48,8.06c.08,1.35.12,2.69.17,4l.15,3.55,62.15-7.52.5-4.69a.74.74,0,0,1,0-.33.32.32,0,0,1,0-.09h0v0l2-18.63.32-3,.16-1.51c0-.23,0-.44.06-.65l0-.14a4.47,4.47,0,0,0-1.06-2.26,1.19,1.19,0,0,0-.62-.26.58.58,0,0,1-.61,0,1.1,1.1,0,0,1-.48-.19.25.25,0,0,1-.12-.17l-1.08.08-12.09.84-24.19,1.68-3,.22-3,.16-6,.32-12.11.63h0a2.15,2.15,0,0,0-1.23.28,2.2,2.2,0,0,0-.86.95,3.65,3.65,0,0,0-.36,1.26,7.4,7.4,0,0,0,0,1.33l.51,8.06Z"/><path class="cls-6" d="M81.34,111.62c-2.91,3.9-6,7.7-9.16,11.36-1.67,1.91-3.36,3.79-5.09,5.64-.81.87-1.59,1.76-2.41,2.61a25.91,25.91,0,0,0-2.37,2.43l0,0a17.67,17.67,0,0,0,1.24,5.64,19.47,19.47,0,0,0,2.7,5.18l0-1.83L66,134.6a7.39,7.39,0,0,1,0-1.33,3.89,3.89,0,0,1,.33-1.3,2.27,2.27,0,0,1,2.19-1.37h0l12.08-1,6-.52,3-.26,3-.2,24.19-1.68,12.09-.84.8-.06a.34.34,0,0,1-.06-.15,26.1,26.1,0,0,1-.74-3.62c-.21-1.35-.66-2.69-1-4-.62-2.57-1.21-5.15-1.92-7.69-1.46-5.23-3.36-10.59-6.85-14.84A19.94,19.94,0,0,0,106.12,88a68.44,68.44,0,0,0-10.52-.12,85.6,85.6,0,0,1-6.25,11.83A142.71,142.71,0,0,1,81.34,111.62Zm28.19-1.06c.39-2.21.61-4.47,1.2-6.64.27-1,.82-3.65,2.08-3.91a.08.08,0,0,1,.1.08c0,.74-.7,1.56-.94,2.27a24,24,0,0,0-.74,2.92c-.41,2.18-.63,4.4-1.11,6.56-1.15,5.19-3.87,10.3-6.32,15a.08.08,0,0,1-.14-.06C105.07,121.17,108.52,116.28,109.53,110.56Zm-14.74,7.55a46.32,46.32,0,0,0,4-6.6c2.54-5.19,3.48-10.76,5.3-16.19a.28.28,0,0,1,.54.15,55.14,55.14,0,0,1-4.81,16A34.4,34.4,0,0,1,96,117.83a32.24,32.24,0,0,0-4.48,6.35.08.08,0,0,1-.14-.06A24.8,24.8,0,0,1,94.79,118.11Z"/><path class="cls-5" d="M68.3,171c2.29-.4,4.59-.77,6.89-1.15.32-.05.65-.11,1-.15l1-.11,2-.22,3.93-.46,15.75-1.8,15.74-1.81,7.87-.91c1.31-.15,2.62-.29,3.93-.46.66-.08,1.32-.11,2-.16l1.9-.13a2.72,2.72,0,0,0,.72-.83,2.38,2.38,0,0,0,.27-1.18,3.93,3.93,0,0,0-.26-1.25,5.6,5.6,0,0,0-.36-.74l-.21,0-62.22,7.54c.1.16.2.32.29.49A4.18,4.18,0,0,1,68.9,169a2.34,2.34,0,0,1-.24,1.5A2.09,2.09,0,0,1,68.3,171Z"/><path class="cls-4" d="M73.48,62.19c0,.45.27.81.31,1.23h0a12.9,12.9,0,0,0,1.82,1.34,23.42,23.42,0,0,0,6.09.37,12.33,12.33,0,0,0,5.49-1c.1-.1.19-.2.29-.29a12.4,12.4,0,0,0,.23-2.72l-.9,0c-1.88.1-3.77.18-5.65.17-2.58,0-5.13,0-7.68-.21C73.5,61.46,73.45,61.82,73.48,62.19Z"/><path class="cls-7" d="M52.28,156.81l1.38.89,2.79,1.76,10.44,6.59-.14-3.2c-.06-1.3-.13-2.6-.16-3.91a35.49,35.49,0,0,1-14-5.58,1,1,0,0,1-.92-.13H46.07l-.34-.13-.06,0q2.59,1.41,5.18,2.87C51.32,156.26,51.81,156.52,52.28,156.81Z"/><path class="cls-8" d="M44,156a4.15,4.15,0,0,0,.27.56l3,1.62,2.9,1.81L56,163.56l11.41,7.09a1.57,1.57,0,0,0,.52-.54,1.48,1.48,0,0,0,.14-.94,3.28,3.28,0,0,0-.36-1,6.56,6.56,0,0,0-.5-.79l-.23,0v-.24L56,160.2l-2.79-1.76-1.39-.87c-.46-.3-.91-.63-1.36-.94-1.63-1.15-3.26-2.31-4.87-3.48a2.74,2.74,0,0,0-1.47.85,2.1,2.1,0,0,0-.32.72,3.63,3.63,0,0,0,.08.73A.42.42,0,0,1,44,156Z"/><path class="cls-3" d="M53.24,152.57a35.42,35.42,0,0,0,13.32,5.33l-.18-7.15-.1-3.72a.7.7,0,0,1-.67.13,10.06,10.06,0,0,1-2-.86c-.22-.12-.44-.25-.65-.39-3.26-2.15-5.41-6.07-6.25-9.73-1.12-4.84-1.21-10.51.63-15.2a.53.53,0,0,1,.45-.32,7,7,0,0,1,1.51-2.26.24.24,0,0,1,.37.29,15.6,15.6,0,0,0-.8,1.58,7,7,0,0,0,.26,2.31c.08.37.18.74.28,1.1.33,1,.61,2,1,2.92.45,1.21.93,2.4,1.49,3.56.22.46.45.84.6,1.23a.12.12,0,0,1,0,.11h0a.84.84,0,0,1,0,.17.19.19,0,0,1,0,.07,2.16,2.16,0,0,1,0,.58c.39-.44.84-.83,1.26-1.28.79-.85,1.56-1.73,2.35-2.6,1.7-1.88,3.39-3.77,5-5.7,3.24-3.75,6.4-7.58,9.36-11.56s5.58-7.8,8.06-11.9c2.25-3.72,4.11-7.61,6.18-11.41-1,0-1.93,0-2.89-.06a10.36,10.36,0,0,1-.42,3.12.11.11,0,0,1-.21,0,10.65,10.65,0,0,1-.42-3.26.68.68,0,0,1,0-1.17c0-.66,0-1.33.06-2a45.59,45.59,0,0,1,.15-5.6,25.29,25.29,0,0,1-4.81,3.9c-1.65,1-4.09,2.33-6.17,1.88-3.11.17-6.09-1.45-8.55-3.27l-.71-.54c.24,1.61.33,3.28.47,4.88s.51,3.76,0,5.47a.27.27,0,0,1-.51,0c-.09-.45-.15-.91-.2-1.37l-.2,0a1.24,1.24,0,0,1-.39-.22h0a.89.89,0,0,1-.29.08c-12.92,1.37-26.63,10.05-29.19,23.6-1.29,6.83-.18,14,1.77,20.61a39.1,39.1,0,0,0,4,9.57,49.15,49.15,0,0,0,6.7,8.25A.91.91,0,0,1,53.24,152.57Z"/><path class="cls-3" d="M156.87,174.65c-.06-.15-.12-.29-.19-.44l-.06-.15a15.47,15.47,0,0,0-1-2c-.16-.28-.46-.6-.62-.94-7.26-2.29-15.29-2-22.8-1.73a137.31,137.31,0,0,0-26,3.26c-7.68,1.75-15.29,4-22.07,8.09q-1.78,1.08-3.45,2.28c.08.26,0,.59-.38.54l-.3,0a53.45,53.45,0,0,0-10.21,10q14.2-.1,28.41-.13,14.52,0,29,0c4.75,0,9.49-.16,14.24-.41q3.69-.21,7.38-.46a22.9,22.9,0,0,0,5.49-.73l.27-.26a9.45,9.45,0,0,0,2-2.73,15.93,15.93,0,0,0,1.59-6.06,21.64,21.64,0,0,0,0-2.9A22.76,22.76,0,0,0,156.87,174.65Z"/><path class="cls-3" d="M76.39,83.07a23.37,23.37,0,0,0,4.74.86,12,12,0,0,0,6-2.71,23.41,23.41,0,0,0,6.32-6.76c.35-.61.67-1.23,1-1.86a49,49,0,0,0,2-5.75C97.57,63,98.12,59,99.16,55.06c0,0,0-.05,0-.08a.22.22,0,0,1,.15-.27c.1-1,.19-2,.33-3a.18.18,0,0,1,.35,0,19.15,19.15,0,0,1,.11,3.21.41.41,0,0,1,0,.11v.13a1.81,1.81,0,0,0,.81.31,5.17,5.17,0,0,0,1-1.5,14.37,14.37,0,0,0,.24-1.62c.09-1,.13-2.09.22-3.13s.31-2.31.5-3.47c0-.71,0-1.42,0-2.14s-.09-1.38-.17-2.06a.29.29,0,0,0,0-.09.54.54,0,0,1-.37-.5.62.62,0,0,1,0-.13A9.47,9.47,0,0,1,101,44l0,0c0,.29,0,.58-.07.87a.2.2,0,1,1-.39,0q-.17-1.53-.3-3.09a5.82,5.82,0,0,1-.07-.73c-.17-2-.33-3.94-.43-5.9a59.27,59.27,0,0,0-.79-8.93,16.61,16.61,0,0,0-1.65-4.54c-.19-.24-.37-.49-.56-.74-.8-1.05-1.63-2.08-2.51-3.07l-.28-.29a41.34,41.34,0,0,0-5.63-4l-1-.27a3.27,3.27,0,0,0-1.41.43,4.43,4.43,0,0,0-1.34,2.54h0a8.6,8.6,0,0,0-.05,1,.29.29,0,0,1-.3.3h-.14a.31.31,0,0,1-.3-.23c-.63-1.95-1.48-4-.7-5.92a6,6,0,0,0-.58.26,7.19,7.19,0,0,0-1.71,1.29A4.12,4.12,0,0,0,79.4,16l0,.12a.45.45,0,0,1,0,.23.33.33,0,0,1-.05.22.16.16,0,0,1-.14.11.41.41,0,0,1-.16,0,.42.42,0,0,1-.56-.21,7.53,7.53,0,0,1-1-4.88,19.25,19.25,0,0,1-2.67.72c-1,.24-2.07.44-3.1.7-5.37,1.83-10.54,5-12.34,10.3-1.22,3.56-1.25,7.34-1.14,11.06.05,1.71.15,3.42.15,5.12,0,2.27.27,4.54.25,6.79a.22.22,0,0,1-.07.17s0,0,0,.08a.16.16,0,0,1-.29.13,6.74,6.74,0,0,1-.56-1.22c-.49-.17-.87-1-1.17-2a2,2,0,0,1-.38-.82A.45.45,0,0,1,56,42.4c-.45-1.16-2.28-1.75-3-.74a4.62,4.62,0,0,0-.23,1.18,7.79,7.79,0,0,0,0,1.08c0,.33.09.66.16,1,.24,1.19.47,2.38.68,3.57l0,.06a33.48,33.48,0,0,1,1,5.79c.13,1.36.46,4.15,1.93,4.8a6.85,6.85,0,0,0,1-.23c-.27-1.11-.5-2.23-.68-3.34a.19.19,0,0,1,.37-.1c2,6.23,3.77,12.39,7.64,17.79a31,31,0,0,0,6.84,7.07A18.31,18.31,0,0,0,76.39,83.07ZM57.74,54.87a.12.12,0,0,1-.16-.16c.71-1.35-.12-1.76-.87-2.66A3.32,3.32,0,0,1,56,50.52c-.28-1.51,1.31-2.5.81-4.06a.13.13,0,0,1,0-.14,4.49,4.49,0,0,0-.81-1,3.48,3.48,0,0,0-1.28-.79c-.73-.2-.69.3-.75.88a.09.09,0,0,1-.17,0,1.29,1.29,0,0,1,0-1.58c.36-.36,1.37.11,1.72.31a4.14,4.14,0,0,1,2.18,3.72c0,.15-.24.23-.31.09-.25,1.27-1.23,2.48,0,3.8C58.31,52.67,59.35,54.09,57.74,54.87ZM85.2,68.48a15.54,15.54,0,0,1-8.47.29.07.07,0,0,1,0-.14,31,31,0,0,0,4.2,0c1.4-.12,2.81-.49,4.21-.47A.17.17,0,0,1,85.2,68.48Zm2-27.15c2.55-1.23,7.08-2.53,9.42-.25,0,0,0,.13,0,.12a4.92,4.92,0,0,1-1.35-.4,2.47,2.47,0,0,1-.39,1.47c.38,0,.75-.08,1.13-.13a.1.1,0,0,1,.07.18,7.31,7.31,0,0,1-3.71.61,11.77,11.77,0,0,1-4-.26h0c.27,0,.54-.08.81-.1-.43-.29-.93-.85-.88-1.33l-1,.28C87.15,41.56,87.08,41.39,87.18,41.33ZM77.66,54.54a18.29,18.29,0,0,0,3.71.66,9.89,9.89,0,0,0,4-1.31,2.49,2.49,0,0,1,1-.11c1.32,0,1.5-.86,1-1.81a.12.12,0,0,1,.21-.12c.38.63,1.2,2.38-.22,2.63a5.89,5.89,0,0,1-1.39.06c-.8,0-1.09.46-1.69.76a6.05,6.05,0,0,1-2.42.75,13.15,13.15,0,0,1-5.51-1.14c-1.26-.49-.87-.93-.63-2,0-.12.2-.09.2,0s-.15,1,0,1.1A5.88,5.88,0,0,0,77.66,54.54ZM68.22,43.59a0,0,0,0,1,0-.09h.43a5.37,5.37,0,0,1-.76-.47,3.29,3.29,0,0,1-1-1.15q-.42.12-.84.27c-.08,0-.11-.08,0-.13a9.58,9.58,0,0,1,5.85-1.26.18.18,0,0,1,.16,0,19.6,19.6,0,0,1,2.84.42.15.15,0,0,1,.16,0c.43.1.85.21,1.24.32a.11.11,0,0,1,0,.21A4.07,4.07,0,0,1,75,41.6a7.71,7.71,0,0,1-.65.93A5.71,5.71,0,0,1,74,43c.54,0,1.09-.1,1.63-.12.07,0,.1.1,0,.14-1.2.7-2.72.47-4.07.58C70.46,43.7,69.23,44.14,68.22,43.59Zm3.12,17.25-.73-.11a4.71,4.71,0,0,1-.47.72.16.16,0,1,1-.25-.2,3.56,3.56,0,0,0,.45-.69,5.83,5.83,0,0,0,.28-.76.12.12,0,0,1,.23,0,1.58,1.58,0,0,1-.17.75l2.54.08a.15.15,0,0,1,.18,0c5.93.11,11.83-.17,17.75-.65a1.59,1.59,0,0,1,.08-1.08,0,0,0,0,1,.08,0,1.71,1.71,0,0,1,.2.71,3.44,3.44,0,0,0,.3,1c.13.27.67.75.19.94a.25.25,0,0,1-.27-.07,2,2,0,0,1-.49-1,5.75,5.75,0,0,1-1,.33,4.28,4.28,0,0,1-1,1.81,5.17,5.17,0,0,1-2.15,2.17c-1.33.86-3.58.89-4.89.91-1.9,0-4.22.34-6.06-.38a4.75,4.75,0,0,1-2.78-1.72,9.66,9.66,0,0,1-2-2.7S71.33,60.86,71.34,60.84Z"/><path class="cls-3" d="M78.62,183.19a42.72,42.72,0,0,1-7.39-3.25c-3.16-1.53-6.33-3.05-9.54-4.46A89.54,89.54,0,0,0,41.47,169c-9.4-1.66-21.18-3.21-28.35,4.34,0,.54,0,1.08,0,1.62a.56.56,0,0,1,0,.52c0,1-.13,1.89-.13,2.83a33.62,33.62,0,0,0,.46,6.72c.11.6.24,1.2.4,1.79a15.51,15.51,0,0,0,2.1,4,13.8,13.8,0,0,0,2.32,2.51c.43.36.91.68,1.35,1.05a13.82,13.82,0,0,1,3.34-.23c1.74,0,3.49,0,5.23-.05,4.14-.09,8.29-.15,12.43-.31,9.41-.37,18.84-.21,28.26-.28A38.87,38.87,0,0,1,78.62,183.19Z"/><path class="cls-6" d="M13.09,172.25h0c6-7.11,17.89-6,26.21-4.66a92.24,92.24,0,0,1,20.88,6.09c6.56,2.76,12.81,6.29,19.49,8.74,1.29-.92,2.62-1.78,3.94-2.57,6.87-4.13,14.49-6.5,22.28-8.27a138.55,138.55,0,0,1,26.3-3.31c7.42-.23,15.65-.69,22.83,1.7a10,10,0,0,0-2.68-3.88c-.46-.42-.93-.82-1.41-1.21-1.86-1.16-3.75-2.29-5.64-3.36a58.83,58.83,0,0,0-8.1-3.55,19.63,19.63,0,0,1-6-3l-.46,4.34,0,.35h-.08a5.28,5.28,0,0,1,.44.68,3.73,3.73,0,0,1,.43,1.28,2.81,2.81,0,0,1-.17,1.4,3.26,3.26,0,0,1-.83,1.15l-.06.05h-.1l-2,.32c-.66.1-1.31.23-2,.29-1.32.13-2.63.3-3.94.45l-7.87.9L98.9,168,83.15,169.8l-3.93.45-2,.23-1,.12-1,.07c-2.36.15-4.72.32-7.09.45a2.92,2.92,0,0,1-.62.44l-.22.12-.22-.14L55.5,164.31l-5.82-3.62-2.91-1.81-2.82-2-.06,0,0,0a5,5,0,0,1-.22-.56h-.16c-.75-.15-1.51-.26-2.28-.34A10,10,0,0,0,40,156a62.83,62.83,0,0,0-7.09.94A49.57,49.57,0,0,0,22,160.42l-.21.1c-4.55,2.59-8.46,6.31-9.15,11.47A.31.31,0,0,1,13.09,172.25Z"/><path class="cls-4" d="M69.43,41.39a15.62,15.62,0,0,0-2.25.41c.38.29.72.62,1.12.88a2.84,2.84,0,0,0,.86.41,1,1,0,0,1,.45.19.15.15,0,0,1,0,.19l.69,0A1.56,1.56,0,0,1,69.43,41.39Z"/><path class="cls-2" d="M72.44,41.28h-.17a1.18,1.18,0,0,1-.09.92,1.13,1.13,0,0,1-1.85.14,1.21,1.21,0,0,1-.24-1l-.47,0c0,1,.49,1.83,1.61,1.77A1.26,1.26,0,0,0,72.44,41.28Z"/><path class="cls-9" d="M69.91,81.61c0,1,1.38,1.59,2.11,2.07a21.52,21.52,0,0,0,3.89,2.18,15.51,15.51,0,0,0,7,.92A12.23,12.23,0,0,0,88.77,85c1.37-.9,3.3-3.18,2.34-4.91a.79.79,0,0,0-1.23-.16c-.52.6-.55,1.36-.92,2a4.51,4.51,0,0,1-1.71,1.62A11.71,11.71,0,0,1,82,84.89a12.88,12.88,0,0,1-6.24-1.1A29.45,29.45,0,0,1,72.49,82c-.71-.43-1.56-1.16-2.39-.71a.37.37,0,0,0-.19.33Z"/><path class="cls-9" d="M75.36,84.52a14.27,14.27,0,0,0,9.54,1,10.51,10.51,0,0,0,4.16-2.23c1-.81,2.73-2.64,2.18-4a.65.65,0,0,0-.77-.44c-1.16.34-1.68,2-2.5,2.81a8.26,8.26,0,0,1-3.57,2,18.71,18.71,0,0,1-8.71,0c-.44-.09-.8.58-.33.78Z"/><path class="cls-9" d="M90.36,80.75a3.6,3.6,0,0,0,.51-.59,3.2,3.2,0,0,0,.61-.89c.18-.49-.4-.77-.78-.6a1.83,1.83,0,0,0-.74.79,2.16,2.16,0,0,0-.36,1c0,.42.49.54.76.31Z"/><path class="cls-9" d="M70.64,81.68c1.13,3.54,6.19,5.46,9.41,6.44a18.12,18.12,0,0,0,6.21.76c1.47-.08,4.36-.46,5.07-2a.82.82,0,0,0-.7-1.22,6.28,6.28,0,0,0-2,.76,9.56,9.56,0,0,1-2.41.54,16.63,16.63,0,0,1-5.74-.59A21.38,21.38,0,0,1,75,84.15c-1.41-.82-2.64-1.9-4-2.76a.26.26,0,0,0-.37.29Z"/><path class="cls-9" d="M82.5,87.22a7,7,0,0,0,7.22-.56c2.18-1.78,2.15-4.76,1.47-7.27-.31-1.14-1.8-.77-1.93.26-.24,2.1.08,5.44-2.73,5.69L87,87.13c1.15-.78,2.24-1.63,3.33-2.49l-1.52-1.17a3.49,3.49,0,0,1-2.68,1.47l.93,1.23A1.39,1.39,0,0,0,86.91,85a.69.69,0,0,0-.76-.31,1.31,1.31,0,0,0-.85.74,1,1,0,0,0,.84,1.46,5.63,5.63,0,0,0,4.35-2.44c.7-1-.73-1.79-1.52-1.17-1,.77-1.92,1.51-2.93,2.2-.71.49-.54,1.89.49,1.79,4.17-.38,4.18-4,4.66-7.35H89.3c.43,1.77.65,3.82-.75,5.22s-3.9.91-5.74,1c-.58,0-.87.86-.31,1.14Z"/><path class="cls-9" d="M61.59,130.21a31.09,31.09,0,0,0,5-4.07q2.67-2.36,5.22-4.85a61.41,61.41,0,0,0,8.7-10.14c1.27-1.94,2.41-3.9,3.85-5.73,1.31-1.64,2.66-3.24,3.88-5,2.68-3.76,4.47-8.28,6.11-12.57.35-.91-1.17-1.55-1.56-.66-1.79,4-3.38,8.2-5.85,11.89-1.26,1.89-2.79,3.6-4.2,5.38a61.33,61.33,0,0,0-3.55,5.26A59.66,59.66,0,0,1,70.55,120q-2.53,2.49-5.15,4.93a42.52,42.52,0,0,0-4.6,4.5c-.37.49.33,1.05.79.79Z"/><path class="cls-9" d="M94.11,87.24A18.5,18.5,0,0,0,91.85,90,8.26,8.26,0,0,0,90,93.41c-.06.37.32.83.71.55a9.64,9.64,0,0,0,2.06-2.43A19.28,19.28,0,0,0,95.08,88a.62.62,0,0,0-1-.74Z"/><path class="cls-9" d="M61.64,129.52c0,.58.34,1.26.28,1.76a.75.75,0,0,0,1.13.64c2.08-1.49,3.25-4,4.84-5.91s4.36-3.45,5.11-6a.37.37,0,0,0-.54-.41,21.79,21.79,0,0,0-5.84,5.12A33.38,33.38,0,0,0,64.3,128c-.4.59-.81,1.16-1.26,1.71l-.6.71c.33-.39.2-.4.07-1s-.84-.36-.87.12Z"/><path class="cls-9" d="M63.12,130.15a35.7,35.7,0,0,1,5.69-5.08c1.92-1.49,4.79-3.35,5.5-5.83a.31.31,0,0,0-.46-.35A23,23,0,0,0,71,121.18c-1.11.92-2.24,1.82-3.37,2.71-2,1.58-4.34,3.16-5.6,5.42-.37.67.57,1.46,1.09.84Z"/><path class="cls-9" d="M63.42,130.19a14.34,14.34,0,0,0,3.74-3.08c1.38-1.42,2.71-2.85,4.18-4.19,2.44-2.24,5.83-5,6.69-8.38a.31.31,0,0,0-.52-.3A42.11,42.11,0,0,0,74.2,118c-1.22,1.38-2.57,2.63-3.9,3.9a99.25,99.25,0,0,0-7.27,7.8.32.32,0,0,0,.39.51Z"/><path class="cls-9" d="M72.26,120.93a22.07,22.07,0,0,0,5.85-7.34.22.22,0,0,0-.38-.22,37,37,0,0,1-5.88,7.14c-.29.25.13.66.41.42Z"/><path class="cls-9" d="M92,87.35c-1.43,2-1.91,5-2.21,7.36,0,.45.56.49.77.21,1.45-2,1.68-4.81,2.61-7.08.29-.72-.78-1-1.17-.49Z"/><path class="cls-9" d="M92.42,87.87c-.2,1.53-1,2.95-1.07,4.49a.26.26,0,0,0,.48.13,9.15,9.15,0,0,0,1.32-4.62.37.37,0,0,0-.73,0Z"/><path class="cls-9" d="M65.8,89.86c-3.26.14-6.61,1.77-9.44,3.3a34.23,34.23,0,0,0-8.19,6.32c-4.92,5.11-7.31,11.43-8.08,18.4A41.41,41.41,0,0,0,43,138.58,30.48,30.48,0,0,0,57.81,154a32.73,32.73,0,0,0,8.09,2.74c1.35.27,1.94-1.76.58-2.08-7.64-1.76-14.62-5.77-19.06-12.36-4-5.89-5.58-13.14-5.63-20.17,0-7.19,1.66-14.15,6.27-19.8a31.56,31.56,0,0,1,8.14-7,33.45,33.45,0,0,1,4.68-2.33c1.68-.67,3.45-1.06,5.12-1.73.73-.3.71-1.51-.2-1.47Z"/><path class="cls-9" d="M41.38,109.41c-3,3.36-2.31,9.22-1.79,13.28A76.09,76.09,0,0,0,42.71,137a33,33,0,0,0,8,13.21,25.38,25.38,0,0,0,6.47,4.48c2.7,1.33,5.74,2.74,8.82,2.28,1.09-.16.72-1.72-.24-1.8-10.78-.92-18.25-9.85-21.46-19.53a78.8,78.8,0,0,1-2.86-12.81c-.68-4.4-.83-8.74.76-13a.52.52,0,0,0-.86-.5Z"/><path class="cls-9" d="M42,110.87c.48-1.39.84-2.77,1.45-4.12A23.09,23.09,0,0,0,45,103.19a.27.27,0,0,0-.46-.26c-1.92,1.6-3.68,5.29-3.41,7.82a.48.48,0,0,0,.93.12Z"/><path class="cls-9" d="M58.69,94.18c2.42-.71,4.65-2.05,7-2.84a9.8,9.8,0,0,1,3.67-.61c.73,0,1.71,0,1.46-1a.87.87,0,0,0-.62-.62,11.19,11.19,0,0,0-6.12,1,21.51,21.51,0,0,0-5.89,3.31c-.37.3,0,.89.45.77Z"/><path class="cls-9" d="M42.41,131.37a48,48,0,0,0,2.93,9.29,24.76,24.76,0,0,0,5.4,7.5,22,22,0,0,0,8,4.75,35.9,35.9,0,0,0,4.68,1.26c1.25.24,3.07.27,3.53-1.16a.83.83,0,0,0-.79-1c-.59,0-1.09.25-1.69.26a7.28,7.28,0,0,1-2-.43c-1.44-.41-2.88-.73-4.29-1.26A19.69,19.69,0,0,1,51.32,146c-3.92-3.9-6.67-9.57-8.28-14.81a.33.33,0,0,0-.63.18Z"/><path class="cls-9" d="M65.13,152.46a7.35,7.35,0,0,0,.45,4.79c.41.67,1.54.23,1.29-.54a27.9,27.9,0,0,1-.79-4.25.5.5,0,0,0-1,0Z"/><path class="cls-9" d="M65.79,154c0,.24,0,.48,0,.72a.92.92,0,0,0,.16.69.34.34,0,0,0,.46,0,.92.92,0,0,0,.16-.69c0-.24,0-.48,0-.72a.4.4,0,0,0-.8,0Z"/><path class="cls-9" d="M59.5,118.35c-1.75,1-.67,5-.21,6.48.56,1.73,2.09,5.6,4.33,5.63a.87.87,0,0,0,.74-1.29c-.39-.74-1.26-1.23-1.76-1.92a12.26,12.26,0,0,1-1.51-2.92,17.59,17.59,0,0,1-.81-3c-.15-.86.18-1.87-.08-2.66a.49.49,0,0,0-.7-.29Z"/><path class="cls-9" d="M91,86.75c-.89,1.19-.7,3-1,4.39-.44,2-1.51,3.83-1.29,5.92,0,.17.25.26.34.09A21.53,21.53,0,0,0,91.5,86.89a.28.28,0,0,0-.52-.14Z"/><path class="cls-9" d="M53.38,44.59a4.23,4.23,0,0,0,1.09,1.51,7.2,7.2,0,0,0,1.62,1.45c.71.41,1.58-.63.9-1.16-.52-.42-1-.83-1.52-1.29A3.93,3.93,0,0,0,54,44a.51.51,0,0,0-.63.63Z"/><path class="cls-9" d="M54.11,44.46c0,1.29.37,11.41,3.45,9.43a.75.75,0,0,0,.15-1.16c-.46-.52-.84-.46-1.1-1.22a14.55,14.55,0,0,1-.47-2.93c-.15-1.26-.19-3.74-1.51-4.43a.35.35,0,0,0-.52.31Z"/><path class="cls-9" d="M56.68,46.36l-.11,0a.49.49,0,0,0-.5.14,3.23,3.23,0,0,0-.61,1.67c-.07.56-.11,1.4.36,1.8a.3.3,0,0,0,.41,0c.52-.44.42-1.37.48-2,0-.32.52-1.46,0-1.59Z"/><path class="cls-9" d="M55.94,52.47a2.13,2.13,0,0,0,.49,1.47,1.84,1.84,0,0,0,1.27.76c.38,0,.71-.55.35-.84s-.64-.26-.91-.51a3.2,3.2,0,0,1-.68-1c-.13-.26-.51-.12-.52.14Z"/><path class="cls-9" d="M75.35,54c.94,2.27,4.09,2.8,6.25,2.75,2.35,0,6-.81,7.19-3.08a.36.36,0,0,0-.4-.52c-2.09.54-3.83,1.74-6,2a9.59,9.59,0,0,1-3.46-.21A15.12,15.12,0,0,1,76,53.47c-.3-.15-.8.1-.64.49Z"/><path class="cls-9" d="M75.63,68.59c1.1,1.43,2.84,1.73,4.56,1.74s4-.16,5.14-1.45a.24.24,0,0,0-.17-.42,22.89,22.89,0,0,0-4.17.59,9.47,9.47,0,0,1-5.13-.69c-.14-.07-.35.09-.23.23Z"/><path class="cls-9" d="M13.44,179.29a10.24,10.24,0,0,1,3.2-7.42,10.32,10.32,0,0,1,7.68-3.26c2.79-.05,5.59.51,8.37.69a55.64,55.64,0,0,1,9.68,1.56A81.56,81.56,0,0,1,60,177.68,64.36,64.36,0,0,1,67.43,182a52.28,52.28,0,0,0,7.61,4.7c1.24.57,2.31-1.27,1.07-1.82A55.87,55.87,0,0,1,68,179.92a70.67,70.67,0,0,0-9-4.86,79.14,79.14,0,0,0-19.33-6.54c-3.17-.61-6.36-.77-9.56-1.08s-6.21-.76-9.29,0c-4.65,1.14-9.82,7-8.69,12a.64.64,0,0,0,1.25-.17Z"/><path class="cls-9" d="M54,174.15c4.12.89,7.41,3.94,11.16,5.71a53.69,53.69,0,0,0,6,2.29c2,.67,4.29,1.7,6.43,1.89,1,.09,1.23-1.3.48-1.76-1.83-1.1-4.34-1.45-6.38-2.08a48.4,48.4,0,0,1-7-2.68c-3.4-1.67-6.67-4.84-10.74-4.24-.44.06-.41.78,0,.87Z"/><path class="cls-9" d="M63.44,177.92a39.14,39.14,0,0,1,5.91,2.75c1.83,1.06,3.6,2.23,5.5,3.16,0-.44-.11-.89-.17-1.33-.33.41-.57,1-1,1.31a.87.87,0,0,0,.88,1.51,23.36,23.36,0,0,0,2.35-1.17L75.7,183c-.3.58-.59,1.17-.89,1.76a.89.89,0,0,0,1,1.29l.23-.08-.62-1.5a2.56,2.56,0,0,0-.47.66.73.73,0,0,0,.82,1.06,2,2,0,0,0,.89-.47.89.89,0,0,0-.62-1.51,2.13,2.13,0,0,0-.7.14l1,1.3.87-1.76c.38-.75-.4-1.7-1.2-1.21a20.5,20.5,0,0,1-2.34,1.18l.88,1.51A7.25,7.25,0,0,0,76,183.53a.84.84,0,0,0-.31-1.16c-3.77-1.74-7.79-5.41-12.16-5.25a.41.41,0,0,0-.11.8Z"/><path class="cls-9" d="M71.39,182.88a10.65,10.65,0,0,0,2.28,2c.76.5,2.13,1.26,3,.61a.41.41,0,0,0,.08-.64,12.5,12.5,0,0,0-2.39-1.13,16.35,16.35,0,0,1-2.22-1.59.52.52,0,0,0-.74.74Z"/><path class="cls-9" d="M28.61,168.47c-1.41-1.48-3.92-1.47-5.8-1.18a10.72,10.72,0,0,0-5.57,3,16.67,16.67,0,0,0-4.81,11.9,1,1,0,0,0,1.89.25c1.19-4.12,2.08-8.76,6-11.19,5.12-3.19,11.41-1.15,16.93-2.5a.37.37,0,0,0,0-.7,31,31,0,0,0-9.56-.59,18.52,18.52,0,0,0-8.62,2.38c-4.17,2.61-5.26,7.73-6.61,12.09l1.89.26a15.74,15.74,0,0,1,4-10.24A9.7,9.7,0,0,1,23,169.23c1.84-.5,3.64.1,5.47-.15.29,0,.33-.44.16-.61Z"/><path class="cls-9" d="M77,187.07c2.71-4.62,8.8-7,13.62-8.63a133.34,133.34,0,0,1,16.53-3.82,153,153,0,0,1,20.08-2.91c7.21-.42,14.91-.13,21.64,2.74a15.71,15.71,0,0,1,5.09,3.41c1.67,1.69,2.23,3.79,3,5.94.11.3.6.46.76.1,1.43-3.09-1-6.39-3.21-8.39a21.73,21.73,0,0,0-8.68-4.3c-7-2-14.57-1.9-21.77-1.24a187,187,0,0,0-18.8,3.12,110.81,110.81,0,0,0-16.85,4.24c-4.89,1.78-10.14,4.31-12,9.5-.13.35.41.55.59.24Z"/><path class="cls-9" d="M121.42,171.08c4.94-2,10.58-.17,15.67.07,2.93.14,5.88.19,8.81.45a40.55,40.55,0,0,1,4.78.73,35.63,35.63,0,0,0,4.39,1.09c.94.08,1.1-1.2.44-1.64a12.51,12.51,0,0,0-4.29-1.4,39.35,39.35,0,0,0-4.31-.66c-3.26-.34-6.55-.32-9.82-.4-5.21-.13-11.28-2-15.91,1.19-.27.19-.11.7.24.57Z"/><path class="cls-9" d="M148,172.77a10.82,10.82,0,0,1,5.91,2.3c1,.78,2.21,2.76,3.58,2.53a.37.37,0,0,0,.26-.27c.16-.9-.46-1.31-1.08-1.91a25,25,0,0,0-2.5-2.1,8.28,8.28,0,0,0-6.31-1.58c-.63.12-.41,1,.14,1Z"/><path class="cls-9" d="M153.1,172.16c-.13-.15-.19,0-.2.46l-.65.17c-.46-.16-.09,0,.09.11s.36.24.53.36a10.93,10.93,0,0,1,1,.71,9.47,9.47,0,0,1,1.62,2.4c.43.73.62,1.74,1.51,2a.57.57,0,0,0,.64-.26c.49-.88-.22-1.82-.66-2.6a9.76,9.76,0,0,0-2-2.78c-.67-.52-2-1.62-2.85-1.15a.67.67,0,0,0-.34.58c0,.45.31.51.58.77a.54.54,0,0,0,.76-.76Z"/><path class="cls-9" d="M155.83,171.91a4.56,4.56,0,0,0-.59-.2.81.81,0,0,0-1,.76,2.94,2.94,0,0,0,.59,1.56,7.54,7.54,0,0,1,.56,3c.11,1.24.14,3.81,1.49,4.42a.5.5,0,0,0,.74-.42,7.42,7.42,0,0,0-.28-1.55,24.44,24.44,0,0,1-.33-2.84c-.07-.77-.14-1.53-.26-2.29-.06-.43-1-1.57-.93-1.77l-.5.5.17.07c.81.25,1.13-1,.35-1.26Z"/><path class="cls-9" d="M155.36,172.89c-.19,0-.29-.65-.26-.15a1.76,1.76,0,0,0,.06.39c.11.37.22.73.31,1.11.28,1.24.58,2.48.84,3.73s.49,2.49.74,3.73a3.64,3.64,0,0,0,1,2.39.46.46,0,0,0,.63-.17c.45-.85,0-2.06-.14-2.93-.3-1.47-.6-2.93-.92-4.39-.24-1-.69-4.72-2.36-4.4a.35.35,0,0,0,.09.69Z"/><path class="cls-9" d="M156.4,174.71a32.74,32.74,0,0,1,.86,4.39,15.41,15.41,0,0,0,.42,3.79.33.33,0,0,0,.64,0c.48-1.32.15-2.93,0-4.3a18.42,18.42,0,0,0-1-4.12.45.45,0,0,0-.86.24Z"/><path class="cls-9" d="M140.19,169.91a14.33,14.33,0,0,1,7.27.05c1.13.23,2.25.55,3.37.86a5.66,5.66,0,0,0,2.54.5.26.26,0,0,0,.16-.38,4.56,4.56,0,0,0-2.39-1.24,27,27,0,0,0-4.17-1c-2.21-.39-5.06-.7-7,.66-.28.2-.12.7.24.58Z"/><path class="cls-9" d="M149.49,171.13c2,.09,3.79,1.17,5.77,1.46.38.06.66-.44.28-.65a12.77,12.77,0,0,0-6-1.51.35.35,0,0,0,0,.7Z"/><path class="cls-9" d="M69.42,192.9c-.41-.06-.57-.07-.86.2l.54.53a18.76,18.76,0,0,1,2.85-2c1.17-.87,2.35-1.74,3.51-2.62,2.31-1.74,4.65-3.45,7-5.08a100.06,100.06,0,0,1,14.89-8c.25-.12.06-.44-.17-.41-5.57.83-10.52,3.63-15.15,6.7-2.42,1.6-4.73,3.35-7,5.11s-4.56,3.38-6.62,5.3a.59.59,0,0,0,0,.82l.14.15a.38.38,0,0,0,.65-.26l.25-.13c.21,0,.13-.32,0-.34Z"/><path class="cls-10" d="M98.6,133.13c-.09.14-.3.16-.5.2C98.19,133.18,98.41,133.17,98.6,133.13Z"/><path class="cls-10" d="M101.38,133.77c.43-.18.39.13,0,0Z"/><path class="cls-10" d="M96.52,133.82a3.88,3.88,0,0,1-1,.55C95.71,134.08,96.16,134,96.52,133.82Z"/><path class="cls-10" d="M103.52,133.87c.09-.15.23.06.39,0C103.84,134,103.61,133.88,103.52,133.87Z"/><path class="cls-10" d="M100.54,133.87a3.9,3.9,0,0,1-.8.2C99.89,133.89,100.24,133.91,100.54,133.87Z"/><path class="cls-10" d="M95.82,134.32c.15.13-.23.16-.25.3C95.42,134.47,95.77,134.42,95.82,134.32Z"/><path class="cls-10" d="M94.93,134.72a.33.33,0,0,1,.29-.2C95.15,134.61,95.11,134.74,94.93,134.72Z"/><path class="cls-10" d="M95.37,134.52c-.07.34-.61.41-.94.59C94.58,134.64,95.15,134.9,95.37,134.52Z"/><path class="cls-10" d="M97.41,135.16a.48.48,0,0,1-.4.2A.73.73,0,0,1,97.41,135.16Z"/><path class="cls-10" d="M94.13,135.36c-.16.16-.33.3-.49.45C93.57,135.62,93.93,135.44,94.13,135.36Z"/><path class="cls-10" d="M94.28,135.41c-.08.18-.28.25-.4.4C93.8,135.65,94.13,135.5,94.28,135.41Z"/><path class="cls-10" d="M109.77,135.86c.15-.08.43.14.5.3A3.48,3.48,0,0,1,109.77,135.86Z"/><path class="cls-10" d="M110.32,136a1.89,1.89,0,0,1,.79.69A2.91,2.91,0,0,1,110.32,136Z"/><path class="cls-10" d="M92.64,136.9c-.35.22-.36.8-.69,1-.09-.11.15-.31.25-.39-.2-.05-.36.37-.5.54a1.81,1.81,0,0,1,.65-.94c0-.05-.07,0-.1-.05s.21-.32.44-.35c0,.06,0,.1,0,.1a.4.4,0,0,1-.25.3C92.52,137.05,92.6,137,92.64,136.9Z"/><path class="cls-10" d="M94.83,136.9c.14.1-.34.42-.5.55C94.42,137.19,94.66,137.08,94.83,136.9Z"/><path class="cls-10" d="M110.42,137.15c-.17,0-.15-.15-.25-.2C110.24,136.83,110.55,137.05,110.42,137.15Z"/><path class="cls-10" d="M109.32,137.75c.18,0,.21.05.3.09S109.29,137.88,109.32,137.75Z"/><path class="cls-10" d="M91.55,138.14c.1.2-.2.48-.35.75a5.46,5.46,0,0,1-.44.84A5.49,5.49,0,0,1,91.55,138.14Z"/><path class="cls-10" d="M90.26,141.07a2,2,0,0,1,.5-1.29C90.51,140.24,90.52,140.65,90.26,141.07Z"/><path class="cls-10" d="M111,141.37a1.39,1.39,0,0,1-.3-.5C111,140.89,110.93,141.18,111,141.37Z"/><path class="cls-10" d="M89.66,141.82c.11,0,.06.34,0,.39S89.73,142,89.66,141.82Z"/><path class="cls-10" d="M89.37,144.05v-.3c.09-.62.15,0,0,.3Z"/><path class="cls-10" d="M111.46,143.85c.16,0,.08.29.1.45C111.36,144.32,111.5,144,111.46,143.85Z"/><path class="cls-10" d="M89.37,144.35a.76.76,0,0,1,0,.59Z"/><path class="cls-10" d="M89.37,145.59c.18-.07.12.5,0,.3Z"/><path class="cls-10" d="M90,146.83c.19.27.17.76.3,1.09C90,147.9,90,147.21,90,146.83Z"/><path class="cls-10" d="M89.66,147.48c.13.15.13.43.2.64A.82.82,0,0,1,89.66,147.48Z"/><path class="cls-10" d="M113.69,149.56c.22,0,0,.36-.1.35C113.56,149.73,113.65,149.67,113.69,149.56Z"/><path class="cls-10" d="M95.87,152.79a1.31,1.31,0,0,1,.5.25C96.18,153.17,95.94,152.94,95.87,152.79Z"/><path class="cls-10" d="M98.9,154.38c.12-.11.5,0,.45.2C99.12,154.58,99.06,154.43,98.9,154.38Z"/><path class="cls-10" d="M109.23,155.22a1.62,1.62,0,0,1-.8.5C108.56,155.41,108.9,155.33,109.23,155.22Z"/><path class="cls-10" d="M98.55,133a5.47,5.47,0,0,1-1.14.4A3.27,3.27,0,0,1,98.55,133Z"/><path class="cls-10" d="M93.29,136.35c-.17,0-.19.26-.35.1a.5.5,0,0,1,.35-.34c0,.13-.1.1-.1.2s.09,0,.1,0a20,20,0,0,1,3.08-2.08.6.6,0,0,1-.4.25c.47.15.67-.39,1.09-.45.15.07-.08.18-.2.15.26.12.47-.23.8-.2,0,.11.17.18,0,.2a15,15,0,0,1,3.57-.74,12.78,12.78,0,0,1-1.64.29c-.24.08-.84.5-1.34.35,0,.07.13,0,.2,0s-.31.21-.4.1c-.41.37-1.44.53-1.88,1,.14.12.28-.17.49-.15-.15.26-.6.22-.74.5.14,0,.37-.26.6-.3a11.3,11.3,0,0,1-1.39,1c.13-.36.45-.36.64-.59-.4.05-.55.35-.84.5.18.22,0,.42-.3.49-.15,0,.05-.1,0-.2-.18.25-.63.44-.5.85-.1.2-.33.26-.49.39,0,.08.06,0,.14,0a1,1,0,0,1-.24.4c.27-.28.47-.45.69-.69.13.14-.14.32-.3.34-.32.77-1.1,1.48-1.44,2.39-.13-.18.17-.37.15-.6a8.34,8.34,0,0,0-.44.9c.07.14.1-.16.15-.2A11.87,11.87,0,0,0,91.4,144a1.33,1.33,0,0,1-.05-.79c-.06,0-.2,0-.15-.3-.06.49,0,1.3,0,1.79,0,.06.1.05.1,0a18.77,18.77,0,0,0,.8,3.72.14.14,0,0,1-.1-.15c-.15.09.11.18,0,.35,0,0,0-.12.15-.1a10,10,0,0,0,3,4.07c.17,0-.21-.17,0-.2a6.93,6.93,0,0,0,2,1.29c.12,0-.11-.15-.2-.15.18-.15.37.09.35.3.35.15.8.3.89.55.06-.32.46.2.75.29a19.09,19.09,0,0,0,2.48.3,8.1,8.1,0,0,0,1.49-.05s0-.1.1-.1c.74.09,1.23-.31,1.69-.34a10.68,10.68,0,0,0,7.05-9.59,3.9,3.9,0,0,0-.1-1.68c0,.21-.17.13-.15.44a25.52,25.52,0,0,0-.85-3.67,2.43,2.43,0,0,0,.15.55c-.21.18-.09-.41-.29-.4s0,.06,0,.15-.13-.11-.15-.2c-.17,0,0,.09-.05.25-.23-.11-.17-.5-.4-.6-.07-.14.14-.25,0-.3,0-.15.11,0,.2,0-.11-.08-.29-.36-.1-.44,0-.24-.31-.16-.3-.4.27.09.07-.05,0-.2.14,0,.1.1.2.1,0-.18-.23-.2-.25-.4.28-.18.35.2.5.3.14-.25-.34-.68-.6-.84.14-.15.28.12.4.15.07-.21-.36-.3-.45-.5.14-.12.31.15.45.2s0-.09,0-.1.26.13.3.3a.18.18,0,0,0-.15,0,1.26,1.26,0,0,0,.35.34c.17-.39-.41-.45-.4-.84.11,0,.12.17.2.25s.09-.14.25-.1a5.35,5.35,0,0,0-.8-.7c.07-.11.27.06.35.1-.08-.27-.49-.2-.5-.54a4.35,4.35,0,0,1,1,.74c.1,0,0-.19-.09-.2.44.12.88.67,1.24,1.05-.33-.36,0-.32.24,0,.15.19.16.6.5.59a4.22,4.22,0,0,1,.7,1.29c-.18-.22-.47-.33-.55-.64,0,.37.5.69.69,1,.09,0,0-.24,0-.35.49.35.6,1.08.79,1.74.06-.32-.19-.77-.25-1.14a12.12,12.12,0,0,1,.85,4.56c-.05,0,0-.06-.05-.09a7.9,7.9,0,0,0-.1,1.68c-.06,0,0-.1-.1-.1a18.93,18.93,0,0,1-2.09,5.47c.5-.38.63-1.13,1-1.59a1.25,1.25,0,0,1-.44.89,11.4,11.4,0,0,1-3.48,4c-.15-.17-.3.08-.34-.1a13.24,13.24,0,0,1-8,2.14c0,.06.13,0,.2,0,0,.22-1.76-.12-.55,0-.83-.18-1.64-.37-2.43-.6,0,.09.17,0,.2.1-.73,0-1.3-.59-1.94-.84-.13,0,.11.12.15.15a6.54,6.54,0,0,1-2.53-1.54c.21,0,.5.29.7.44,0-.11-.16-.24-.2-.39-.55,0-.85-.59-1.34-.8a1.34,1.34,0,0,0-.35-.79c.08.22-.43-.15-.2,0a1.64,1.64,0,0,1-.69-.85c0-.1-.32-.36-.4-.59a.89.89,0,0,0-.25-.45c0,.19.3.43.3.75-.75-.68-.6-1.77-1.09-2.78-.2.18,0,.44,0,.69a3.54,3.54,0,0,1-.5-1c.08,0,.08,0,.15,0-.29-.91-.19-2-.5-3.13-.13.19,0,.85-.25.79,0,.16.09.18.05.35-.15-.09-.13-.55,0-.59a11,11,0,0,1,0-3.13c.14.08-.07.22,0,.4.4-.75.13-1.52.4-2.14.11.09-.08.28,0,.45a9.49,9.49,0,0,1,1.69-3.18.13.13,0,0,1,0-.2c-.16-.06,0,.16-.2.1C92.11,137.81,92.73,137,93.29,136.35ZM95.82,135c.31-.19.61-.14.74-.44-.21,0-.35.27-.54.15C96,134.83,95.71,134.88,95.82,135Zm-.94.4c.08,0,.19-.22.34-.1,0-.37.6-.32.55-.54C95.46,134.89,95,135.14,94.88,135.36Zm.59.25c.06-.11.48-.33.35-.3S95.36,135.48,95.47,135.61Zm-.94.15c.14,0,.13.07.25.05s.23-.22.1-.3C94.84,135.67,94.63,135.66,94.53,135.76Zm.55.3c.08-.12.48-.39.39-.35S95,136,95.08,136.06Zm-.75.59c.08-.14.44-.25.35-.39C94.64,136.43,94.24,136.51,94.33,136.65Zm16.48.6c.09,0,.13-.06,0-.05a6.12,6.12,0,0,1-.39-.5c-.09,0-.13-.07-.15,0A3.51,3.51,0,0,1,110.81,137.25Zm1.44,1.14c.18,0-.14-.37-.24-.45C112,138.16,112.22,138.19,112.25,138.39Zm-20.75.79c.1-.09,0-.09.15,0a.37.37,0,0,1,0-.29c-.11,0-.19,0-.2.1C91.66,139,91.36,139.33,91.5,139.18Zm-.35.25a.23.23,0,0,0,.1.2s.06-.08.1-.1,0,.1.05.1a.3.3,0,0,1,0-.15s-.1,0-.1,0,.06,0,.05-.05A.37.37,0,0,0,91.15,139.43Zm-.15.7c0-.06.08-.06.15,0,0-.19.15-.15.15-.3C91.1,139.76,91,140.05,91,140.13Zm.75.15c-.06.4-.37.82-.35,1.14.14-.09.12-.51.3-.4-.07-.4.17-.59.2-.79C91.87,140.33,91.82,140.33,91.75,140.28Zm-1.09.54s0-.09,0-.1.05.12.15.1c0-.18.12-.27.14-.44-.13,0-.1.08-.19,0C90.81,140.54,90.53,140.69,90.66,140.82Zm-.2.9c-.1,0,.11-.31,0-.35C90.38,141.49,90.32,141.84,90.46,141.72Zm-.4,1.78a4.73,4.73,0,0,0,.15-1C90.18,142.78,89.86,143.27,90.06,143.5Zm1.09-.64s0-.1,0-.1,0,.1,0,.1.06-.26,0-.25S91,142.8,91.15,142.86Zm-1.39,1.44a2.84,2.84,0,0,0,0-.85A1.18,1.18,0,0,0,89.76,144.3Zm.6,3a1.27,1.27,0,0,0-.1-.65A1.27,1.27,0,0,0,90.36,147.28Zm21.74,4.81c.18.09-.31.38-.14.3s.28-.28.44-.4A1.14,1.14,0,0,1,112.1,152.09Zm-18.41,1.44s-.1,0-.1.05.12,0,.24,0,.16.15,0,.25c.21,0,.23.27.45.3a1.16,1.16,0,0,0-.74-.7S93.66,153.49,93.69,153.53Z"/><path class="cls-10" d="M98.65,133.72c-.1.25-.51.19-.74.3A2,2,0,0,1,98.65,133.72Z"/><path class="cls-10" d="M97.41,134.67c0,.14.11.06.15.2-.25,0-.32.17-.55.19,0,0,0-.05,0-.1-.18,0-.27.13-.45.15C96.81,134.9,97.16,134.83,97.41,134.67Z"/><path class="cls-10" d="M99.15,134.12s-.14.08-.05.1c-.23.11-.66.37-.85.2a1.29,1.29,0,0,1-.64.35A3,3,0,0,1,99.15,134.12Z"/><path class="cls-11" d="M78.62,133l51.11-3-1.65,27.32S101.35,137.35,78.62,133Z"/><path class="cls-12" d="M78.62,125.61S94.78,93.73,98.38,92.36s4.28,7.11.27,12.41-10.94,22.08-10.94,22.08Z"/><path class="cls-13" d="M94.93,125.61s10.56-25.81,13.35-27,2.48,4.33-6.9,27Z"/><path class="cls-14" d="M109.82,125.61s3.54-26.57,7.27-27.14,9.23,25.75,9.23,25.75Z"/><path class="cls-1" d="M158.31,173.28c-.12-.28-.24-.59-.37-.88,0,0,0,0,0,0,.74-1.76-.44-4.51-1.53-5.87-1.86-2.33-4.8-3.52-7.3-5a46.93,46.93,0,0,0-8.69-4.25l-1.13-.39c-2.05-.94-4.14-1.79-6.24-2.53l-.81-.42c.94-2.82.64-5.86,1-8.77.44-3.52,1.18-7,1.52-10.54.22-2.24.13-9.3-3.36-8.8a.48.48,0,0,0,0-.17,81.36,81.36,0,0,0-3.29-16.15c-1.54-5.53-3.72-10.84-7.38-15.33a21.47,21.47,0,0,0-13.29-7.92,54.56,54.56,0,0,0-14.72,0,27.4,27.4,0,0,0,0-7,40.9,40.9,0,0,0,5-11.48A57.89,57.89,0,0,0,99.9,57.67a.65.65,0,0,0,.31,0c4-1.34,3.9-7.13,4-10.51a28.57,28.57,0,0,0-.27-5.23,7.06,7.06,0,0,0-.51-1.31,8.11,8.11,0,0,0,.2-1.48,1.84,1.84,0,0,0,.74,0,.31.31,0,0,0,.22-.29c0-.12.07-.23.06-.36s-.3-.31-.39-.11l-.1.17a4.21,4.21,0,0,1-.51-.12c0-1.52-.3-3.06-.44-4.55-.21-2.09-.39-4.17-.67-6.26A30.72,30.72,0,0,0,98.81,16a18.78,18.78,0,0,0-9.1-7.8A27,27,0,0,0,83.57,6.7c-1.38-.2-2.88-.51-4.35-.65-1.5-.57-3-1.14-4.52-1.63-2.77-.9-7.07-1.75-9.27.75-.12.14-.06.45.17.42h.09c1.09.39,2.24.6,3.33,1l.39.16.43.2a20.56,20.56,0,0,0-2.19.3c-2,.37-5,1.41-5.83,3.52a.15.15,0,0,0,0,.09l-.11.05a.2.2,0,0,0-.08.27l-.09.11c0,.06,0,.14.1.12l.36-.1c1.21.13,2.42,0,3.64.19l.14,0a15.2,15.2,0,0,1-1.36,1.07c-1.3.87-2.63,1.7-4,2.53A13.53,13.53,0,0,0,56.8,18a16.71,16.71,0,0,0-3.42,5.2C52.05,26.4,52.2,30,52.77,33.29c.32,1.85.67,5.46,2.51,6.7a.43.43,0,0,1,0,.11,2.62,2.62,0,0,0-1.59-.71,2.23,2.23,0,0,0-1.87,1.28c-1.23,2.09-.58,5.14,0,7.3A37.4,37.4,0,0,1,53,53a24.9,24.9,0,0,0,.69,4.62c.34,1.13,2,3.3,3.38,3.32a56.82,56.82,0,0,0,2,5.63,32.65,32.65,0,0,0,3,6.27,51.41,51.41,0,0,0,4.19,5.77,22.12,22.12,0,0,0,2.63,3c0,1.33.39,2.72.4,4a16.14,16.14,0,0,0,.06,2.65C56,89.2,42.47,98.69,39.18,112c-1.39,5.64-1,11.61.12,17.32a42.83,42.83,0,0,0,5.79,16.28,25.22,25.22,0,0,0,3.08,4c.48.58,1,1.14,1.5,1.7a10.8,10.8,0,0,0-4.93.5,3.59,3.59,0,0,0-2.23,2.45c-1.59-.49-3.47-.14-5.07,0a42.81,42.81,0,0,0-8.25,1.44A46,46,0,0,0,18,160.25a16.41,16.41,0,0,0-7.41,8.25,10.09,10.09,0,0,0-.47,4.9,3.88,3.88,0,0,0,.77,1.83,25.86,25.86,0,0,0,.87,11.69,17.77,17.77,0,0,0,3.12,5.73c.83,1,2.41,2.95,4,3.25L19,196a.37.37,0,0,0,.3.13c3.13,0,6.25,0,9.38-.13l2.29,0c4.73-.06,9.46-.15,14.2-.22,9.24-.12,18.49.08,27.73,0,1.39.1,2.77.2,4.15.28,9.72.56,19.46.57,29.19.22,3.41-.12,6.82-.3,10.23-.51q7.68,0,15.36-.16c4.17-.08,8.33-.29,12.49-.54,2.09-.12,4.18-.26,6.26-.4a16.68,16.68,0,0,0,3.17-.24,5.49,5.49,0,0,0,1.7-1.27.63.63,0,0,0,.2-.26,12,12,0,0,0,2.57-3.23,16.25,16.25,0,0,0,1.8-6.09,17.89,17.89,0,0,0-.33-6.84A23.32,23.32,0,0,0,158.31,173.28ZM106.12,88a19.94,19.94,0,0,1,13.07,7.7c3.49,4.25,5.39,9.61,6.85,14.84.71,2.54,1.3,5.12,1.92,7.69.31,1.32.76,2.66,1,4a26.1,26.1,0,0,0,.74,3.62.34.34,0,0,0,.06.15l-.8.06-12.09.84-24.19,1.68-3,.2-3,.26-6,.52-12.08,1h0A2.27,2.27,0,0,0,66.31,132a3.89,3.89,0,0,0-.33,1.3,7.39,7.39,0,0,0,0,1.33,7.4,7.4,0,0,1,0-1.33,3.65,3.65,0,0,1,.36-1.26,2.2,2.2,0,0,1,.86-.95,2.15,2.15,0,0,1,1.23-.28h0l12.11-.63,6-.32,3-.16,3-.22,24.19-1.68,12.09-.84,1.08-.08a.25.25,0,0,0,.12.17,1.1,1.1,0,0,0,.48.19.58.58,0,0,0,.61,0,1.19,1.19,0,0,1,.62.26,4.47,4.47,0,0,1,1.06,2.26l0,.14c0,.21,0,.42-.06.65l-.16,1.51-.32,3-2,18.63v0h0a.32.32,0,0,0,0,.09.74.74,0,0,0,0,.33l-.5,4.69-62.15,7.52-.15-3.55c0-1.35-.09-2.69-.17-4L67,150.72l-.32-5.27a.26.26,0,0,0,0-.38l0,0-.14-2.37L66,134.6l.18,8.08,0,1.83a19.47,19.47,0,0,1-2.7-5.18,17.67,17.67,0,0,1-1.24-5.64l0,0a25.91,25.91,0,0,1,2.37-2.43c.82-.85,1.6-1.74,2.41-2.61,1.73-1.85,3.42-3.73,5.09-5.64,3.2-3.66,6.25-7.46,9.16-11.36a142.71,142.71,0,0,0,8-11.93A85.6,85.6,0,0,0,95.6,87.86,68.44,68.44,0,0,1,106.12,88ZM68.9,169a4.18,4.18,0,0,0-.45-1.33c-.09-.17-.19-.33-.29-.49l62.22-7.54.21,0a5.6,5.6,0,0,1,.36.74,3.93,3.93,0,0,1,.26,1.25,2.38,2.38,0,0,1-.27,1.18,2.72,2.72,0,0,1-.72.83l-1.9.13c-.66.05-1.32.08-2,.16-1.31.17-2.62.31-3.93.46l-7.87.91L98.8,167.12l-15.75,1.8-3.93.46-2,.22-1,.11c-.33,0-.66.1-1,.15-2.3.38-4.6.75-6.89,1.15a2.09,2.09,0,0,0,.36-.47A2.34,2.34,0,0,0,68.9,169Zm-8-30a20.38,20.38,0,0,0,1.84,4.48,12.68,12.68,0,0,1-1.49-1.53,16.2,16.2,0,0,1-3-6.6,32.34,32.34,0,0,1-.38-11.27c.27,1,.6,2,.91,3s.75,2,1.18,3a10.32,10.32,0,0,0,1.09,2.21,4,4,0,0,0-.75,2.14A11.7,11.7,0,0,0,60.9,139ZM91.21,14.68h0l-.07,0ZM64.92,73.24c-3.87-5.4-5.64-11.56-7.64-17.79a.19.19,0,0,0-.37.1c.18,1.11.41,2.23.68,3.34a6.85,6.85,0,0,1-1,.23c-1.47-.65-1.8-3.44-1.93-4.8a33.48,33.48,0,0,0-1-5.79l0-.06c-.21-1.19-.44-2.38-.68-3.57-.07-.32-.12-.65-.16-1a7.79,7.79,0,0,1,0-1.08A4.62,4.62,0,0,1,53,41.66c.7-1,2.53-.42,3,.74a.45.45,0,0,0,.15.18,2,2,0,0,0,.38.82c.3,1,.68,1.85,1.17,2a6.74,6.74,0,0,0,.56,1.22.16.16,0,0,0,.29-.13s0,0,0-.08a.22.22,0,0,0,.07-.17c0-2.25-.24-4.52-.25-6.79,0-1.7-.1-3.41-.15-5.12-.11-3.72-.08-7.5,1.14-11.06,1.8-5.29,7-8.47,12.34-10.3,1-.26,2.08-.46,3.1-.7a19.25,19.25,0,0,0,2.67-.72,7.53,7.53,0,0,0,1,4.88.42.42,0,0,0,.56.21.41.41,0,0,0,.16,0,.16.16,0,0,0,.14-.11.33.33,0,0,0,.05-.22.45.45,0,0,0,0-.23l0-.12a4.12,4.12,0,0,1,1.25-2.87,7.19,7.19,0,0,1,1.71-1.29,6,6,0,0,1,.58-.26c-.78,1.93.07,4,.7,5.92a.31.31,0,0,0,.3.23h.14a.29.29,0,0,0,.3-.3,8.6,8.6,0,0,1,.05-1h0a4.43,4.43,0,0,1,1.34-2.54,3.27,3.27,0,0,1,1.41-.43l1,.27a41.34,41.34,0,0,1,5.63,4l.28.29c.88,1,1.71,2,2.51,3.07.19.25.37.5.56.74a16.61,16.61,0,0,1,1.65,4.54,59.27,59.27,0,0,1,.79,8.93c.1,2,.26,3.93.43,5.9a5.82,5.82,0,0,0,.07.73q.14,1.56.3,3.09a.19.19,0,1,0,.39,0c0-.29.06-.58.07-.87l0,0a9.47,9.47,0,0,0,1.23-3.21.62.62,0,0,0,0,.13.54.54,0,0,0,.37.5.29.29,0,0,1,0,.09c.08.68.14,1.37.17,2.06s0,1.43,0,2.14c-.19,1.16-.39,2.31-.5,3.47s-.13,2.09-.22,3.13a14.37,14.37,0,0,1-.24,1.62,5.17,5.17,0,0,1-1,1.5,1.81,1.81,0,0,1-.81-.31V55a.41.41,0,0,0,0-.11,19.15,19.15,0,0,0-.11-3.21.18.18,0,0,0-.35,0c-.14,1-.23,2-.33,3a.22.22,0,0,0-.15.27s0,.05,0,.08c-1,3.9-1.59,7.9-2.71,11.79a49,49,0,0,1-2,5.75c-.31.63-.63,1.25-1,1.86a23.41,23.41,0,0,1-6.32,6.76,12,12,0,0,1-6,2.71,23.37,23.37,0,0,1-4.74-.86,18.31,18.31,0,0,1-4.63-2.76A31,31,0,0,1,64.92,73.24ZM46.26,143.49a39.1,39.1,0,0,1-4-9.57c-1.95-6.6-3.06-13.78-1.77-20.61,2.56-13.55,16.27-22.23,29.19-23.6a.89.89,0,0,0,.29-.08h0a1.24,1.24,0,0,0,.39.22l.2,0c0,.46.11.92.2,1.37a.27.27,0,0,0,.51,0c.53-1.71.18-3.72,0-5.47s-.23-3.27-.47-4.88l.71.54c2.46,1.82,5.44,3.44,8.55,3.27,2.08.45,4.52-.85,6.17-1.88a25.29,25.29,0,0,0,4.81-3.9,45.59,45.59,0,0,0-.15,5.6c0,.63,0,1.3-.06,2a.68.68,0,0,0,0,1.17,10.65,10.65,0,0,0,.42,3.26.11.11,0,0,0,.21,0,10.36,10.36,0,0,0,.42-3.12c1,.06,1.93.07,2.89.06-2.07,3.8-3.93,7.69-6.18,11.41-2.48,4.1-5.2,8.06-8.06,11.9s-6.12,7.81-9.36,11.56c-1.65,1.93-3.34,3.82-5,5.7-.79.87-1.56,1.75-2.35,2.6-.42.45-.87.84-1.26,1.28a2.16,2.16,0,0,0,0-.58.19.19,0,0,0,0-.07.84.84,0,0,0,0-.17h0a.12.12,0,0,0,0-.11c-.15-.39-.38-.77-.6-1.23-.56-1.16-1-2.35-1.49-3.56-.34-.95-.62-1.94-1-2.92-.1-.36-.2-.73-.28-1.1a7,7,0,0,1-.26-2.31,15.6,15.6,0,0,1,.8-1.58.24.24,0,0,0-.37-.29,7,7,0,0,0-1.51,2.26.53.53,0,0,0-.45.32c-1.84,4.69-1.75,10.36-.63,15.2.84,3.66,3,7.58,6.25,9.73.21.14.43.27.65.39a10.06,10.06,0,0,0,2,.86.7.7,0,0,0,.67-.13l.1,3.72.18,7.15a35.42,35.42,0,0,1-13.32-5.33.91.91,0,0,0-.28-.83A49.15,49.15,0,0,1,46.26,143.49Zm-.53,9.61.34.13h5.58a1,1,0,0,0,.92.13,35.49,35.49,0,0,0,14,5.58c0,1.31.1,2.61.16,3.91l.14,3.2-10.44-6.59-2.79-1.76-1.38-.89c-.47-.29-1-.55-1.43-.82q-2.58-1.45-5.18-2.87Zm-1.63.9a2.74,2.74,0,0,1,1.47-.85c1.61,1.17,3.24,2.33,4.87,3.48.45.31.9.64,1.36.94l1.39.87L56,160.2l11,6.92v.24l.23,0a6.56,6.56,0,0,1,.5.79,3.28,3.28,0,0,1,.36,1,1.48,1.48,0,0,1-.14.94,1.57,1.57,0,0,1-.52.54L56,163.56l-5.82-3.62-2.9-1.81-3-1.62A4.15,4.15,0,0,1,44,156a.42.42,0,0,0-.16-.5,3.63,3.63,0,0,1-.08-.73A2.1,2.1,0,0,1,44.1,154ZM12.67,172c.69-5.16,4.6-8.88,9.15-11.47l.21-.1a49.57,49.57,0,0,1,10.86-3.52A62.83,62.83,0,0,1,40,156a10,10,0,0,1,1.22,0c.77.08,1.53.19,2.28.34h.16a5,5,0,0,0,.22.56l0,0,.06,0,2.82,2,2.91,1.81,5.82,3.62,11.63,7.23.22.14.22-.12a2.92,2.92,0,0,0,.62-.44c2.37-.13,4.73-.3,7.09-.45l1-.07,1-.12,2-.23,3.93-.45L98.9,168l15.74-1.81,7.87-.9c1.31-.15,2.62-.32,3.94-.45.65-.06,1.3-.19,2-.29l2-.32h.1l.06-.05a3.26,3.26,0,0,0,.83-1.15,2.81,2.81,0,0,0,.17-1.4,3.73,3.73,0,0,0-.43-1.28,5.28,5.28,0,0,0-.44-.68h.08l0-.35.46-4.34a19.63,19.63,0,0,0,6,3,58.83,58.83,0,0,1,8.1,3.55c1.89,1.07,3.78,2.2,5.64,3.36.48.39.95.79,1.41,1.21A10,10,0,0,1,155,170c-7.18-2.39-15.41-1.93-22.83-1.7a138.55,138.55,0,0,0-26.3,3.31c-7.79,1.77-15.41,4.14-22.28,8.27-1.32.79-2.65,1.65-3.94,2.57-6.68-2.45-12.93-6-19.49-8.74A92.24,92.24,0,0,0,39.3,167.6c-8.32-1.36-20.17-2.45-26.21,4.66h0A.31.31,0,0,0,12.67,172ZM68.8,193.44c-9.42.07-18.85-.09-28.26.28-4.14.16-8.29.22-12.43.31-1.74.05-3.49.06-5.23.05a13.82,13.82,0,0,0-3.34.23c-.44-.37-.92-.69-1.35-1.05a13.8,13.8,0,0,1-2.32-2.51,15.51,15.51,0,0,1-2.1-4c-.16-.59-.29-1.19-.4-1.79a33.62,33.62,0,0,1-.46-6.72c0-.94.08-1.88.13-2.83a.56.56,0,0,0,0-.52c0-.54,0-1.08,0-1.62,7.17-7.55,19-6,28.35-4.34a89.54,89.54,0,0,1,20.22,6.51c3.21,1.41,6.38,2.93,9.54,4.46a42.72,42.72,0,0,0,7.39,3.25A38.87,38.87,0,0,0,68.8,193.44Zm89.37-10.81a15.93,15.93,0,0,1-1.59,6.06,9.45,9.45,0,0,1-2,2.73l-.27.26a22.9,22.9,0,0,1-5.49.73q-3.69.26-7.38.46c-4.75.25-9.49.41-14.24.41q-14.52,0-29,0-14.2,0-28.41.13a53.45,53.45,0,0,1,10.21-10l.3,0c.34,0,.46-.28.38-.54q1.66-1.2,3.45-2.28c6.78-4.1,14.39-6.34,22.07-8.09a137.31,137.31,0,0,1,26-3.26c7.51-.26,15.54-.56,22.8,1.73.16.34.46.66.62.94a15.47,15.47,0,0,1,1,2l.06.15c.07.15.13.29.19.44a22.76,22.76,0,0,1,1.33,5.08A21.64,21.64,0,0,1,158.17,182.63Z"/><path class="cls-1" d="M57.39,48c.07.14.3.06.31-.09a4.14,4.14,0,0,0-2.18-3.72c-.35-.2-1.36-.67-1.72-.31a1.29,1.29,0,0,0,0,1.58.09.09,0,0,0,.17,0c.06-.58,0-1.08.75-.88a3.48,3.48,0,0,1,1.28.79,4.49,4.49,0,0,1,.81,1,.13.13,0,0,0,0,.14C57.28,48,55.69,49,56,50.52a3.32,3.32,0,0,0,.74,1.53c.75.9,1.58,1.31.87,2.66a.12.12,0,0,0,.16.16c1.61-.78.57-2.2-.3-3.1C56.16,50.45,57.14,49.24,57.39,48Z"/><path class="cls-1" d="M75.61,43c.07,0,0-.15,0-.14-.54,0-1.09.07-1.63.12a5.71,5.71,0,0,0,.38-.48A7.71,7.71,0,0,0,75,41.6a4.07,4.07,0,0,0,1.26.15.11.11,0,0,0,0-.21c-.39-.11-.81-.22-1.24-.32a.15.15,0,0,0-.16,0A19.6,19.6,0,0,0,72,40.77a.18.18,0,0,0-.16,0A9.58,9.58,0,0,0,66,42c-.06,0,0,.16,0,.13q.42-.15.84-.27a3.29,3.29,0,0,0,1,1.15,5.37,5.37,0,0,0,.76.47h-.43a0,0,0,0,0,0,.09c1,.55,2.24.11,3.32,0C72.89,43.5,74.41,43.73,75.61,43ZM73,41.31A9.3,9.3,0,0,1,74,41.4a4.35,4.35,0,0,1,.52.1c-.16.18-.29.39-.44.59s-.57.66-.84,1l-.81.1A1.71,1.71,0,0,0,73,41.31Zm-1.78,0h.59c.12.43,0,.94-.51,1s-.88-.43-.93-1C70.61,41.3,70.89,41.28,71.18,41.28Zm-1.54,2.19a.15.15,0,0,0,0-.19,1,1,0,0,0-.45-.19,2.84,2.84,0,0,1-.86-.41c-.4-.26-.74-.59-1.12-.88a15.62,15.62,0,0,1,2.25-.41,1.56,1.56,0,0,0,.9,2Zm0-2.1.47,0a1.21,1.21,0,0,0,.24,1,1.12,1.12,0,0,0,1.94-1.06h.17a1.26,1.26,0,0,1-1.21,1.86C70.11,43.2,69.58,42.37,69.62,41.37Z"/><path class="cls-1" d="M87.26,41.52l1-.28c-.05.48.45,1,.88,1.33-.27,0-.54.06-.81.1h0a11.77,11.77,0,0,0,4,.26A7.31,7.31,0,0,0,96,42.32a.1.1,0,0,0-.07-.18c-.38,0-.75.1-1.13.13a2.47,2.47,0,0,0,.39-1.47,4.92,4.92,0,0,0,1.35.4c.06,0,.09-.08,0-.12-2.34-2.28-6.87-1-9.42.25C87.08,41.39,87.15,41.56,87.26,41.52Zm7.52-.84h.06a3.18,3.18,0,0,1-.5,1.62l-1.58.08a1.67,1.67,0,0,0,.7-1.84A6.64,6.64,0,0,1,94.78,40.68Zm-2.69-.08h0a.55.55,0,0,1,0,.34.79.79,0,0,1-.49.47.77.77,0,0,1-.66,0,1.07,1.07,0,0,1-.39-.6C91.11,40.69,91.6,40.63,92.09,40.6Zm-1.85.21a1.28,1.28,0,0,0,.5.9,1.17,1.17,0,0,0,1.09.13,1.26,1.26,0,0,0,.78-.73,1,1,0,0,0,.06-.55h.39c.46.89-.32,1.52-1.19,1.75a1.65,1.65,0,0,1-1.32-.17c-.46-.29-.46-.8-.54-1.27Zm-.53.1a1.77,1.77,0,0,0,.52,1.5l.08.06-.72.06a.15.15,0,0,0-.06-.09c-.4-.27-1-.74-1-1.28C89,41.07,89.33,41,89.71,40.91Z"/><path class="cls-1" d="M75.9,52.94c0-.12-.18-.15-.2,0-.24,1.07-.63,1.51.63,2a13.15,13.15,0,0,0,5.51,1.14,6.05,6.05,0,0,0,2.42-.75c.6-.3.89-.79,1.69-.76a5.89,5.89,0,0,0,1.39-.06c1.42-.25.6-2,.22-2.63a.12.12,0,1,0-.21.12c.51,1,.33,1.79-1,1.81a2.49,2.49,0,0,0-1,.11,9.89,9.89,0,0,1-4,1.31,18.29,18.29,0,0,1-3.71-.66,5.88,5.88,0,0,1-1.74-.5C75.75,54,75.9,53.14,75.9,52.94Z"/><path class="cls-1" d="M76.13,65.31c1.84.72,4.16.4,6.06.38,1.31,0,3.56,0,4.89-.91a5.17,5.17,0,0,0,2.15-2.17,4.28,4.28,0,0,0,1-1.81,5.75,5.75,0,0,0,1-.33,2,2,0,0,0,.49,1,.25.25,0,0,0,.27.07c.48-.19-.06-.67-.19-.94a3.44,3.44,0,0,1-.3-1,1.71,1.71,0,0,0-.2-.71,0,0,0,0,0-.08,0A1.59,1.59,0,0,0,91.15,60c-5.92.48-11.82.76-17.75.65a.15.15,0,0,0-.18,0l-2.54-.08a1.58,1.58,0,0,0,.17-.75.12.12,0,0,0-.23,0,5.83,5.83,0,0,1-.28.76,3.56,3.56,0,0,1-.45.69.16.16,0,1,0,.25.2,4.71,4.71,0,0,0,.47-.72l.73.11s0,0,0,0a9.66,9.66,0,0,0,2,2.7A4.75,4.75,0,0,0,76.13,65.31ZM73.48,61.1c2.55.22,5.1.2,7.68.21,1.88,0,3.77-.07,5.65-.17l.9,0a12.4,12.4,0,0,1-.23,2.72c-.1.09-.19.19-.29.29a12.33,12.33,0,0,1-5.49,1,23.42,23.42,0,0,1-6.09-.37,12.9,12.9,0,0,1-1.82-1.34h0c0-.42-.28-.78-.31-1.23S73.5,61.46,73.48,61.1Z"/><path class="cls-1" d="M85.16,68.14c-1.4,0-2.81.35-4.21.47a31,31,0,0,1-4.2,0,.07.07,0,0,0,0,.14,15.54,15.54,0,0,0,8.47-.29A.17.17,0,0,0,85.16,68.14Z"/><path class="cls-1" d="M91.48,124.18A32.24,32.24,0,0,1,96,117.83a34.4,34.4,0,0,0,3.82-6.32,55.14,55.14,0,0,0,4.81-16,.28.28,0,0,0-.54-.15c-1.82,5.43-2.76,11-5.3,16.19a46.32,46.32,0,0,1-4,6.6,24.8,24.8,0,0,0-3.45,6A.08.08,0,0,0,91.48,124.18Z"/><path class="cls-1" d="M103.8,126.82c2.45-4.68,5.17-9.79,6.32-15,.48-2.16.7-4.38,1.11-6.56a24,24,0,0,1,.74-2.92c.24-.71.92-1.53.94-2.27a.08.08,0,0,0-.1-.08c-1.26.26-1.81,2.9-2.08,3.91-.59,2.17-.81,4.43-1.2,6.64-1,5.72-4.46,10.61-5.87,16.2A.08.08,0,0,0,103.8,126.82Z"/><path class="cls-15" d="M84.56,35.26,85.32,38a64.24,64.24,0,0,1,8.25-2.74c2.93-.58,4.4.66,4.4.66l-3-2.87Z"/><path class="cls-15" d="M77,35.61l-.52,2.8a63.7,63.7,0,0,0-8.45-2c-3-.33-4.33,1-4.33,1l2.79-3.12Z"/><path d="M222.12,27.83c-.51.67-1,1-1.86.33a5.63,5.63,0,0,1-4.55,1.35c-1.52,0-3,.85-4.73.34,0,.17-.17.34-.17.51-5.73.34-11.47.5-16.7.84-2.2-.34-4.05-.5-5.91-.67-.67,0-1,.33-.84,1a28.39,28.39,0,0,0,1,5.23c-.34.34-.51.67-.67.84a1.94,1.94,0,0,0,.33.51c.17,1.86.34,3.71.51,5.4a3.27,3.27,0,0,1,.17,1.18,4.65,4.65,0,0,0-.17,1.52c.17,2.19.51,4.22.51,6.41a39,39,0,0,1-.17,6.08c.17,1.18.17,2.53.33,4h-.16c0,.34.16.51.16.68a.61.61,0,0,1-.16.34c.33,1.85.5,3.54.67,5.23-.17.17-.17.5-.34.67.17.17.34.51.51.68a9.52,9.52,0,0,0-.17,2.19c0,.34.17.84.17,1.35a29.64,29.64,0,0,1,.17,3.88c0,1-.17,2-.17,3.21v1.85a1.53,1.53,0,0,0,.17.85,2.79,2.79,0,0,1-.17,2,11,11,0,0,0,0,2.36v.17a27.18,27.18,0,0,1,.17,3.72,24.69,24.69,0,0,1,.17,3.54,20.08,20.08,0,0,0,0,3.2c0,2.2-.17,4.22-.17,6.42a36.38,36.38,0,0,1-.17,4.38c0,1.18.17,2.37-.34,3.21-.67,1.35-.34,2.87-.5,4.22a13.49,13.49,0,0,0-.17,2.7,37.82,37.82,0,0,1,.17,4.38c0,.85.16,1.69.16,2.37,0,.5-.16,1.18-.16,1.68a1.08,1.08,0,0,0,0,1c-.17.5-.17,1-.34,1.51-.68.68-.85,2-2.2,2.2a3,3,0,0,1-2.86-.51c-1-1-2.37-1.85-3.38-2.87a4.94,4.94,0,0,1-1.18-2.7,64.89,64.89,0,0,1-.84-8.26c-.17-.17,0-.51,0-.68l-.17-.17a40.71,40.71,0,0,1,.17-4.55c0-2.53.17-4.9.33-7.26V87.39c0-3.21-.16-6.58-.16-10s.33-6.91.16-10.29c0-2.36-.33-4.72-.33-7.25-.17-3.55,0-7.09-.17-10.63,0-3-.17-6.25-.34-9.45,0-2.53-.17-5.06-.34-7.6a12.38,12.38,0,0,1,.34-2,18.7,18.7,0,0,0-3.21.34,24,24,0,0,0-3.37.33c-1.35.17-2.53.17-3.88.34-1.69,0-3.21-.17-4.89-.17h-3.21a6.82,6.82,0,0,0-1.86,0,9.08,9.08,0,0,1-4.21-1c-1.69-.67-2.7-2.19-3.88-3.54-.85-1-.85-1.69,0-2.87,2.36-.34,5.06-.68,7.59-1.18,2.19-.34,4.39-1,6.58-1.35,1.85-.17,3.71-.17,5.4-.34.84,0,1.52-.17,2.36-.17,2.7,0,5.4-.17,8.1-.17a55.05,55.05,0,0,1,7.42-.17c4,.34,7.93-.5,11.81-.33,3.55,0,7.26,0,10.8.17h4.22a3.4,3.4,0,0,1,.85.5,2.31,2.31,0,0,0,2,.51c1.18-.17,2.19-.34,2.87-.51,1.35.85,1.35,2,1.52,3a11.2,11.2,0,0,0,1,2C222.12,26.31,222.62,27,222.12,27.83ZM207.44,29a7.33,7.33,0,0,1-1.18-1,4.75,4.75,0,0,0-.68,1.35C206.26,29.18,206.76,29.18,207.44,29Z"/><path d="M221.11,118.27c1,.33,2,.67,3.2,1.18,3.54,1.35,6.58-.34,9.79-1.52,2-.68,3.88-1.35,5.73-2a8.9,8.9,0,0,1,2.2-.17,2.46,2.46,0,0,0-.17,1c0,.17.17.34.34.5a7.53,7.53,0,0,1-.51,1.52c.84.85,1.52,1.69,2.19,2.37a2.06,2.06,0,0,1,.34,2.53,2.1,2.1,0,0,0-.17,1,4.62,4.62,0,0,1-2.7,3.88,23.93,23.93,0,0,1-7.59,2,6.09,6.09,0,0,0-3.38,1,6.25,6.25,0,0,1-2.53.33,31.11,31.11,0,0,1-4-.5c-3-.68-6.07-1.18-8.6-3a8.74,8.74,0,0,0-1.35-.67,12.15,12.15,0,0,0-1.52-.85c-.34-.5-.84-1-1.35-1.68-.34-.17-.51-.68-.84-.85a32.54,32.54,0,0,1-3.88-5.57c-1.18-1.85-1.35-4-1.86-6.07a22.35,22.35,0,0,1-1-8.1c.17-2.7.34-5.57.5-8.27,0-.84-.16-1.69-.16-2.53,0-2.87.16-5.57.16-8.44.17-4.89.17-9.61.34-14.34.17-3.54.34-6.92.51-10.29q.51-6.58,1-13.16c.17-2.87.34-5.74.68-8.61.5-4.55,1-8.94,1.68-13.33.17-1.35.51-2.7.68-4.21.33-1.86,2.36-2.87,3.71-3,1-.17,2.19-.17,3.21-.34a41.12,41.12,0,0,1,4.55-.51c2.2-.16,4.39-.16,6.58-.16.51,0,1.18-.17,1.69-.17a35,35,0,0,1,4.22,0c2,.17,4.05.67,6.07.84l2,.51c.33.17.84.33.84.67.51,1.18,1.52,1,2.36,1.18s1.52.34,2.53.51c-.17.51-.17.84-.33,1.18a.17.17,0,0,1-.17-.17c-.51.51-1,1-1.52,1.52l.17.17a5,5,0,0,1-1.52.34,1,1,0,0,1-.68-.17v.34a7.5,7.5,0,0,1-1.85.33,36.07,36.07,0,0,0-5.74.85,18.61,18.61,0,0,1-2.87.67,7.11,7.11,0,0,1-.84-.17c-2.19.68-4.39.17-6.08.34-2,.34-3.71.67-5.4,1a1,1,0,0,0-1,1.35c.34,2.2-.33,4.22-.67,6.41-.17,1-.17,2-.34,3s-.17,1.86-.34,2.87c0,.51.34,1,.34,1.35a22.39,22.39,0,0,1,.17,3.37,50.87,50.87,0,0,1,.34,5.23c0,.85-.34,1.69-.34,2.54,0,1.18.17,2.36.17,3.54,0,.34-.17.67,0,1v7.26c0,.67-.17,1.52-.17,1.85-.85,1.35-1.35,0-2,0,.17,1.52,1.35,1.69,2.37,2a2.1,2.1,0,0,0,1,.17c2.53-.34,5.23-1,7.76-1.18a23.84,23.84,0,0,1,4.89.16c2.2.17,4.22.34,6.25.68,1.52.34,3.2.67,4.72,1A1.7,1.7,0,0,1,242.2,72,6.85,6.85,0,0,0,241,73.89l-1,1c0,.17.17.51.17.68v.17c-1.18.84-1.85,2.19-3.54,2.7s-3.21,0-4.9.5c-3.54,1-7.25.51-10.79.17h-2.87a6.29,6.29,0,0,0-1.18,1,1.35,1.35,0,0,1,.16.68h-.16c0,1.35.16,2.53.16,3.88,0,.17.17.34.17.51h-.17c.17,4.89.34,9.78.51,15,.85.68.51,1.86.34,3,.17.17.17.34.34.51v4.72h.33a2.33,2.33,0,0,0,.34,1c.17,1.69.34,3.38.68,5.07a15.44,15.44,0,0,0,.84,2.69c.17.17,0,.51,0,.51C220.77,118.1,220.94,118.27,221.11,118.27Zm-7.94-50.62a16.39,16.39,0,0,1-1-1.69,1.29,1.29,0,0,0-.17.68,7.74,7.74,0,0,0,1,1.18Zm.34,48.09.85.84.16-.17a8.29,8.29,0,0,0,1.19.51.65.65,0,0,1,.16-.51.8.8,0,0,0-.5-.17c-.34-.17-.34-.5-.51-.67a.62.62,0,0,1,.17-.51C214.52,115.23,214,115.57,213.51,115.74Zm6.24,1.85v-.5c-.33-.34-.67-.51-1-.85-.17.51-.33,1-.5,1.69C218.74,117.76,219.25,117.76,219.75,117.59Z"/><path d="M305.13,125.52c0,1.18-.33,1.52-2,2a1.77,1.77,0,0,0-1.18,2.19c-.34.51-.68.84-1.18,1.52-1.19.51-2,1.86-4.05,2.19-1.35.34-3,.85-4.9,1.35a5.57,5.57,0,0,1-1.68,0,93.7,93.7,0,0,1-10-1.85,27.29,27.29,0,0,1-4.89-2.53,22.37,22.37,0,0,1-3.21-2.37,45.59,45.59,0,0,1-4.39-3.54,86.16,86.16,0,0,1-7.25-8.44,28.14,28.14,0,0,1-4.72-9.28c-1-3.71-2-7.42-2.7-11.13A92.88,92.88,0,0,1,251.81,86a41,41,0,0,1,.17-6.41,54.35,54.35,0,0,1,1.69-10.46c.51-2.2.84-4.39,1.52-6.58,1-3.55,2-7.09,3.2-10.47,1.19-3,2.7-6.07,4.05-8.94a63,63,0,0,1,2.7-5.74c.17-.33.51-.67.51-.84.68-1.35,1.18-2.53,1.69-3.54,1.52-2.2,2.87-4.39,4.38-6.58a31.43,31.43,0,0,1,8.95-8.1,34,34,0,0,1,7.93-3,34.85,34.85,0,0,1,3.88-.51c2.19-.16,4,1.19,5.73,2.2a7.44,7.44,0,0,1,2.54,2c.33.34.17,1.18.17,1.69,0,.17-.68.17-1,.34a3.69,3.69,0,0,0-1,.67,6.41,6.41,0,0,1-2.7,1.18,8.94,8.94,0,0,0-3.37.85,44.28,44.28,0,0,0-6.42,3c-1.52.85-2.7,2.37-4,3.55a29.09,29.09,0,0,1-2,2.36c-1.69,1.52-2.7,3.54-3.88,5.57,0,.34-.34.5-.51.84-.84,1.86-1.68,3.55-2.53,5.4-.84,1.69-1.35,3.38-2.19,5.06a36.3,36.3,0,0,0-2.7,8.61c-.85,3-1.69,6.07-2.53,9.11-.34,1.35-.68,2.53-1,3.88-.16,1.18-.5,2.36-.67,3.54,0,0-.17.17,0,.17.34,1.69-.51,3.21-.68,4.73-.16,1.35-.5,2.53-.67,3.37,0,2.87-.17,5.4,0,8.1a19.13,19.13,0,0,0,.84,4.22c.17.51.17.84.34,1.35.34,1.86.68,3.54,1,5.23.17,1,.34,2,.68,3.38a7,7,0,0,1,1.52,3.37,20.11,20.11,0,0,0,1.85,3.88,5,5,0,0,1,.68,1.35c1.18,1.35,2.36,2.87,3.54,4.22.17,0,.17,0,.17-.17,0,.34.17.51.17.84,0-.17,0-.17.17-.33,1.35,1.35,2.87,2.7,4.22,4.21,1.85,1.86,3.71,3.55,6.24,3.89a9.7,9.7,0,0,0,4.89-.17,61.8,61.8,0,0,0,5.74-2.7,26.3,26.3,0,0,1,3-1.69,9.06,9.06,0,0,1,3,0c.68.17,1.35.17,2,.34.34,0,.51.17,1,.33C303.45,124.17,304.29,124.85,305.13,125.52Z"/><path d="M360.81,81.31c-.17,5.91,0,11.82,0,17.55V115.4c0,4.56,0,9.11-.17,13.67,0,2.19-.17,4.38-1.68,6.24a14.77,14.77,0,0,1-2.7.34c-.68-.85-1.18-1.69-1.69-2.2a10.49,10.49,0,0,0-2.36-1c-.17-1.52-.17-3-.34-4.39-.51-3.71-1.35-7.42-1.86-11-.17-2.2,0-4.22-.17-6.25-.5-3.71-.16-7.42-.84-11.13-.67-3.55-1.35-7.26-.67-11a17.16,17.16,0,0,0,0-2.87c0-.51.33-1,.33-1.69h-.33c-.34-1.85.84-3.71-.51-5.23-.34,0-.68.17-1,.17a2.45,2.45,0,0,1-.51.34c-2-.17-4.05-.34-5.74-.51l-.67.68c.17.17.34.17.51.34v.33a6.3,6.3,0,0,0-1.86.17,2.74,2.74,0,0,1-.67-.84c-.51.34-1,.5-1.52.84a7.52,7.52,0,0,0-1.18-.84,1.58,1.58,0,0,0,.16.84,3.66,3.66,0,0,1-1.35.17,2.93,2.93,0,0,0-.33-.84,3.85,3.85,0,0,1-.51.84c-.34-.34-.51-.67-.84-1-.51.17-1,.34-1.69.5a.65.65,0,0,1-.51-.16c-2,.16-2,.84-2.19,3.37,0,1.69-.17,3.54-.17,5.4,0,.17-.34.34-.34.34V90.6c0,1.35-.17,2.69-.17,4-.33,2.2-.67,4.39-.84,6.75-.17,1.86-.34,3.72-.34,5.57-.33,4.22-.67,8.61-1,13-.17,3.37-.34,6.91-.5,10.46a2.56,2.56,0,0,1-1.35,2.19c-1.19.51-1.86.17-2.87-1-.85-1.18-1.69-2.53-2.53-3.72a9.52,9.52,0,0,1-.85-2.36c-.17-1.35,0-2.53-.17-3.88a37.57,37.57,0,0,0-.84-3.71c-.17-.84-.17-1.69-.34-2.53V103.92c0-.5-.17-1.18-.17-1.85h-.17c0-6.07-.16-12.15-.16-18.22h-.17c0-.51-.34-1.18-.17-1.52a4,4,0,0,0,.17-3.38,12.67,12.67,0,0,1,0-5.06c0-.51-.17-1-.17-1.52a13.21,13.21,0,0,0,1.35-1h-1.52c0-3.71,0-7.42-.17-11.47,0-1.86.17-3.88.17-5.91h.17c-.17-.17-.17-.51-.34-.67.17-.17.34-.34.51-.34-1.18-1.52-.34-3-.68-4.56a9,9,0,0,0,1-.67c-.5-.17-.67-.17-.84-.34a.62.62,0,0,1-.17-.51,2.45,2.45,0,0,1,.34-1.18c.17-.17.34-.33.51-.33-.34-.68-.68-1.19-1-1.86.34-.17.51-.17.68-.34-1.18-2.7-.85-5.74-1-8.6s.16-5.74.16-8.78c1.52-.34,1.19-1.68,1.35-2.7,0-1.52.85-2.36,1.35-3.54a15.69,15.69,0,0,1,.85-1.69,2.08,2.08,0,0,1,2.19.17c1.52.84,2.7,1.86,4.39,2.36a3.87,3.87,0,0,1,2.7,3.21,86,86,0,0,1,1.18,9.11c.17,2.53,0,4.89,0,7.42.17,3.72.34,7.43.34,11.14V70c0,1,.5,1.52,1.52,1.18a1.93,1.93,0,0,1,.16.84,18.25,18.25,0,0,0,3-.16c.51.33.68.5,1,.67l.51-.51a9.65,9.65,0,0,0-1.86-1c2.2-.33,4.22-.5,6.42-.84a2.43,2.43,0,0,0-.51.67c.34.34.51.85.84,1.18a2.56,2.56,0,0,1,1.18-.33l-.16-.17h-1c.17-.51.17-1,.34-1.18,2.36-.17,4.73-.51,7.26-.68a4.26,4.26,0,0,1-1.19.68H348c.17-1.52.17-3,.34-4.56,0-.5.16-1,.16-1.69,0-2.7.17-5.56.17-8.43l.51-10.13c.17-.16.17-.16.17-.5H350v-.68h-.67c-.17-1-.17-2-.34-3.2a1.76,1.76,0,0,0,.68-.17,5.34,5.34,0,0,1-.51-1.52,32.53,32.53,0,0,1-.34-4c0-1.52.17-2.87.17-4.22V24.45c.68.17,1,.17,1.52.34a1.8,1.8,0,0,1,.17-1c-.51,0-.85.17-1.18.17a.17.17,0,0,0-.17-.17l1-1.52-.34-.34a10.76,10.76,0,0,1,1-2.7c.84.68,1.68,1,2.36,1.52a1.81,1.81,0,0,0,.84.17c1.52-.34,2.36.67,4,1.35,1,.17,1.52,1.52,2,2.7a44.25,44.25,0,0,1,.5,4.55c.17,3.21.34,6.25.34,9.28.17,2.37,0,4.9,0,7.26.17,2.53.34,5.23.34,7.93s-.34,5.23-.34,7.93C361,68.32,360.81,74.9,360.81,81.31ZM316.27,38.46c-.34-.17-.51-.34-.85-.51-.17.17-.33.17-.67.34.17.34.17.67.34,1A8.24,8.24,0,0,0,316.27,38.46Zm-1.18-11,1,1a2.59,2.59,0,0,0,1.35.34c0,.51-.17,1-.17,1.52.34-.17.67-.17,1-.34a1.3,1.3,0,0,0,.34-.67,3.53,3.53,0,0,0,1.35,1c1,.17,1.69.5,1.85,1.69a2.31,2.31,0,0,1-.84-.51,11,11,0,0,1-.67,1.18,3.74,3.74,0,0,1,1.18-.17c0,.17.17.34.33.51.68-.51,1.19-.85,1.86-1.35-.17-.17-.17-.51-.34-.68l-1,.51a3.26,3.26,0,0,0-.17-1.35c-.84-.17-1.68-.51-2.7-.68a2.14,2.14,0,0,1,.17-1,10.58,10.58,0,0,0-1.18.34c-.17-.34-.34-.51-.51-.84-.16,0-.5.16-.67.16l-.68-.67a6.7,6.7,0,0,1,.17-.84.17.17,0,0,0-.17-.17,2.24,2.24,0,0,1-.5.67A2.42,2.42,0,0,1,315.09,27.49Zm0,37.12c.33.84.5,1.35.84,2h.34a5.07,5.07,0,0,0-.51-1.86,13.65,13.65,0,0,1,1.35,1,3.62,3.62,0,0,0,.51-.84C316.77,64.78,315.93,64.78,315.09,64.61Zm.84-28.18h-.51a4.69,4.69,0,0,1-.17,1.35,4.4,4.4,0,0,0,1.19-.5A3.72,3.72,0,0,0,315.93,36.43Zm-.51,16.37c.51.17,1,.51,1.52.67h.17a8.83,8.83,0,0,0-1.18-1.35A2.35,2.35,0,0,0,315.42,52.8Zm.34-3.88h.51a6.54,6.54,0,0,1,.84-1.18c-.17,0-.17-.17-.34-.17-.17.17-.33.34-.5.34s-.34-.17-.68-.34C315.59,48.08,315.76,48.58,315.76,48.92Zm.68,20.58a.59.59,0,0,0,.33-.17c-.17-.67-.5-1.18-.67-1.85a.53.53,0,0,1-.34.17A8.14,8.14,0,0,0,316.44,69.5Zm1.85-11.3-.17-.34c-.67-.34-1.35-.5-2.19-.84a21.82,21.82,0,0,1,2,2.19A1.41,1.41,0,0,0,318.29,58.2Zm-2-35.1c.33.17.67.51.84.51.17.67.51,1.35.68,2a2.81,2.81,0,0,0,1-.5,10.66,10.66,0,0,1-1.18-1.86c.33-.34.67-.5,1-.84h-1c-.17.17-.17.34-.34.5h-1Zm1,38.14h-1l1.52,2a.36.36,0,0,1,.33-.34A7.76,7.76,0,0,0,317.28,61.24Zm.34,31.89c-.17-.51-.34-1.18-.68-2-.17.34-.34.51-.34.68l.51,1.51A.65.65,0,0,0,317.62,93.13Zm.17-16.88a4,4,0,0,0-.34-1.35.62.62,0,0,0-.51.17,4,4,0,0,1,.34,1.35A.62.62,0,0,0,317.79,76.25Zm-.68-50.45c.34.85.51,1.35.68,1.86h.33c0-.34.17-.85.17-1.35A8.11,8.11,0,0,0,317.11,25.8ZM318,41.33a15.7,15.7,0,0,1,.68-2.2,2.88,2.88,0,0,1-1.35-.17A13.16,13.16,0,0,0,318,41.33Zm.68,8.26a.59.59,0,0,0,.34-.17,13.38,13.38,0,0,1-.51-1.85c-.17.51-.51.67-.51.84C318.12,48.75,318.46,49.26,318.63,49.59ZM318,67.82a2.54,2.54,0,0,1,1,.33,2.42,2.42,0,0,0-.34-1,4.23,4.23,0,0,1,1.52.68c.17-.17.5-.17.84-.34-.34-.51-.5-1-.84-1.52-.17.34-.51.68-.68,1a3.68,3.68,0,0,0-1-.17,11,11,0,0,1,1.18-.67c-.17-.17-.17-.34-.34-.51-.33.17-.67.17-1,.34A8.69,8.69,0,0,1,318,67.82ZM319.64,80a7.37,7.37,0,0,0-1-1.19.17.17,0,0,1-.17.17,6.14,6.14,0,0,0,.67,1.52Zm-1-58.22a12.91,12.91,0,0,1,1.52.85v.67c.34-.17.67-.17.84-.34-.34-.67-.67-1.35-1-2-.17.17-.34.17-.34.34A5.92,5.92,0,0,1,318.63,21.75Zm.67-2.19c.17.34.17.67.34,1,.34,0,.68-.17,1.35-.17-.5-.67-.67-1-1-1.52ZM321,68.32h-1.35c0,.17,0,.17-.17.34l1.52,1Zm-.5-8.43a2.6,2.6,0,0,1,.16-1.18h-.5a2.81,2.81,0,0,0-.51,1.68c0,.17.51.51.68.68.17,0,.17-.17.33-.17A2.65,2.65,0,0,1,320.49,59.89Zm.33-11.14a3.3,3.3,0,0,0,1.35.67,1.35,1.35,0,0,0,.68-.16v-.17c-.51-.17-1-.51-1.52-.68a1.52,1.52,0,0,0-.17-.84c-.34,0-.84.17-1.18.17C320.32,48.24,320.49,48.58,320.82,48.75Zm.51-8.77a5.15,5.15,0,0,1,.17-1.69c-.34-.17-.51-.17-.68-.34C320.15,38.79,320.32,39.47,321.33,40Zm-.68-15.53v.17a3.56,3.56,0,0,0,1,.68l.67-.68C321.67,24.62,321.16,24.45,320.65,24.45Zm.17,25.82a12.38,12.38,0,0,0,.34,2,5.53,5.53,0,0,1,.67-.84,11.05,11.05,0,0,1-.67-1.35C321,50.1,320.82,50.1,320.82,50.27Zm1.69,17.21a1,1,0,0,1-.68-.17c-.16-.34-.5-.51-.5-.67H321v1.51A5.61,5.61,0,0,0,322.51,67.48Zm1.18-6.24-.17-.17c-.17,0-.33,0-.33.17-.34.5-.85.5-1.52.5-.51-.17-.85.34-.51,1,.17,0,.34.17.67.17.17-.17.17-.33.34-.5.17,0,.34.17.68.17C323.19,62.08,323.35,61.74,323.69,61.24Zm-2.53-.51c0,.17.17.34.51.84a13.45,13.45,0,0,0,.16-2.36c.51,0,.85-.17,1.52-.17-.33-.33-.5-.5-.67-.5a16,16,0,0,0-1.52.5Zm29.53-33.58v1.52c.5.17.84.34,1.35.51a1.32,1.32,0,0,0,.17-.51L351.36,27a9.43,9.43,0,0,1,.68-2C350.69,25.3,350.52,26,350.69,27.15Zm2.19,11.64a5.65,5.65,0,0,1-.84-1.35,8.63,8.63,0,0,1-1.18.51v1.18C351.53,39,352,39,352.88,38.79Zm.85,42.52c-.34,0-.68-.16-1.19-.16a11.26,11.26,0,0,0,.34-1.18c0-.17-.34-.51-.67-.85a5,5,0,0,1-.34,1.69c.17.17.17.5.34.67a4.62,4.62,0,0,0,1.52.17Zm-.34-39c.17-1.35-.17-1.86-1.35-1.69a10.07,10.07,0,0,0,.67,1.18v.68A1,1,0,0,0,353.39,42.34Zm0-15.69c-.51-.17-.68-.17-1.18-.34l.84.84a8.2,8.2,0,0,0-.17,2,2.51,2.51,0,0,0,1,.17,11.21,11.21,0,0,1,1.52-.68v-1a2.14,2.14,0,0,0-1,.17c0-.34,0-.51.17-.68h.51a.17.17,0,0,1-.17-.17,7.74,7.74,0,0,0,1.18-.67,32.05,32.05,0,0,0-3-2.19l-.17.16C353.05,25,353.22,25.8,353.39,26.65ZM354.57,31c.34-.33.51-.5.84-.84-.17-.17-.17-.34-.33-.68a5,5,0,0,1-1.52.34v.68a2.28,2.28,0,0,0,.67.5l-1,.51c.34.51.51.84.67,1a3.66,3.66,0,0,0,1.35-.17A10.38,10.38,0,0,1,354.57,31Zm-1.35,13.16c.67-.33,1.18-.67,2-1-.5-.34-.84-.67-1-.67C353.89,43,353.73,43.52,353.22,44.19Zm3,8.27v-.34h-1a4.37,4.37,0,0,1,.34-1.18c-.5-.17-1-.33-1.69-.5a9,9,0,0,1,.68,1.18,3.63,3.63,0,0,0-.68.84,2.45,2.45,0,0,0,.51.34A10.85,10.85,0,0,1,356.26,52.46Zm1.85-25.81h-.84c-.17,0-.34-.17-.51-.34l-.5,1a7.29,7.29,0,0,0,1.18,1.18A8.1,8.1,0,0,0,358.11,26.65Z"/><path d="M375.32,15.34a5.38,5.38,0,0,1,3.55.68c1,.67,2.19,1,3.2,1.68A8.24,8.24,0,0,1,385.62,24c.16,1,.67,2,.84,3.2.17.34.34.51.34.85a12.61,12.61,0,0,0,.5,4.21,17.2,17.2,0,0,1,1.35,5.07c.34,2.53,1.69,5.06,1.69,7.76,0,1.69.84,3.37,1.18,5.23.34,1.18.51,2.53,1,3.88l2,5.57c.5,1.68,1.18,3.54,1.69,5.23.33,1.69.84,3.37,1.18,5.06a11.67,11.67,0,0,1,.67,2.19c.51,1.86,1,3.72,1.69,5.57a46.28,46.28,0,0,0,1.35,4.56c1.35,4,2.7,8.27,3.88,12.48.17.17.17.34.51.51a6.37,6.37,0,0,0,.33-1.86c-.5-3,0-6.07.17-8.94.34-3.37.51-6.75.68-10.12.17-1.86.33-3.55.5-5.23V60.73c.17-3.71.34-7.26.34-10.8.17-5.23.17-10.46.34-15.69.17-5.57.17-11.14.33-16.71.17-.67.17-1.35.34-2.19a3.55,3.55,0,0,1,.51-1.18A8.71,8.71,0,0,1,413.29,16c.84.84,1.52,1.85,2.36,2.7,0,.16,0,.16.17.33.34,2.2.67,4.39,1,6.41.17,1.19.34,2.37.51,3.38v6.92c0,2,0,4.22.16,6.41a27.46,27.46,0,0,0,.34,3.88c.17,1.69.17,3.37.34,4.89a8.2,8.2,0,0,1-.17,2c0,.5-.17,1-.17,1.52-.17,2.87-.34,5.56-.34,8.26-.16,2.2-.16,4.39-.16,6.42v1.68a3.72,3.72,0,0,1-.85.51c1,.84.68,1.69.51,2.7-.17,1.86,0,3.71,0,5.57,0,3.37,0,6.75.17,10,0,1.86.17,3.71.17,5.4,0,1-.17,1.86-.17,2.7v8.1a22.43,22.43,0,0,0,0,3.38,50.68,50.68,0,0,1,.5,5.06c.17,2.53.17,4.89.17,7.25,0,.51-.34,1-.34,1.52-.16,1.35-.33,2.53-.5,3.88s-.34,2.7-.51,3.71c-1.18.51-2.19,1-3.2,1.52a1.85,1.85,0,0,1-1.35,0c-1.18-.67-2.7-1.18-3.21-2.7,0-.16-.17-.33-.34-.5A6.33,6.33,0,0,1,406.2,126c-.84-1.86-2-3.54-3-5.4-.5-1-.84-2.19-1.35-3.38-.84-2.36-1.85-4.72-2.7-7.08-1-3.21-2-6.25-2.86-9.45-1.35-5.06-2.71-10.12-4.05-15.36-1.35-4.38-2.87-8.94-4.05-13.49-.51-2.2-.68-4.56-1.19-6.75a22.35,22.35,0,0,0-1.18-4.9c-1.51-3.88-1.51-8.26-3-12.31-.34-1-.68-1.86-1-2.87h-.5c.17.84.17,1.85.34,2.7.16,1.68.16,3.37.33,4.89.34,2.36.51,4.73.68,7.09.17,2.87.17,5.73.34,8.6.16,3.21.33,6.41.33,9.62,0,1-.17,2-.17,2.87v2.7c0,3.37.17,6.58.34,9.78v5.57c0,1.18.17,2.2.17,3.38.17,2,.17,4.05.17,6.24v7.26c-.17,2.7-.17,5.4-.34,8.26l.68.68c-.17.34-.34.34-.68.51a12.91,12.91,0,0,1-.34,2.69,3.25,3.25,0,0,1-3.2,2.7c-2-.16-3.88-.5-5.06-2.53a11.61,11.61,0,0,1-1.69-4.21c-.34-4-.84-8.1-.34-12.15a40.89,40.89,0,0,0-.17-4.56V99.88c0-1.69,0-3.55-.17-5.4v-15c0-2.53.34-5.23.34-7.76.17-3.38.17-6.92.17-10.46,0-2.37,0-4.9-.17-7.43-.17-3-.5-6.24-.5-9.28V32.89a84.22,84.22,0,0,0-.51-13,32.28,32.28,0,0,1,.17-4,11.15,11.15,0,0,1,.67-1.52C373.47,14.67,374.31,15,375.32,15.34Zm-.67,110.18c0,.17,0,.17-.17.17.34.51.34,1.18,1.35,1.18A7.55,7.55,0,0,1,374.65,125.52Zm3.54-68.84a6.3,6.3,0,0,0,.17,1.86,1.83,1.83,0,0,0-.17,1.85h.34c0-.67-.17-1.18-.17-1.85A1.84,1.84,0,0,0,378.19,56.68Zm1.69-15.19a7.09,7.09,0,0,1-.34,1,2.82,2.82,0,0,0,1.18-.17Zm0,36.45c.17-.17.17-.51.34-.84h-.34c-.17.17-.17.5-.34.84Zm.5-32.06a.89.89,0,0,0-.67,1.18c.34-.33.51-.67.84-1C380.38,46.05,380.38,46.05,380.38,45.88Zm.34,15.19c-.84-.17-.84,0-.5.84C380.55,61.57,380.55,61.24,380.72,61.07Z"/><path d="M483,85.53c-.5,5.4-1.51,10.8-2.19,16.2a43.73,43.73,0,0,1-3.37,12.15c-1.19,2.87-2.2,5.74-3.38,8.44a9,9,0,0,1-3.88,4.72c-1,.68-1.69,1.69-2.7,2.36a10.35,10.35,0,0,1-5.74,2.87,19.88,19.88,0,0,1-7.08-.34,25.85,25.85,0,0,1-8.44-3.37c-1.35-1-2.87-1.86-3.71-3-1.52-1.85-2.7-4.22-4.05-6.24-.85-1.35-1.35-2.87-2.2-4.22,0,0,0-.17-.16-.17-.85-2.87-1.86-5.73-2.7-8.6-.34-.68-.51-1.35-.85-2a20.59,20.59,0,0,1-1.85-5.73c-.17-.85-.85-1.69-1-2.53-.84-2.2-1.35-4.39-2-6.59a7.66,7.66,0,0,1-.51-1.18c.17-.17.34-.17.51-.33-.34-1.86-1.69-3.55-1-5.91a2.45,2.45,0,0,0-.34-.51,6.3,6.3,0,0,1,1-.33,4.36,4.36,0,0,1-1.18-.68c.17-2.87.17-5.9.34-9.11,0-1.18-1.35-2.53-.17-4-.17,0-.17-.17-.34-.34,0-.17,0-.17.17-.33l.17-.17a1.79,1.79,0,0,1,.84.17l-.67-.68a7.58,7.58,0,0,0,.17-.84c-.17-.17-.34-.17-.51-.34V63.6a1.29,1.29,0,0,0,.68.17v1a3.16,3.16,0,0,0,1.18-.34c-.34-.34-.34-.5-.68-.67.17-.17.34-.51.51-.68-.17-.84-.17-1.69,1.18-2v-.68h.17c.17-1,.17-1.85.34-2.87-.68-.16-1.35-.33-1.86-.5-.17.17-.17.34-.34.34.34.5.68.84,1,1.35a2.33,2.33,0,0,1-.84.16c-1.18-1-.51-2.19-.34-3.2a14.27,14.27,0,0,1,.51-3.88c.17-1,.67-2,.84-3,.34-.84.34-1.86.68-2.87.5-1.85,1-3.88,1.68-5.74.34-1,.85-1.85,1.19-2.86a39.26,39.26,0,0,1,2.53-4.56,33.9,33.9,0,0,1,3-3.88,10.48,10.48,0,0,1,2.7-2.7,8.81,8.81,0,0,1,4.73-1,11.37,11.37,0,0,0,3.37-.34c3-.34,6.08-.67,8.95,0a39.87,39.87,0,0,1,9.45,3.37,21.16,21.16,0,0,1,10.12,13c1.18,4.38,2.53,8.6,3.71,12.82.68,3.21,1.18,6.41,1.69,9.62.5,3.71.84,7.59,1,11.3A74,74,0,0,1,483,85.53Zm-56.86-22.1c.17-1.18.34-2,.51-2.87v.68c.17,0,.33.16.5.16a3.32,3.32,0,0,0,.17,1.19A7.48,7.48,0,0,0,426.11,63.43Zm1.69-2.7a10,10,0,0,1-1.18-.34,1.81,1.81,0,0,1,.17-.84h.84C427.63,59.89,427.8,60.22,427.8,60.73Zm-1.18-.17v0ZM429,55.84a8.55,8.55,0,0,0-1.35.84.17.17,0,0,0,.17.17c.17,0,.34-.17.5-.34.17,0,.34.17.68.34Zm43.36,18.39c0-1.69.17-3.38.17-5.23-.5-.51-.84-2.7-.5-4.56a29.64,29.64,0,0,1-.17-3.88V58.87c-.17-.67-.17-1.18-.34-1.85a21.85,21.85,0,0,0-1.69-7.43c-.67-1.51-1.35-2.86-1.85-4.21-.85-2.2-1.69-4.39-2.37-6.42-.17-.33-.33-.67-.5-1l.17-.17a33.84,33.84,0,0,0-2.87-3.88,10,10,0,0,0-7.26-4.55,1.27,1.27,0,0,0-.84.33,35.17,35.17,0,0,0-3.71,5.07,24,24,0,0,0-3.21,9.61c-.84,4.22-1.69,8.27-2.7,12.49a49.06,49.06,0,0,0-1.35,17.21,46.92,46.92,0,0,1,0,4.89c0,2.2-.17,4.39,0,6.58a86,86,0,0,0,1.86,9.11c.84,3.38,1.85,6.92,2.87,10.47a20.39,20.39,0,0,0,3.37,7.59c1.69,2.36,3.54,4.55,5.23,6.92.51.67,1,1.18,1.86.5,0,.51.17.68.17,1.18.5,0,1,.17,1.18-.16a37.74,37.74,0,0,0,3.71-3.55,9.57,9.57,0,0,0,1.18-1.35.53.53,0,0,1,.34.17c.17-.84.33-1.69.5-2.87,2.2-1.68,2-4.89,3.38-7.42.17-.34.34-.84.5-1.18.34-1.35.85-2.53,1.35-4l.34-.34A40.8,40.8,0,0,1,471,96V93.13c.17-1.86.17-3.55.17-5.4a16.18,16.18,0,0,0,0-2.87,12.4,12.4,0,0,1,.51-6.08,10.59,10.59,0,0,0,.67-2.19,11,11,0,0,0,.17-2.36Zm1.86-7.09c-.17-.84-.17-1.85-.34-2.7h-.17V65a21.37,21.37,0,0,1-.84,2,2.15,2.15,0,0,1,.67.51C473.69,67.31,474,67.31,474.2,67.14Z"/><path d="M578.64,102.41a43.87,43.87,0,0,0-.34,4.72,25,25,0,0,0-.33,3.38c-.34,1.85-.51,3.71-.68,5.56-.17,1-.34,1.86-.5,2.7l-1,3.55a2.52,2.52,0,0,1-2.53,1.68,4.17,4.17,0,0,1-2.36,2.7,20.54,20.54,0,0,1-3.21,2,21.2,21.2,0,0,1-7.93,2h-.5c-1.52.68-3,.17-4.56.17a24.68,24.68,0,0,1-7.76-1.68,1,1,0,0,0-.68-.17c-.33,1.35-2,3.2-3,3.2-2,0-3.21-.67-3.55-2.19.17,0,.17,0,.51-.17l-.51-2h-.16c.16,0,.16-.16.33-.16a7.14,7.14,0,0,1-.33-1.86,16.53,16.53,0,0,1-.51-4c-.34-3.21-.51-6.41-.68-9.62-.33-4.22-.67-8.6-1-12.82,0-.68.17-1.18.17-1.86.17,0,.34-.17.68-.33a.88.88,0,0,1-.68-.34,74.31,74.31,0,0,0-.68-10.63,71.34,71.34,0,0,1-.16-8.44c-.17-2-.17-3.88-.17-5.9,0-.34,0-.85.17-1a14.74,14.74,0,0,1-.34-2.53c-.17-4.22-.17-8.6-.17-12.82,0-3-.17-6.24-.17-9.28.17-3.21.17-6.24.34-9.45.17-6.92.5-13.84.67-20.75.17-2.37.34-4.56.51-6.92a5.1,5.1,0,0,1,.34-1.35l1-.51c1,1,2,2,2,3.55a6.34,6.34,0,0,0,.51,1.68c.51,1.52.84,3,1.35,4.56a6.94,6.94,0,0,0,1.35-.51A16.75,16.75,0,0,1,551.14,15a10.33,10.33,0,0,1,5.4,1.35,15.35,15.35,0,0,0,1.68.85c3,.84,5.24,3,7.09,5.57.84,1.35,2,2.53,2.36,4,.51,1.52,1.69,2.87,1.86,4.73a9.32,9.32,0,0,1-.34,3c-.34,2.36-.67,4.72-1,7.08A46.49,46.49,0,0,1,567,46.73c-.85,2.53-1.69,5.06-2.7,7.42-.17.67-.68,1.35-.84,2a9.5,9.5,0,0,0-.68,2c-.17.17-.51.34-.67.51a46.27,46.27,0,0,0-2,4.21,17.53,17.53,0,0,1-3,4.56c-.5.67-.84,1.52-1.35,2.19a9.54,9.54,0,0,1-1.35,1.18,6,6,0,0,1,.17,1c1.35.33,2.7.67,3.55.84,1.68,1.18,3,2,4.21,3,1.52,1.35,3.21,2.36,4.39,4,.34.67,1,1,1.52,1.51a15.05,15.05,0,0,1,2.87,3.55c1.35,2.19,2.87,4.22,4.22,6.41a7.58,7.58,0,0,1,1.52,4.22c-.17,1.35.67,2.7,1.18,4.05A5.22,5.22,0,0,1,578.64,102.41ZM539,91.44a.17.17,0,0,0,.17-.17,1.29,1.29,0,0,1-.34-.84,1.48,1.48,0,0,0-.84.17v.33Zm0,2.36V93c-.17,0-.34,0-.34.17v.67Zm.51,25.65c.33-.17.67-.51,1.18-.85-.17-.33-.34-.84-.51-1.18C539,117.76,538.65,118.44,539.5,119.45Zm0-20.92a17.15,17.15,0,0,1,.16,2.86,2.56,2.56,0,0,0,.34-3C539.83,98.36,539.66,98.53,539.5,98.53Zm.67,3a2.77,2.77,0,0,1-.51,1c0,1.34.17,2.19.17,3.2h.34C540.68,104.43,540.17,103.08,540.17,101.56Zm.17,23.63A.53.53,0,0,0,540,125c-.17.5-.17,1-.34,1.52H540A3.12,3.12,0,0,1,540.34,125.19Zm.5-18.57c-.33,0-.67.17-1,.17a14.66,14.66,0,0,0,.34,2.87c-.17.68-.17,1.18-.34,1.86h.34a2.45,2.45,0,0,1,.51-.34,5.19,5.19,0,0,0,.33-1.52.17.17,0,0,1-.17.17ZM540,90.09a5.72,5.72,0,0,1,.17,1.69h.17V90.26C540.17,90.26,540.17,90.09,540,90.09Zm0,3.71h.17a7.11,7.11,0,0,1,.17-.84.53.53,0,0,0-.34-.17Zm.84,29.7a26,26,0,0,1,.68-3.54l-.17-.17c-.34.33-.67.67-1,1h.17c-.17,1.18-.34,2.19-.51,3.37.34.17.84.17,1.35.34A5.53,5.53,0,0,0,540.84,123.5Zm.85-7.59c-.34-.17-.68-.17-.85-.34a6.85,6.85,0,0,1,.68-1.18,12.45,12.45,0,0,1-.84-2.37h-.34c-.68,1.69,0,3.55-.17,5.4C541.18,117.42,541,116.24,541.69,115.91Zm1.85,5.56c0-.17,0-.17-.16-.33a4.38,4.38,0,0,0-1.35.16c.16.34.16.51.33.85A4.36,4.36,0,0,1,543.54,121.47Zm.85,6.58c-.85-.33-1-.33-1,.17.33,0,.5.17.84.34C544.39,128.22,544.39,128.22,544.39,128.05Zm2.53,0h-1.69c-.17-.84-.17-1.51-.34-2.19a12,12,0,0,1-1.18-.67c.51.67.68,1.35,1,1.85a1.29,1.29,0,0,1-.68-.17,7.66,7.66,0,0,0,.51,1.18,7.19,7.19,0,0,1,1.35.51c.17,0,.17.34.33.51A10.07,10.07,0,0,0,546.92,128.05ZM544.56,44.7c0,.34.17.84.17,1.35,0,1.69-.17,3.37-.17,5.06l.5,9.11a5.4,5.4,0,0,0,1,3c3.37-4.72,5.9-9.95,8.77-14.85.17-.33.17-.67.34-1,1-2.36,2-4.56,2.87-6.92,1.18-3.2,2-6.41,1.35-9.95-.51-2.87-1.35-5.74-4.39-7.09l-6.58-.84h-1a5.75,5.75,0,0,1-1.69.17c0,2.19-.17,4-.17,6.07,0,.34.17.51,0,.67-.17,2.54-.34,4.9-.51,7.43A57.6,57.6,0,0,0,544.56,44.7ZM566,107.81a54.87,54.87,0,0,0-.68-7.43c-.51-3-1-6.07-3-8.77-1.35-2-2.36-4.22-3.54-6.25a1.43,1.43,0,0,1-.51-1c-.16-1.52-1.18-2.36-2-3.2a21,21,0,0,0-6.41-3.88,25.24,25.24,0,0,1-3-1.35c-.51,1.35-.84,2.36-1.35,3.54a4.89,4.89,0,0,0,1-.68,36.47,36.47,0,0,1,.17,4.22c0,2.36-.34,4.56-.17,6.92,0,2.53.17,5.06.34,7.42.17,2.87.34,5.57.51,8.44,0,.17-.17.34-.17.68v1.85c.17,1.18.34,2.53.5,3.88,0,2.2.17,4.39,0,6.58a44.09,44.09,0,0,0,.51,6.58c0,.34.17.51.34.85,1-.17,2-.51,3-.68a45.36,45.36,0,0,0,9.28-3c.34-.34.85-.68,1-1.19a15.85,15.85,0,0,0,1.52-2.86A18,18,0,0,0,566,107.81ZM547.26,126.2c-.17-.17-.17-.17-.17-.34a7.71,7.71,0,0,1-1.18.68,2,2,0,0,1,.84.84A8.11,8.11,0,0,1,547.26,126.2Zm-.51-60.75a5.66,5.66,0,0,1-.51,1,7,7,0,0,0,.51.67Zm2.19,1.69a6.3,6.3,0,0,0-.67,1.52.59.59,0,0,0-.34.17l-.5-1a.59.59,0,0,1-.34.17,2.82,2.82,0,0,1,.17,1.18c.33,0,.5-.17.67-.17a2.83,2.83,0,0,1,.68.84c.17-.17.17-.17.33-.17,0-.84.17-1.68.17-2.53Zm2.37,2.36a.59.59,0,0,1-.34.17v1h.5C551.47,70.35,551.31,70,551.31,69.5Zm16,32.57a.51.51,0,0,0,.33-.17l-.5-1-.34.34C567,101.56,567.17,101.73,567.34,102.07Zm1.51,10.46a2.53,2.53,0,0,1-.33-1.18l-1.18,1.18a11.26,11.26,0,0,1,1.18.34Z"/><path d="M641.91,85.53c-.5,5.4-1.52,10.8-2.19,16.2a43.4,43.4,0,0,1-3.38,12.15c-1.18,2.87-2.19,5.74-3.37,8.44a9,9,0,0,1-3.88,4.72c-1,.68-1.69,1.69-2.7,2.36a10.38,10.38,0,0,1-5.74,2.87,19.88,19.88,0,0,1-7.08-.34,25.85,25.85,0,0,1-8.44-3.37c-1.35-1-2.87-1.86-3.71-3-1.52-1.85-2.7-4.22-4-6.24-.85-1.35-1.35-2.87-2.2-4.22a.17.17,0,0,0-.17-.17c-.84-2.87-1.85-5.73-2.69-8.6-.34-.68-.51-1.35-.85-2a20.59,20.59,0,0,1-1.85-5.73c-.17-.85-.85-1.69-1-2.53-.84-2.2-1.35-4.39-2-6.59a7.66,7.66,0,0,1-.51-1.18c.17-.17.34-.17.51-.33-.34-1.86-1.69-3.55-1-5.91a2.45,2.45,0,0,0-.34-.51,6,6,0,0,1,1-.33,4.22,4.22,0,0,1-1.18-.68c.17-2.87.17-5.9.34-9.11,0-1.18-1.35-2.53-.17-4-.17,0-.17-.17-.34-.34,0-.17,0-.17.17-.33l.17-.17a1.81,1.81,0,0,1,.84.17l-.67-.68a7.58,7.58,0,0,0,.17-.84c-.17-.17-.34-.17-.51-.34V63.6a1.27,1.27,0,0,0,.67.17v1a3.15,3.15,0,0,0,1.19-.34c-.34-.34-.34-.5-.68-.67.17-.17.34-.51.51-.68-.17-.84-.17-1.69,1.18-2v-.68h.17c.17-1,.17-1.85.33-2.87-.67-.16-1.34-.33-1.85-.5-.17.17-.17.34-.34.34.34.5.68.84,1,1.35a2.33,2.33,0,0,1-.84.16c-1.18-1-.51-2.19-.34-3.2a14.27,14.27,0,0,1,.51-3.88c.17-1,.67-2,.84-3,.34-.84.34-1.86.68-2.87.5-1.85,1-3.88,1.68-5.74.34-1,.85-1.85,1.19-2.86a37.83,37.83,0,0,1,2.53-4.56,33.9,33.9,0,0,1,3-3.88,10.48,10.48,0,0,1,2.7-2.7,8.81,8.81,0,0,1,4.73-1,11.37,11.37,0,0,0,3.37-.34c3-.34,6.08-.67,8.95,0a39.64,39.64,0,0,1,9.44,3.37,21.14,21.14,0,0,1,10.13,13c1.18,4.38,2.53,8.6,3.71,12.82.68,3.21,1.18,6.41,1.69,9.62.5,3.71.84,7.59,1,11.3A74,74,0,0,1,641.91,85.53Zm-56.86-22.1c.17-1.18.34-2,.51-2.87v.68c.16,0,.33.16.5.16a3.32,3.32,0,0,0,.17,1.19A7,7,0,0,0,585.05,63.43Zm1.69-2.7a10,10,0,0,1-1.18-.34,1.91,1.91,0,0,1,.16-.84h.85C586.57,59.89,586.74,60.22,586.74,60.73Zm-1.18-.17v0Zm2.36-4.72a8.55,8.55,0,0,0-1.35.84.17.17,0,0,0,.17.17c.17,0,.34-.17.5-.34.17,0,.34.17.68.34Zm43.36,18.39c0-1.69.17-3.38.17-5.23-.5-.51-.84-2.7-.5-4.56a29.64,29.64,0,0,1-.17-3.88V58.87c-.17-.67-.17-1.18-.34-1.85a21.85,21.85,0,0,0-1.69-7.43c-.67-1.51-1.35-2.86-1.85-4.21-.85-2.2-1.69-4.39-2.37-6.42-.17-.33-.33-.67-.5-1l.17-.17a33.84,33.84,0,0,0-2.87-3.88,10,10,0,0,0-7.26-4.55,1.27,1.27,0,0,0-.84.33,35.17,35.17,0,0,0-3.71,5.07,24,24,0,0,0-3.21,9.61c-.84,4.22-1.69,8.27-2.7,12.49a48.83,48.83,0,0,0-1.35,17.21,46.92,46.92,0,0,1,0,4.89c0,2.2-.17,4.39,0,6.58a86,86,0,0,0,1.86,9.11C605,98,606,101.56,607,105.11a20.39,20.39,0,0,0,3.37,7.59c1.69,2.36,3.54,4.55,5.23,6.92.51.67,1,1.18,1.86.5,0,.51.17.68.17,1.18.5,0,1,.17,1.18-.16a37.74,37.74,0,0,0,3.71-3.55,9.57,9.57,0,0,0,1.18-1.35.53.53,0,0,1,.34.17c.17-.84.33-1.69.5-2.87,2.2-1.68,2-4.89,3.38-7.42.17-.34.34-.84.5-1.18.34-1.35.85-2.53,1.35-4l.34-.34a40.8,40.8,0,0,1-.17-4.55V93.13c.17-1.86.17-3.55.17-5.4a16.18,16.18,0,0,0,0-2.87,12.4,12.4,0,0,1,.51-6.08,10.59,10.59,0,0,0,.67-2.19,11,11,0,0,0,.17-2.36Zm1.86-7.09c-.17-.84-.17-1.85-.34-2.7h-.17V65c-.34.84-.5,1.35-.84,2a2.28,2.28,0,0,1,.67.51C632.63,67.31,633,67.31,633.14,67.14Z"/><path d="M657.1,17.87a29.1,29.1,0,0,1,3,1.86,6.91,6.91,0,0,1,1.19,1.85c.33.34.33,1,.67,1.35a1.43,1.43,0,0,0,1.18.68A16.9,16.9,0,0,1,668.91,25a49.2,49.2,0,0,0,5.23,1.52c1.52.5,3.21.84,3.88,2.7l.51-.51c1.68.84,2,1.18,2.19,2.36a2.46,2.46,0,0,0,1-.17c-.17.34-.17.51-.33.85a6.72,6.72,0,0,1,1.51.84v-.17c.17.34.34.51.51.85a.17.17,0,0,0-.17.17c.34,0,.68.16,1.18.16a14.32,14.32,0,0,0,.85,1.35c.17,0,.33.17.5.17,0,.17,0,.17-.17.34l1.52,1c.17.17.51.34.68.68A67.3,67.3,0,0,1,693.54,45a104.52,104.52,0,0,1,5.4,9.62,15.85,15.85,0,0,0,1.52,2.86,9.75,9.75,0,0,1,.85,2.37,4.82,4.82,0,0,0,.33,1.51,10.32,10.32,0,0,1,.85,2c.5,1.69.84,3.37,1.18,5.06.17.68.33,1.52.5,2.36.17,0,.34-.16.51-.16.17,1.85.34,3.71.68,6.41.5,1.18.16,3.2.5,5.06a26.87,26.87,0,0,1,0,5.23c0,1.86-.5,3.71-.67,5.57-.34,1.18-.51,2.36-.85,3.54a6,6,0,0,0-.5,1.86c-.68,1.85-1.18,3.88-1.69,5.73-.68,1.86-1.18,3.55-1.86,5.4a26.69,26.69,0,0,1-1.68,3.88c-.51,1.19-1,2.37-1.52,3.38-1,1.69-2.2,3.21-3.21,4.89-.17.17-.34.34-.5.34-2.7,1-4.39,3.37-6.59,5.06a9.11,9.11,0,0,1-3,1c-1.86.34-3.72.51-5.4,1.69-1,.51-2.36.51-3.38,1.18-1.52.68-3,.17-4.72.34a9.87,9.87,0,0,1-2.19.34c-2.54.17-4.9.5-7.26.67-1.86,0-3.88-.34-5.74-.5-.5-.17-.84-.68-1.18-1a10.77,10.77,0,0,1-1.52-1.35c-.33-.33-.67-.67-.67-1-.17-2.87-.34-5.57-.34-8.27a43.8,43.8,0,0,1-.17-4.72v-3.54c0-2.37-.17-4.73-.17-7.26-.17-3.88-.17-7.93-.17-11.81V86.55c-.16-3-.16-6.08-.33-9.12,0-3.2-.34-6.41-.51-9.61a20.45,20.45,0,0,1,.34-3.21,16.18,16.18,0,0,1,0-2.87c0-4.22.17-8.43.34-12.65.16-3.38.5-6.58.67-10,.17-3.88.34-7.76.68-11.64,0-2.19.33-4.39.5-6.41.17-.51.51-1.18.85-1.18a2.91,2.91,0,0,0,2.19-2.37A4,4,0,0,1,657.1,17.87Zm-3.88,50.28V66.8A3.74,3.74,0,0,0,652,67c.33.51.5.85.84,1.35C653.05,68.15,653.05,68.15,653.22,68.15ZM661,114.39h-.51c.17.5.17,1,.34,1.68a6.06,6.06,0,0,1,.84-1C661.32,114.89,661.15,114.56,661,114.39Zm.84-42.52a14.54,14.54,0,0,0-.33,2.7c.16,1.85.5,3.54.5,5.4,0,3.37-.17,6.74-.17,10.12a42,42,0,0,0-.17,4.39,10.44,10.44,0,0,1-.16,4.55,6.82,6.82,0,0,0,0,1.86h.5v9.62c-.34-.17-.5-.17-.67-.34,0-.51.17-1,.17-1.35h-.34v1.85a1.29,1.29,0,0,1-.17.68c.34-.17.67-.17,1-.34v2.7a9,9,0,0,1-.67-1l-.51,1a7.08,7.08,0,0,1,1.18.85c0,2.36,0,4.72-.17,7.25,0,1.35,0,2.7,1.35,3.71-.17.17-.17.34-.34.68H665a9.76,9.76,0,0,1-.85-1.86,37.64,37.64,0,0,1,6.92-2.7,2.87,2.87,0,0,0,.85-.34,22.25,22.25,0,0,0,2.7-1.51c2.19-2,4.38-4.05,6.41-6.08a11.23,11.23,0,0,0,2.36-2.53,33.59,33.59,0,0,0,2.87-6.07,79.87,79.87,0,0,0,3.2-9A67.15,67.15,0,0,0,693,82a48.33,48.33,0,0,0,.5-10c-.5-3.2-.33-6.74-1.18-10a28.8,28.8,0,0,0-3.2-8.27,71.06,71.06,0,0,0-4.22-5.73c-.85-1-1.35-2-2.19-3-1-1.35-2.2-2.7-3.38-4-.51-.34-1.18-.68-1.35-1.18-.51-1.52-1.69-2-2.87-3-2.87-1.52-5.9-3.21-8.94-4.89a4.46,4.46,0,0,0-1.69,3.54,40.89,40.89,0,0,0-.17,4.56l-.5,7.42a32.53,32.53,0,0,1-.34,4.05c-.17,3.21-.51,6.24-.68,9.45-.16,2.19-.33,4.39-.5,6.58a1.52,1.52,0,0,0-.17.84c-.34.85-.51,1.69-.84,2.7a3.08,3.08,0,0,0,.33.85ZM668.74,125c.17-.34.51-.68.68-1-.17,0-.17,0-.34-.16-.17.16-.34.5-.68.67a3.3,3.3,0,0,1-1.18-.17c.17.51.17.85.34,1a1,1,0,0,0,.67.17c.17,0,.34-.33.34-.5Zm3-1a5.19,5.19,0,0,0-.68,1.35,5.29,5.29,0,0,0,1.35.34A11.92,11.92,0,0,0,671.78,124Zm2.7.17c.17.17.33.17.5.34.34-.34.34-.51.51-.67,0-.17-.17-.17-.34-.34v-1.18h-.5a6.3,6.3,0,0,1-.17-1.86,6.87,6.87,0,0,1-1.35,1,1.71,1.71,0,0,0,.17.51,4.18,4.18,0,0,0,1.18.34Zm5.23.17a2.14,2.14,0,0,0-1-.17c-.17-.5-.17-1-.34-1.52a2.35,2.35,0,0,1-.68.51,2.84,2.84,0,0,1-.84-.34c.34-.17.51-.33.51-.5a7.31,7.31,0,0,0-.34-1.69,20.91,20.91,0,0,0-.68,2.7l.51.51c0-.17.17-.34.17-.51.5.34.67.67,1,.84v.51a10,10,0,0,0,2,.34c.17-.68,1.36-1.18.68-2.2Zm2.87.34c-.17-.51-.17-1-.34-1.69a2,2,0,0,1-.68.68,5.82,5.82,0,0,0,.51,1.35C682.24,125,682.41,124.85,682.58,124.68ZM695.4,65.29c0-.17,0-.17-.17-.17l-.51.5c-.16-.5-.16-.84-.33-1.35-.51,1-.34,1.69.5,2Zm.68,8.26a8.69,8.69,0,0,0-.34,1.86c.17.17.17.17.34.17.33-.51.67-1,1-1.52l-.51-.51Zm.67-2a.62.62,0,0,1-.51-.17,1.6,1.6,0,0,0-.16.84h1.18c0-.84-.17-1.51-.17-2.36-.34.34-.51.34-.85.68Zm2.36,8.77c.17-.33.51-.67.68-1,0-.34.17-.51.17-.84a5.37,5.37,0,0,0-1-1.35c-.17.33-.33.67-.5,1,.33.34.5.67.67.84a10,10,0,0,1-.34,1.18C698.94,80.13,698.94,80.3,699.11,80.3Z"/><path d="M761.71,81.31c-.17,5.91,0,11.82,0,17.55V115.4c0,4.56,0,9.11-.17,13.67,0,2.19-.17,4.38-1.69,6.24a14.56,14.56,0,0,1-2.7.34c-.67-.85-1.18-1.69-1.68-2.2a10.38,10.38,0,0,0-2.37-1c-.16-1.52-.16-3-.33-4.39-.51-3.71-1.35-7.42-1.86-11-.17-2.2,0-4.22-.17-6.25-.5-3.71-.17-7.42-.84-11.13-.68-3.55-1.35-7.26-.68-11a16.15,16.15,0,0,0,0-2.87c0-.51.34-1,.34-1.69h-.34c-.33-1.85.85-3.71-.5-5.23-.34,0-.68.17-1,.17a2.23,2.23,0,0,1-.5.34c-2-.17-4.05-.34-5.74-.51l-.67.68c.17.17.33.17.5.34v.33a6.23,6.23,0,0,0-1.85.17,3,3,0,0,1-.68-.84c-.5.34-1,.5-1.52.84a6.68,6.68,0,0,0-1.18-.84,1.5,1.5,0,0,0,.17.84,3.69,3.69,0,0,1-1.35.17,2.74,2.74,0,0,0-.34-.84,3.5,3.5,0,0,1-.5.84c-.34-.34-.51-.67-.85-1-.5.17-1,.34-1.68.5A.65.65,0,0,1,731,80c-2,.16-2,.84-2.19,3.37,0,1.69-.17,3.54-.17,5.4,0,.17-.34.34-.34.34V90.6c0,1.35-.17,2.69-.17,4-.34,2.2-.67,4.39-.84,6.75-.17,1.86-.34,3.72-.34,5.57-.34,4.22-.67,8.61-1,13-.17,3.37-.34,6.91-.51,10.46a2.54,2.54,0,0,1-1.35,2.19c-1.18.51-1.85.17-2.87-1-.84-1.18-1.68-2.53-2.53-3.72a9.52,9.52,0,0,1-.84-2.36c-.17-1.35,0-2.53-.17-3.88-.17-1.18-.51-2.36-.84-3.71-.17-.84-.17-1.69-.34-2.53V103.92c0-.5-.17-1.18-.17-1.85h-.17c0-6.07-.17-12.15-.17-18.22h-.17c0-.51-.33-1.18-.16-1.52a4,4,0,0,0,.16-3.38,13,13,0,0,1,0-5.06c0-.51-.16-1-.16-1.52a14.45,14.45,0,0,0,1.35-1h-1.52c0-3.71,0-7.42-.17-11.47,0-1.86.17-3.88.17-5.91h.17c-.17-.17-.17-.51-.34-.67.17-.17.34-.34.5-.34-1.18-1.52-.33-3-.67-4.56a9,9,0,0,0,1-.67c-.5-.17-.67-.17-.84-.34a.62.62,0,0,1-.17-.51,2.45,2.45,0,0,1,.34-1.18c.17-.17.33-.33.5-.33-.33-.68-.67-1.19-1-1.86.34-.17.51-.17.68-.34-1.19-2.7-.85-5.74-1-8.6s.17-5.74.17-8.78c1.52-.34,1.18-1.68,1.35-2.7,0-1.52.85-2.36,1.35-3.54a17.43,17.43,0,0,1,.84-1.69,2.09,2.09,0,0,1,2.2.17c1.52.84,2.7,1.86,4.39,2.36a3.84,3.84,0,0,1,2.69,3.21,83.52,83.52,0,0,1,1.19,9.11c.17,2.53,0,4.89,0,7.42.17,3.72.33,7.43.33,11.14V70c0,1,.51,1.52,1.52,1.18a1.83,1.83,0,0,1,.17.84,18.37,18.37,0,0,0,3-.16c.51.33.67.5,1,.67l.51-.51a9.65,9.65,0,0,0-1.86-1c2.19-.33,4.22-.5,6.41-.84a2.42,2.42,0,0,0-.5.67c.33.34.5.85.84,1.18a2.56,2.56,0,0,1,1.18-.33l-.17-.17h-1c.17-.51.17-1,.34-1.18,2.36-.17,4.72-.51,7.25-.68a4.08,4.08,0,0,1-1.18.68h2.2c.16-1.52.16-3,.33-4.56,0-.5.17-1,.17-1.69,0-2.7.17-5.56.17-8.43l.51-10.13c.17-.16.17-.16.17-.5h.67v-.68h-.67c-.17-1-.17-2-.34-3.2a1.68,1.68,0,0,0,.67-.17,5.31,5.31,0,0,1-.5-1.52,32.53,32.53,0,0,1-.34-4c0-1.52.17-2.87.17-4.22V24.45c.67.17,1,.17,1.52.34a1.9,1.9,0,0,1,.16-1c-.5,0-.84.17-1.18.17,0,0,0-.17-.16-.17.33-.51.67-1,1-1.52l-.34-.34a11.09,11.09,0,0,1,1-2.7c.85.68,1.69,1,2.37,1.52a1.79,1.79,0,0,0,.84.17c1.52-.34,2.36.67,4,1.35,1,.17,1.52,1.52,2,2.7a41.67,41.67,0,0,1,.51,4.55c.17,3.21.34,6.25.34,9.28.17,2.37,0,4.9,0,7.26.17,2.53.33,5.23.33,7.93s-.33,5.23-.33,7.93C761.88,68.32,761.71,74.9,761.71,81.31ZM717.16,38.46c-.33-.17-.5-.34-.84-.51-.17.17-.34.17-.67.34.16.34.16.67.33,1A7.24,7.24,0,0,0,717.16,38.46Zm-1.18-11,1,1a2.55,2.55,0,0,0,1.34.34c0,.51-.16,1-.16,1.52.33-.17.67-.17,1-.34a1.3,1.3,0,0,0,.34-.67,3.53,3.53,0,0,0,1.35,1c1,.17,1.68.5,1.85,1.69a2.23,2.23,0,0,1-.84-.51,9.76,9.76,0,0,1-.68,1.18,3.81,3.81,0,0,1,1.18-.17c0,.17.17.34.34.51.68-.51,1.18-.85,1.86-1.35-.17-.17-.17-.51-.34-.68l-1,.51a3.26,3.26,0,0,0-.17-1.35c-.84-.17-1.69-.51-2.7-.68a2.14,2.14,0,0,1,.17-1,10.58,10.58,0,0,0-1.18.34c-.17-.34-.34-.51-.51-.84-.17,0-.51.16-.67.16l-.68-.67a6.7,6.7,0,0,1,.17-.84.17.17,0,0,0-.17-.17,2.64,2.64,0,0,1-.5.67A2.42,2.42,0,0,1,716,27.49Zm0,37.12c.34.84.51,1.35.85,2h.33a5,5,0,0,0-.5-1.86,15,15,0,0,1,1.35,1,3.63,3.63,0,0,0,.5-.84C717.67,64.78,716.83,64.78,716,64.61Zm.85-28.18h-.51a4.69,4.69,0,0,1-.17,1.35,4.17,4.17,0,0,0,1.18-.5A3.73,3.73,0,0,0,716.83,36.43Zm-.51,16.37c.51.17,1,.51,1.52.67H718a9.41,9.41,0,0,0-1.18-1.35A2.35,2.35,0,0,0,716.32,52.8Zm.34-3.88h.5a7.08,7.08,0,0,1,.85-1.18c-.17,0-.17-.17-.34-.17-.17.17-.34.34-.51.34s-.33-.17-.67-.34C716.49,48.08,716.66,48.58,716.66,48.92Zm.67,20.58a.59.59,0,0,0,.34-.17c-.17-.67-.51-1.18-.67-1.85a.53.53,0,0,1-.34.17A8.6,8.6,0,0,0,717.33,69.5Zm1.86-11.3-.17-.34c-.68-.34-1.35-.5-2.19-.84a23.09,23.09,0,0,1,2,2.19A1.41,1.41,0,0,0,719.19,58.2Zm-2-35.1c.34.17.68.51.85.51.17.67.5,1.35.67,2a2.79,2.79,0,0,0,1-.5,11.37,11.37,0,0,1-1.19-1.86c.34-.34.68-.5,1-.84h-1c-.17.17-.17.34-.33.5h-1Zm1,38.14h-1l1.52,2a.37.37,0,0,1,.34-.34A8.24,8.24,0,0,0,718.18,61.24Zm.33,31.89c-.17-.51-.33-1.18-.67-2-.17.34-.34.51-.34.68l.51,1.51A.63.63,0,0,0,718.51,93.13Zm.17-16.88a4,4,0,0,0-.34-1.35.61.61,0,0,0-.5.17,4,4,0,0,1,.34,1.35A.61.61,0,0,0,718.68,76.25ZM718,25.8c.33.85.5,1.35.67,1.86H719c0-.34.17-.85.17-1.35A8.63,8.63,0,0,0,718,25.8Zm.84,15.53a15.7,15.7,0,0,1,.68-2.2,2.85,2.85,0,0,1-1.35-.17A11.7,11.7,0,0,0,718.85,41.33Zm.68,8.26a.55.55,0,0,0,.33-.17,15.24,15.24,0,0,1-.5-1.85c-.17.51-.51.67-.51.84C719,48.75,719.36,49.26,719.53,49.59Zm-.68,18.23a2.45,2.45,0,0,1,1,.33,2.4,2.4,0,0,0-.33-1,4.1,4.1,0,0,1,1.51.68c.17-.17.51-.17.85-.34-.34-.51-.51-1-.85-1.52-.16.34-.5.68-.67,1a3.68,3.68,0,0,0-1-.17,10.07,10.07,0,0,1,1.18-.67c-.17-.17-.17-.34-.34-.51-.34.17-.67.17-1,.34A8.69,8.69,0,0,1,718.85,67.82ZM720.54,80a7.92,7.92,0,0,0-1-1.19.17.17,0,0,1-.17.17,6.14,6.14,0,0,0,.67,1.52Zm-1-58.22a12,12,0,0,1,1.51.85v.67c.34-.17.68-.17.85-.34-.34-.67-.68-1.35-1-2-.17.17-.34.17-.34.34A5.92,5.92,0,0,1,719.53,21.75Zm.67-2.19c.17.34.17.67.34,1,.34,0,.67-.17,1.35-.17a17.94,17.94,0,0,1-1-1.52Zm1.69,48.76h-1.35c0,.17,0,.17-.17.34l1.52,1Zm-.51-8.43a2.46,2.46,0,0,1,.17-1.18H721a2.87,2.87,0,0,0-.5,1.68c0,.17.5.51.67.68.17,0,.17-.17.34-.17A2.51,2.51,0,0,1,721.38,59.89Zm.34-11.14a3.24,3.24,0,0,0,1.35.67,1.3,1.3,0,0,0,.67-.16v-.17c-.5-.17-1-.51-1.51-.68a1.52,1.52,0,0,0-.17-.84c-.34,0-.85.17-1.18.17C721.21,48.24,721.38,48.58,721.72,48.75Zm.51-8.77a5.45,5.45,0,0,1,.16-1.69c-.33-.17-.5-.17-.67-.34C721,38.79,721.21,39.47,722.23,40Zm-.68-15.53v.17a3.66,3.66,0,0,0,1,.68l.68-.68C722.56,24.62,722.06,24.45,721.55,24.45Zm.17,25.82a12.38,12.38,0,0,0,.34,2,4.49,4.49,0,0,1,.67-.84,9.76,9.76,0,0,1-.67-1.35C721.89,50.1,721.72,50.1,721.72,50.27Zm1.69,17.21a1,1,0,0,1-.68-.17c-.17-.34-.5-.51-.5-.67h-.34v1.51A5.75,5.75,0,0,0,723.41,67.48Zm1.18-6.24-.17-.17c-.17,0-.34,0-.34.17-.34.5-.84.5-1.52.5-.5-.17-.84.34-.5,1,.17,0,.33.17.67.17.17-.17.17-.33.34-.5.17,0,.34.17.67.17C724.08,62.08,724.25,61.74,724.59,61.24Zm-2.53-.51c0,.17.17.34.5.84a12.67,12.67,0,0,0,.17-2.36c.51,0,.85-.17,1.52-.17-.34-.33-.51-.5-.67-.5a15.09,15.09,0,0,0-1.52.5Zm29.52-33.58v1.52c.51.17.85.34,1.36.51a1.38,1.38,0,0,0,.16-.51L752.26,27a9.43,9.43,0,0,1,.68-2C751.58,25.3,751.42,26,751.58,27.15Zm2.2,11.64a5.35,5.35,0,0,1-.84-1.35,8.29,8.29,0,0,1-1.19.51v1.18C752.43,39,752.94,39,753.78,38.79Zm.84,42.52c-.33,0-.67-.16-1.18-.16a11.26,11.26,0,0,0,.34-1.18c0-.17-.34-.51-.68-.85a5,5,0,0,1-.33,1.69c.17.17.17.5.33.67a4.68,4.68,0,0,0,1.52.17Zm-.33-39c.16-1.35-.17-1.86-1.35-1.69a7.81,7.81,0,0,0,.67,1.18v.68A1,1,0,0,0,754.29,42.34Zm0-15.69c-.51-.17-.68-.17-1.19-.34l.85.84a8.2,8.2,0,0,0-.17,2,2.48,2.48,0,0,0,1,.17,10.68,10.68,0,0,1,1.52-.68v-1a2.1,2.1,0,0,0-1,.17c0-.34,0-.51.17-.68h.5a.17.17,0,0,1-.17-.17,6.87,6.87,0,0,0,1.18-.67,32,32,0,0,0-3-2.19l-.17.16C754,25,754.12,25.8,754.29,26.65ZM755.47,31l.84-.84c-.17-.17-.17-.34-.34-.68a4.84,4.84,0,0,1-1.52.34v.68a2.34,2.34,0,0,0,.68.5l-1,.51a8.5,8.5,0,0,0,.67,1,3.69,3.69,0,0,0,1.35-.17A8.32,8.32,0,0,1,755.47,31Zm-1.35,13.16c.67-.33,1.18-.67,2-1-.51-.34-.84-.67-1-.67C754.79,43,754.62,43.52,754.12,44.19Zm3,8.27v-.34h-1a4.37,4.37,0,0,1,.34-1.18c-.51-.17-1-.33-1.69-.5a9,9,0,0,1,.68,1.18,3.63,3.63,0,0,0-.68.84,2.45,2.45,0,0,0,.51.34A10.94,10.94,0,0,1,757.15,52.46ZM759,26.65h-.84c-.17,0-.34-.17-.51-.34l-.51,1a8.2,8.2,0,0,0,1.18,1.18A8.14,8.14,0,0,0,759,26.65Z"/><path d="M783.31,132.27c0-.17,0-.17.16-.34-2-.5-4.05-1-5.9-1.51-2.53-.68-4.22-1.69-4.39-4.56-.17-2.36-.34-4.56-.5-6.92,0-1.18.33-2.36.33-3.71a7.66,7.66,0,0,0-.33-1.86V104.6c0-4-.17-8.1-.17-12.15,0-2,.17-4,.17-6.07V81.15c.16-2.37.33-4.73.33-6.92.17-2.36.17-4.9.17-7.26,0-2-.17-4.22-.34-6.41V52.63c.34-.17.51-.17.68-.34v-1a1.32,1.32,0,0,0-.51.17c-.17-7.59-.84-15.19-.17-22.61-.16-3.71-.33-7.26-.33-11.14a6.61,6.61,0,0,1,4.72.34c1.35.68,2.53,1.35,3.88,2a2.82,2.82,0,0,1,1.52,2.86v3a9.48,9.48,0,0,0,.17,2.19c0,.85.34,1.69.34,2.54.17,1.68.33,3.54.33,5.23s-.33,3.37-.33,4.89a46.81,46.81,0,0,0,.33,4.89c.34,2.2.68,4.56.85,6.75,0,1.18-.17,2.36-.17,3.55a16.51,16.51,0,0,0,.34,3c.67,1.86.33,3.71.5,5.57.17,1.35.51,2.7.68,3.88-.17.17-.17.17-.34.17a15.1,15.1,0,0,1,.51,2.7c.17,2.36.33,4.56.5,6.75v4.22c-.17,2,0,3.88,0,5.9v4c0,1.86-.17,3.55-.33,5.4v7.93a.54.54,0,0,0,.16.34,3.91,3.91,0,0,0-.16,1.35V113c0,2.53.16,5.06.16,7.59,0,1.18.17,2.53-.67,3.54a3.37,3.37,0,0,0-.34,2.2,7.47,7.47,0,0,0-.17,1.85c-.17,1.18-.33,2.53-.5,3.71C784.15,132.1,783.64,132.1,783.31,132.27Zm-9.45-53.15A1.27,1.27,0,0,0,774,80c0,.16.33.16.67.16a.16.16,0,0,1,.17-.16,3.56,3.56,0,0,0-.68-1C774.19,79.12,774,79.12,773.86,79.12Zm.17-5.06a12.17,12.17,0,0,0,1.35,1h.67a2.35,2.35,0,0,0,.68.51,19.53,19.53,0,0,0-.68-3,2.42,2.42,0,0,0-.34,1C775,73.72,774.7,73.89,774,74.06Zm1.85,27.67c-.17-.5-.34-1-.5-1.35a3.39,3.39,0,0,1-.68,1q.25,0,.51.51C775.54,101.9,775.71,101.73,775.88,101.73Zm-.34-46.4c.17.68.17,1.35.34,2.19a2.37,2.37,0,0,1,.85-.5,15.69,15.69,0,0,1-.85-1.69Zm1.86,48.93c0-.34.17-.5.17-.84-.17-.17-.34-.51-.68-.68a.51.51,0,0,0-.33.17c.17.51.5,1,.67,1.52A.17.17,0,0,1,777.4,104.26Zm.17-57.87c0,.5-.17.84-.17,1.35.34,0,.68-.17.68-.34.16-.34,0-.67,0-1Zm.17-6.41c0,.33-.17.67-.17,1a1.31,1.31,0,0,1,.51.34v.5a6.87,6.87,0,0,1,1.18-.67,1.27,1.27,0,0,0-.17-.85C778.58,40.14,778.24,40.14,777.74,40Zm.67,85c-.17.33-.33.84-.5,1.18h.67v1.18a6.7,6.7,0,0,0,.84-.17l.51,1c.17.17.51.34.68.51.17-.17.17-.34.5-.51-.17-.5-.33-1-.5-1.68a1.71,1.71,0,0,0,.17-.51c-.17-.17-.17-.34-.34-.51a7.72,7.72,0,0,1-1.18,1.18c0-.16-.17-.16-.17-.33.17-.17.17-.34.33-.51A4.21,4.21,0,0,0,778.41,125Z"/><path class="cls-6" d="M200.45,183.67a5.75,5.75,0,0,0-2.08-4.68c-1.38-1.15-3.92-2.25-7.6-3.28a26.71,26.71,0,0,1-8.07-3.39,8.22,8.22,0,0,1-.26-13.44,13.84,13.84,0,0,1,8.6-2.55,14.29,14.29,0,0,1,6.34,1.37,10.29,10.29,0,0,1,4.34,3.81,10,10,0,0,1,1.54,5.46h-3a7.49,7.49,0,0,0-2.49-5.88,9.73,9.73,0,0,0-6.7-2.22,10.53,10.53,0,0,0-6.51,1.83,5.69,5.69,0,0,0-2.42,4.76,5.36,5.36,0,0,0,2.18,4.43,19.92,19.92,0,0,0,7,3,32.57,32.57,0,0,1,7.26,2.72,10.2,10.2,0,0,1,3.72,3.36,8.4,8.4,0,0,1,1.24,4.62,8.06,8.06,0,0,1-3.36,6.75,14.29,14.29,0,0,1-8.86,2.54,17.48,17.48,0,0,1-6.91-1.34,10.5,10.5,0,0,1-4.77-3.77,9.66,9.66,0,0,1-1.63-5.55h3a7.11,7.11,0,0,0,2.81,5.94,11.93,11.93,0,0,0,7.49,2.18,11.1,11.1,0,0,0,6.67-1.83A5.75,5.75,0,0,0,200.45,183.67Z"/><path class="cls-6" d="M213,177.92v14.5h-3v-35.6h12.13c3.7,0,6.63.94,8.77,2.83a9.91,9.91,0,0,1,3.22,7.81,9.79,9.79,0,0,1-3.1,7.74q-3.09,2.72-9,2.72Zm0-2.54h9.12c2.92,0,5.15-.7,6.68-2.08a7.46,7.46,0,0,0,2.3-5.81,7.77,7.77,0,0,0-2.29-5.89,9.16,9.16,0,0,0-6.49-2.24H213Z"/><path class="cls-6" d="M244.47,192.42h-3v-35.6h3Z"/><path class="cls-6" d="M267.43,177.58H257.09v14.84h-3v-35.6h11.56q5.7,0,8.9,2.76a10.52,10.52,0,0,1,1.2,13.75,10.19,10.19,0,0,1-5.38,3.61l8.9,15.17v.31H276ZM257.09,175h9.22a8.56,8.56,0,0,0,6.09-2.16,8.14,8.14,0,0,0-.1-11.44,9.93,9.93,0,0,0-6.73-2.08h-8.48Z"/><path class="cls-6" d="M289.59,192.42h-3v-35.6h3Z"/><path class="cls-6" d="M322.7,159.36H310.5v33.06h-3V159.36H295.31v-2.54H322.7Z"/><path class="cls-6" d="M353,156.82v24.31a12.41,12.41,0,0,1-1.59,6.26,10.47,10.47,0,0,1-4.42,4.09,14.31,14.31,0,0,1-6.54,1.43,12.89,12.89,0,0,1-9-3.07,11.23,11.23,0,0,1-3.51-8.49V156.82h3v24.09a9.27,9.27,0,0,0,2.57,7,11,11,0,0,0,13.93,0,9.29,9.29,0,0,0,2.55-6.95V156.82Z"/><path class="cls-6" d="M380.05,182.42H363.88l-3.67,10h-3.15l13.48-35.6h2.86l13.47,35.6h-3.13Zm-15.24-2.54h14.28L372,160.49Z"/><path class="cls-6" d="M395.14,189.88h17.58v2.54H392.1v-35.6h3Z"/><path class="cls-6" d="M422.16,192.42h-3v-35.6h3Z"/><path class="cls-6" d="M455.27,159.36h-12.2v33.06h-3V159.36H427.88v-2.54h27.39Z"/><path class="cls-6" d="M471.85,176.23l10.88-19.41h3.48L473.34,179v13.4h-3V179l-12.83-22.2h3.57Z"/><path class="cls-6" d="M509,173a23,23,0,0,1-3.09-4.59,9.12,9.12,0,0,1-1-4,7.9,7.9,0,0,1,2.23-5.92,8.15,8.15,0,0,1,6-2.17,7.72,7.72,0,0,1,5.5,2,6.53,6.53,0,0,1,2.11,5c0,2.35-1.36,4.65-4.06,6.92l-3.92,3,9.79,11.4a15.19,15.19,0,0,0,2.22-8.15h2.72a16.66,16.66,0,0,1-3.13,10.25l4.86,5.67h-3.52l-3.08-3.57a14.39,14.39,0,0,1-4.46,3,13.67,13.67,0,0,1-5.35,1.07,11.88,11.88,0,0,1-8.07-2.6,8.81,8.81,0,0,1-3-7,8.72,8.72,0,0,1,1.53-4.9,23,23,0,0,1,5.37-5.2Zm3.81,17.43a10.35,10.35,0,0,0,4.32-.94,11.92,11.92,0,0,0,3.75-2.68l-10-11.54-.34-.37-1.13.86q-4.79,3.91-4.79,7.58a6.53,6.53,0,0,0,2.2,5.15A8.69,8.69,0,0,0,512.76,190.44Zm-4.94-26.11q0,3,3.31,7l3.2-2.45a11.67,11.67,0,0,0,2.57-2.47,5.11,5.11,0,0,0,1-3.15,4.26,4.26,0,0,0-1.32-3.19,4.83,4.83,0,0,0-3.52-1.29,5,5,0,0,0-3.82,1.54A5.66,5.66,0,0,0,507.82,164.33Z"/><path class="cls-6" d="M559.86,177.58H549.52v14.84h-3v-35.6h11.56q5.7,0,8.91,2.76a10.53,10.53,0,0,1,1.19,13.75,10.19,10.19,0,0,1-5.38,3.61l8.91,15.17v.31h-3.21ZM549.52,175h9.22a8.54,8.54,0,0,0,6.09-2.16,8.14,8.14,0,0,0-.1-11.44,9.93,9.93,0,0,0-6.73-2.08h-8.48Z"/><path class="cls-6" d="M598,175.35H581.36v14.53h19.15v2.54H578.35v-35.6h22v2.54h-19v13.45H598Z"/><path class="cls-6" d="M632.05,181.32q-.6,5.63-4,8.61t-9.08,3a12.58,12.58,0,0,1-7-2,12.92,12.92,0,0,1-4.71-5.61,20,20,0,0,1-1.69-8.3V172.4a20.18,20.18,0,0,1,1.67-8.42,12.82,12.82,0,0,1,4.78-5.66,13,13,0,0,1,7.18-2q5.72,0,9,3.08a12.85,12.85,0,0,1,3.85,8.53h-3q-1.12-9.06-9.85-9.07a9.36,9.36,0,0,0-7.72,3.62q-2.87,3.63-2.87,10v4.36q0,6.16,2.8,9.84a9,9,0,0,0,7.57,3.67q4.71,0,7.11-2.26a10.81,10.81,0,0,0,3-6.79Z"/><path class="cls-6" d="M665.68,176.55a20.65,20.65,0,0,1-1.7,8.64,13,13,0,0,1-4.85,5.72,13.38,13.38,0,0,1-7.29,2,12.64,12.64,0,0,1-10.08-4.46q-3.84-4.47-3.84-12v-3.67a20.41,20.41,0,0,1,1.73-8.62,12.82,12.82,0,0,1,12.14-7.79,13.29,13.29,0,0,1,7.25,2,13.06,13.06,0,0,1,4.86,5.6,20.19,20.19,0,0,1,1.78,8.39Zm-3-3.86q0-6.44-2.91-10.08a10.46,10.46,0,0,0-15.88,0q-3,3.65-3,10.21v3.71q0,6.34,2.94,10a10.46,10.46,0,0,0,15.94,0q2.87-3.66,2.86-10.18Z"/><path class="cls-6" d="M683.46,188l.19.76.23-.76,11.2-31.2h3.3l-13.26,35.6h-2.88L669,156.82h3.28Z"/><path class="cls-6" d="M723.27,175.35H706.62v14.53h19.15v2.54H703.61v-35.6h22v2.54h-19v13.45h16.65Z"/><path class="cls-6" d="M745.4,177.58H735.06v14.84h-3v-35.6h11.56q5.7,0,8.91,2.76a10.53,10.53,0,0,1,1.19,13.75,10.19,10.19,0,0,1-5.38,3.61l8.91,15.17v.31H754ZM735.06,175h9.22a8.54,8.54,0,0,0,6.09-2.16,8.14,8.14,0,0,0-.1-11.44,9.93,9.93,0,0,0-6.73-2.08h-8.48Z"/><path class="cls-6" d="M773.16,176.23,784,156.82h3.47L774.65,179v13.4h-3V179l-12.84-22.2h3.58Z"/></svg>