<svg id="Layer_1" data-name="Layer 1" xmlns="http://www.w3.org/2000/svg" xmlns:xlink="http://www.w3.org/1999/xlink" viewBox="0 0 800 200"><defs><style>.cls-1,.cls-15{fill:#01313c;}.cls-2{fill:#4a9ab7;}.cls-3{fill:#fff2e9;}.cls-10,.cls-4{fill:#fff;}.cls-5{fill:#606161;}.cls-18,.cls-6{fill:#ee6c22;}.cls-7{fill:#a4a4a4;}.cls-8{fill:#807f7f;}.cls-9{fill:#eaddd7;}.cls-10,.cls-11,.cls-12,.cls-13,.cls-14,.cls-15{fill-rule:evenodd;}.cls-11{opacity:0.53;fill:url(#linear-gradient);}.cls-12{fill:url(#linear-gradient-2);}.cls-13{fill:url(#linear-gradient-3);}.cls-14{fill:url(#linear-gradient-4);}.cls-16{font-size:168.73px;font-family:Leafy, Leafy;}.cls-17{letter-spacing:-0.13em;}.cls-18{font-size:50.08px;font-family:Roboto-Light, Roboto;}.cls-19{letter-spacing:-0.01em;}.cls-20{letter-spacing:-0.01em;}.cls-21{letter-spacing:-0.01em;}.cls-22{letter-spacing:0.01em;}.cls-23{letter-spacing:-0.01em;}.cls-24{letter-spacing:-0.02em;}</style><linearGradient id="linear-gradient" x1="103.47" y1="107.06" x2="104.93" y2="157.51" gradientUnits="userSpaceOnUse"><stop offset="0.08" stop-color="#fff"/><stop offset="1" stop-color="#fff" stop-opacity="0"/></linearGradient><linearGradient id="linear-gradient-2" x1="88.6" y1="62.83" x2="90.44" y2="126.28" xlink:href="#linear-gradient"/><linearGradient id="linear-gradient-3" x1="101.28" y1="75.39" x2="102.73" y2="125.18" xlink:href="#linear-gradient"/><linearGradient id="linear-gradient-4" x1="116.62" y1="75.17" x2="118.07" y2="124.98" xlink:href="#linear-gradient"/></defs><title>Full Logo</title><path class="cls-1" d="M71.26,42.28c.55-.06.63-.57.51-1h-.59c-.29,0-.57,0-.85,0C70.38,41.85,70.65,42.36,71.26,42.28Z"/><path class="cls-2" d="M90.55,42.13a1.65,1.65,0,0,0,1.32.17c.87-.23,1.65-.86,1.19-1.75h-.39a1,1,0,0,1-.06.55,1.26,1.26,0,0,1-.78.73,1.17,1.17,0,0,1-1.09-.13,1.28,1.28,0,0,1-.5-.9l-.23,0C90.09,41.33,90.09,41.84,90.55,42.13Z"/><path class="cls-3" d="M91.21,14.68l-.06,0,.07,0Z"/><path class="cls-4" d="M92.76,42.39l1.58-.08a3.18,3.18,0,0,0,.5-1.62h-.06a6.64,6.64,0,0,0-1.32-.13A1.67,1.67,0,0,1,92.76,42.39Z"/><path class="cls-4" d="M72.44,43.19l.81-.1c.27-.34.58-.65.84-1s.28-.41.44-.59a4.35,4.35,0,0,0-.52-.1A9.3,9.3,0,0,0,73,41.31,1.71,1.71,0,0,1,72.44,43.19Z"/><path class="cls-4" d="M89.53,42.44a.15.15,0,0,1,.06.09l.72-.06-.08-.06a1.77,1.77,0,0,1-.52-1.5c-.38.07-.76.16-1.14.25C88.57,41.7,89.13,42.17,89.53,42.44Z"/><path class="cls-1" d="M91,41.36a.77.77,0,0,0,.66,0,.79.79,0,0,0,.49-.47.55.55,0,0,0,0-.34h0c-.49,0-1,.09-1.48.16A1.07,1.07,0,0,0,91,41.36Z"/><path class="cls-5" d="M66.64,145l0,0a.26.26,0,0,1,0,.38l.32,5.27.48,8.06c.08,1.35.12,2.69.17,4l.15,3.55,62.15-7.52.5-4.69a.74.74,0,0,1,0-.33.32.32,0,0,1,0-.09h0v0l2-18.63.32-3,.16-1.51c0-.23,0-.44.06-.65l0-.14a4.47,4.47,0,0,0-1.06-2.26,1.19,1.19,0,0,0-.62-.26.58.58,0,0,1-.61,0,1.1,1.1,0,0,1-.48-.19.25.25,0,0,1-.12-.17l-1.08.08-12.09.84-24.19,1.68-3,.22-3,.16-6,.32-12.11.63h0a2.15,2.15,0,0,0-1.23.28,2.2,2.2,0,0,0-.86.95,3.65,3.65,0,0,0-.36,1.26,7.4,7.4,0,0,0,0,1.33l.51,8.06Z"/><path class="cls-6" d="M81.34,111.62c-2.91,3.9-6,7.7-9.16,11.36-1.67,1.91-3.36,3.79-5.09,5.64-.81.87-1.59,1.76-2.41,2.61a25.91,25.91,0,0,0-2.37,2.43l0,0a17.67,17.67,0,0,0,1.24,5.64,19.47,19.47,0,0,0,2.7,5.18l0-1.83L66,134.6a7.39,7.39,0,0,1,0-1.33,3.89,3.89,0,0,1,.33-1.3,2.27,2.27,0,0,1,2.19-1.37h0l12.08-1,6-.52,3-.26,3-.2,24.19-1.68,12.09-.84.8-.06a.34.34,0,0,1-.06-.15,26.1,26.1,0,0,1-.74-3.62c-.21-1.35-.66-2.69-1-4-.62-2.57-1.21-5.15-1.92-7.69-1.46-5.23-3.36-10.59-6.85-14.84A19.94,19.94,0,0,0,106.12,88a68.44,68.44,0,0,0-10.52-.12,85.6,85.6,0,0,1-6.25,11.83A142.71,142.71,0,0,1,81.34,111.62Zm28.19-1.06c.39-2.21.61-4.47,1.2-6.64.27-1,.82-3.65,2.08-3.91a.08.08,0,0,1,.1.08c0,.74-.7,1.56-.94,2.27a24,24,0,0,0-.74,2.92c-.41,2.18-.63,4.4-1.11,6.56-1.15,5.19-3.87,10.3-6.32,15a.08.08,0,0,1-.14-.06C105.07,121.17,108.52,116.28,109.53,110.56Zm-14.74,7.55a46.32,46.32,0,0,0,4-6.6c2.54-5.19,3.48-10.76,5.3-16.19a.28.28,0,0,1,.54.15,55.14,55.14,0,0,1-4.81,16A34.4,34.4,0,0,1,96,117.83a32.24,32.24,0,0,0-4.48,6.35.08.08,0,0,1-.14-.06A24.8,24.8,0,0,1,94.79,118.11Z"/><path class="cls-5" d="M68.3,171c2.29-.4,4.59-.77,6.89-1.15.32-.05.65-.11,1-.15l1-.11,2-.22,3.93-.46,15.75-1.8,15.74-1.81,7.87-.91c1.31-.15,2.62-.29,3.93-.46.66-.08,1.32-.11,2-.16l1.9-.13a2.72,2.72,0,0,0,.72-.83,2.38,2.38,0,0,0,.27-1.18,3.93,3.93,0,0,0-.26-1.25,5.6,5.6,0,0,0-.36-.74l-.21,0-62.22,7.54c.1.16.2.32.29.49A4.18,4.18,0,0,1,68.9,169a2.34,2.34,0,0,1-.24,1.5A2.09,2.09,0,0,1,68.3,171Z"/><path class="cls-4" d="M73.48,62.19c0,.45.27.81.31,1.23h0a12.9,12.9,0,0,0,1.82,1.34,23.42,23.42,0,0,0,6.09.37,12.33,12.33,0,0,0,5.49-1c.1-.1.19-.2.29-.29a12.4,12.4,0,0,0,.23-2.72l-.9,0c-1.88.1-3.77.18-5.65.17-2.58,0-5.13,0-7.68-.21C73.5,61.46,73.45,61.82,73.48,62.19Z"/><path class="cls-7" d="M52.28,156.81l1.38.89,2.79,1.76,10.44,6.59-.14-3.2c-.06-1.3-.13-2.6-.16-3.91a35.49,35.49,0,0,1-14-5.58,1,1,0,0,1-.92-.13H46.07l-.34-.13-.06,0q2.59,1.41,5.18,2.87C51.32,156.26,51.81,156.52,52.28,156.81Z"/><path class="cls-8" d="M44,156a4.15,4.15,0,0,0,.27.56l3,1.62,2.9,1.81L56,163.56l11.41,7.09a1.57,1.57,0,0,0,.52-.54,1.48,1.48,0,0,0,.14-.94,3.28,3.28,0,0,0-.36-1,6.56,6.56,0,0,0-.5-.79l-.23,0v-.24L56,160.2l-2.79-1.76-1.39-.87c-.46-.3-.91-.63-1.36-.94-1.63-1.15-3.26-2.31-4.87-3.48a2.74,2.74,0,0,0-1.47.85,2.1,2.1,0,0,0-.32.72,3.63,3.63,0,0,0,.08.73A.42.42,0,0,1,44,156Z"/><path class="cls-3" d="M53.24,152.57a35.42,35.42,0,0,0,13.32,5.33l-.18-7.15-.1-3.72a.7.7,0,0,1-.67.13,10.06,10.06,0,0,1-2-.86c-.22-.12-.44-.25-.65-.39-3.26-2.15-5.41-6.07-6.25-9.73-1.12-4.84-1.21-10.51.63-15.2a.53.53,0,0,1,.45-.32,7,7,0,0,1,1.51-2.26.24.24,0,0,1,.37.29,15.6,15.6,0,0,0-.8,1.58,7,7,0,0,0,.26,2.31c.08.37.18.74.28,1.1.33,1,.61,2,1,2.92.45,1.21.93,2.4,1.49,3.56.22.46.45.84.6,1.23a.12.12,0,0,1,0,.11h0a.84.84,0,0,1,0,.17.19.19,0,0,1,0,.07,2.16,2.16,0,0,1,0,.58c.39-.44.84-.83,1.26-1.28.79-.85,1.56-1.73,2.35-2.6,1.7-1.88,3.39-3.77,5-5.7,3.24-3.75,6.4-7.58,9.36-11.56s5.58-7.8,8.06-11.9c2.25-3.72,4.11-7.61,6.18-11.41-1,0-1.93,0-2.89-.06a10.36,10.36,0,0,1-.42,3.12.11.11,0,0,1-.21,0,10.65,10.65,0,0,1-.42-3.26.68.68,0,0,1,0-1.17c0-.66,0-1.33.06-2a45.59,45.59,0,0,1,.15-5.6,25.29,25.29,0,0,1-4.81,3.9c-1.65,1-4.09,2.33-6.17,1.88-3.11.17-6.09-1.45-8.55-3.27l-.71-.54c.24,1.61.33,3.28.47,4.88s.51,3.76,0,5.47a.27.27,0,0,1-.51,0c-.09-.45-.15-.91-.2-1.37l-.2,0a1.24,1.24,0,0,1-.39-.22h0a.89.89,0,0,1-.29.08c-12.92,1.37-26.63,10.05-29.19,23.6-1.29,6.83-.18,14,1.77,20.61a39.1,39.1,0,0,0,4,9.57,49.15,49.15,0,0,0,6.7,8.25A.91.91,0,0,1,53.24,152.57Z"/><path class="cls-3" d="M156.87,174.65c-.06-.15-.12-.29-.19-.44l-.06-.15a15.47,15.47,0,0,0-1-2c-.16-.28-.46-.6-.62-.94-7.26-2.29-15.29-2-22.8-1.73a137.31,137.31,0,0,0-26,3.26c-7.68,1.75-15.29,4-22.07,8.09q-1.78,1.08-3.45,2.28c.08.26,0,.59-.38.54l-.3,0a53.45,53.45,0,0,0-10.21,10q14.2-.1,28.41-.13,14.52,0,29,0c4.75,0,9.49-.16,14.24-.41q3.69-.21,7.38-.46a22.9,22.9,0,0,0,5.49-.73l.27-.26a9.45,9.45,0,0,0,2-2.73,15.93,15.93,0,0,0,1.59-6.06,21.64,21.64,0,0,0,0-2.9A22.76,22.76,0,0,0,156.87,174.65Z"/><path class="cls-3" d="M76.39,83.07a23.37,23.37,0,0,0,4.74.86,12,12,0,0,0,6-2.71,23.41,23.41,0,0,0,6.32-6.76c.35-.61.67-1.23,1-1.86a49,49,0,0,0,2-5.75C97.57,63,98.12,59,99.16,55.06c0,0,0-.05,0-.08a.22.22,0,0,1,.15-.27c.1-1,.19-2,.33-3a.18.18,0,0,1,.35,0,19.15,19.15,0,0,1,.11,3.21.41.41,0,0,1,0,.11v.13a1.81,1.81,0,0,0,.81.31,5.17,5.17,0,0,0,1-1.5,14.37,14.37,0,0,0,.24-1.62c.09-1,.13-2.09.22-3.13s.31-2.31.5-3.47c0-.71,0-1.42,0-2.14s-.09-1.38-.17-2.06a.29.29,0,0,0,0-.09.54.54,0,0,1-.37-.5.62.62,0,0,1,0-.13A9.47,9.47,0,0,1,101,44l0,0c0,.29,0,.58-.07.87a.2.2,0,1,1-.39,0q-.17-1.53-.3-3.09a5.82,5.82,0,0,1-.07-.73c-.17-2-.33-3.94-.43-5.9a59.27,59.27,0,0,0-.79-8.93,16.61,16.61,0,0,0-1.65-4.54c-.19-.24-.37-.49-.56-.74-.8-1.05-1.63-2.08-2.51-3.07l-.28-.29a41.34,41.34,0,0,0-5.63-4l-1-.27a3.27,3.27,0,0,0-1.41.43,4.43,4.43,0,0,0-1.34,2.54h0a8.6,8.6,0,0,0-.05,1,.29.29,0,0,1-.3.3h-.14a.31.31,0,0,1-.3-.23c-.63-1.95-1.48-4-.7-5.92a6,6,0,0,0-.58.26,7.19,7.19,0,0,0-1.71,1.29A4.12,4.12,0,0,0,79.4,16l0,.12a.45.45,0,0,1,0,.23.33.33,0,0,1-.05.22.16.16,0,0,1-.14.11.41.41,0,0,1-.16,0,.42.42,0,0,1-.56-.21,7.53,7.53,0,0,1-1-4.88,19.25,19.25,0,0,1-2.67.72c-1,.24-2.07.44-3.1.7-5.37,1.83-10.54,5-12.34,10.3-1.22,3.56-1.25,7.34-1.14,11.06.05,1.71.15,3.42.15,5.12,0,2.27.27,4.54.25,6.79a.22.22,0,0,1-.07.17s0,0,0,.08a.16.16,0,0,1-.29.13,6.74,6.74,0,0,1-.56-1.22c-.49-.17-.87-1-1.17-2a2,2,0,0,1-.38-.82A.45.45,0,0,1,56,42.4c-.45-1.16-2.28-1.75-3-.74a4.62,4.62,0,0,0-.23,1.18,7.79,7.79,0,0,0,0,1.08c0,.33.09.66.16,1,.24,1.19.47,2.38.68,3.57l0,.06a33.48,33.48,0,0,1,1,5.79c.13,1.36.46,4.15,1.93,4.8a6.85,6.85,0,0,0,1-.23c-.27-1.11-.5-2.23-.68-3.34a.19.19,0,0,1,.37-.1c2,6.23,3.77,12.39,7.64,17.79a31,31,0,0,0,6.84,7.07A18.31,18.31,0,0,0,76.39,83.07ZM57.74,54.87a.12.12,0,0,1-.16-.16c.71-1.35-.12-1.76-.87-2.66A3.32,3.32,0,0,1,56,50.52c-.28-1.51,1.31-2.5.81-4.06a.13.13,0,0,1,0-.14,4.49,4.49,0,0,0-.81-1,3.48,3.48,0,0,0-1.28-.79c-.73-.2-.69.3-.75.88a.09.09,0,0,1-.17,0,1.29,1.29,0,0,1,0-1.58c.36-.36,1.37.11,1.72.31a4.14,4.14,0,0,1,2.18,3.72c0,.15-.24.23-.31.09-.25,1.27-1.23,2.48,0,3.8C58.31,52.67,59.35,54.09,57.74,54.87ZM85.2,68.48a15.54,15.54,0,0,1-8.47.29.07.07,0,0,1,0-.14,31,31,0,0,0,4.2,0c1.4-.12,2.81-.49,4.21-.47A.17.17,0,0,1,85.2,68.48Zm2-27.15c2.55-1.23,7.08-2.53,9.42-.25,0,0,0,.13,0,.12a4.92,4.92,0,0,1-1.35-.4,2.47,2.47,0,0,1-.39,1.47c.38,0,.75-.08,1.13-.13a.1.1,0,0,1,.07.18,7.31,7.31,0,0,1-3.71.61,11.77,11.77,0,0,1-4-.26h0c.27,0,.54-.08.81-.1-.43-.29-.93-.85-.88-1.33l-1,.28C87.15,41.56,87.08,41.39,87.18,41.33ZM77.66,54.54a18.29,18.29,0,0,0,3.71.66,9.89,9.89,0,0,0,4-1.31,2.49,2.49,0,0,1,1-.11c1.32,0,1.5-.86,1-1.81a.12.12,0,0,1,.21-.12c.38.63,1.2,2.38-.22,2.63a5.89,5.89,0,0,1-1.39.06c-.8,0-1.09.46-1.69.76a6.05,6.05,0,0,1-2.42.75,13.15,13.15,0,0,1-5.51-1.14c-1.26-.49-.87-.93-.63-2,0-.12.2-.09.2,0s-.15,1,0,1.1A5.88,5.88,0,0,0,77.66,54.54ZM68.22,43.59a0,0,0,0,1,0-.09h.43a5.37,5.37,0,0,1-.76-.47,3.29,3.29,0,0,1-1-1.15q-.42.12-.84.27c-.08,0-.11-.08,0-.13a9.58,9.58,0,0,1,5.85-1.26.18.18,0,0,1,.16,0,19.6,19.6,0,0,1,2.84.42.15.15,0,0,1,.16,0c.43.1.85.21,1.24.32a.11.11,0,0,1,0,.21A4.07,4.07,0,0,1,75,41.6a7.71,7.71,0,0,1-.65.93A5.71,5.71,0,0,1,74,43c.54,0,1.09-.1,1.63-.12.07,0,.1.1,0,.14-1.2.7-2.72.47-4.07.58C70.46,43.7,69.23,44.14,68.22,43.59Zm3.12,17.25-.73-.11a4.71,4.71,0,0,1-.47.72.16.16,0,1,1-.25-.2,3.56,3.56,0,0,0,.45-.69,5.83,5.83,0,0,0,.28-.76.12.12,0,0,1,.23,0,1.58,1.58,0,0,1-.17.75l2.54.08a.15.15,0,0,1,.18,0c5.93.11,11.83-.17,17.75-.65a1.59,1.59,0,0,1,.08-1.08,0,0,0,0,1,.08,0,1.71,1.71,0,0,1,.2.71,3.44,3.44,0,0,0,.3,1c.13.27.67.75.19.94a.25.25,0,0,1-.27-.07,2,2,0,0,1-.49-1,5.75,5.75,0,0,1-1,.33,4.28,4.28,0,0,1-1,1.81,5.17,5.17,0,0,1-2.15,2.17c-1.33.86-3.58.89-4.89.91-1.9,0-4.22.34-6.06-.38a4.75,4.75,0,0,1-2.78-1.72,9.66,9.66,0,0,1-2-2.7S71.33,60.86,71.34,60.84Z"/><path class="cls-3" d="M78.62,183.19a42.72,42.72,0,0,1-7.39-3.25c-3.16-1.53-6.33-3.05-9.54-4.46A89.54,89.54,0,0,0,41.47,169c-9.4-1.66-21.18-3.21-28.35,4.34,0,.54,0,1.08,0,1.62a.56.56,0,0,1,0,.52c0,1-.13,1.89-.13,2.83a33.62,33.62,0,0,0,.46,6.72c.11.6.24,1.2.4,1.79a15.51,15.51,0,0,0,2.1,4,13.8,13.8,0,0,0,2.32,2.51c.43.36.91.68,1.35,1.05a13.82,13.82,0,0,1,3.34-.23c1.74,0,3.49,0,5.23-.05,4.14-.09,8.29-.15,12.43-.31,9.41-.37,18.84-.21,28.26-.28A38.87,38.87,0,0,1,78.62,183.19Z"/><path class="cls-6" d="M13.09,172.25h0c6-7.11,17.89-6,26.21-4.66a92.24,92.24,0,0,1,20.88,6.09c6.56,2.76,12.81,6.29,19.49,8.74,1.29-.92,2.62-1.78,3.94-2.57,6.87-4.13,14.49-6.5,22.28-8.27a138.55,138.55,0,0,1,26.3-3.31c7.42-.23,15.65-.69,22.83,1.7a10,10,0,0,0-2.68-3.88c-.46-.42-.93-.82-1.41-1.21-1.86-1.16-3.75-2.29-5.64-3.36a58.83,58.83,0,0,0-8.1-3.55,19.63,19.63,0,0,1-6-3l-.46,4.34,0,.35h-.08a5.28,5.28,0,0,1,.44.68,3.73,3.73,0,0,1,.43,1.28,2.81,2.81,0,0,1-.17,1.4,3.26,3.26,0,0,1-.83,1.15l-.06.05h-.1l-2,.32c-.66.1-1.31.23-2,.29-1.32.13-2.63.3-3.94.45l-7.87.9L98.9,168,83.15,169.8l-3.93.45-2,.23-1,.12-1,.07c-2.36.15-4.72.32-7.09.45a2.92,2.92,0,0,1-.62.44l-.22.12-.22-.14L55.5,164.31l-5.82-3.62-2.91-1.81-2.82-2-.06,0,0,0a5,5,0,0,1-.22-.56h-.16c-.75-.15-1.51-.26-2.28-.34A10,10,0,0,0,40,156a62.83,62.83,0,0,0-7.09.94A49.57,49.57,0,0,0,22,160.42l-.21.1c-4.55,2.59-8.46,6.31-9.15,11.47A.31.31,0,0,1,13.09,172.25Z"/><path class="cls-4" d="M69.43,41.39a15.62,15.62,0,0,0-2.25.41c.38.29.72.62,1.12.88a2.84,2.84,0,0,0,.86.41,1,1,0,0,1,.45.19.15.15,0,0,1,0,.19l.69,0A1.56,1.56,0,0,1,69.43,41.39Z"/><path class="cls-2" d="M72.44,41.28h-.17a1.18,1.18,0,0,1-.09.92,1.13,1.13,0,0,1-1.85.14,1.21,1.21,0,0,1-.24-1l-.47,0c0,1,.49,1.83,1.61,1.77A1.26,1.26,0,0,0,72.44,41.28Z"/><path class="cls-9" d="M69.91,81.61c0,1,1.38,1.59,2.11,2.07a21.52,21.52,0,0,0,3.89,2.18,15.51,15.51,0,0,0,7,.92A12.23,12.23,0,0,0,88.77,85c1.37-.9,3.3-3.18,2.34-4.91a.79.79,0,0,0-1.23-.16c-.52.6-.55,1.36-.92,2a4.51,4.51,0,0,1-1.71,1.62A11.71,11.71,0,0,1,82,84.89a12.88,12.88,0,0,1-6.24-1.1A29.45,29.45,0,0,1,72.49,82c-.71-.43-1.56-1.16-2.39-.71a.37.37,0,0,0-.19.33Z"/><path class="cls-9" d="M75.36,84.52a14.27,14.27,0,0,0,9.54,1,10.51,10.51,0,0,0,4.16-2.23c1-.81,2.73-2.64,2.18-4a.65.65,0,0,0-.77-.44c-1.16.34-1.68,2-2.5,2.81a8.26,8.26,0,0,1-3.57,2,18.71,18.71,0,0,1-8.71,0c-.44-.09-.8.58-.33.78Z"/><path class="cls-9" d="M90.36,80.75a3.6,3.6,0,0,0,.51-.59,3.2,3.2,0,0,0,.61-.89c.18-.49-.4-.77-.78-.6a1.83,1.83,0,0,0-.74.79,2.16,2.16,0,0,0-.36,1c0,.42.49.54.76.31Z"/><path class="cls-9" d="M70.64,81.68c1.13,3.54,6.19,5.46,9.41,6.44a18.12,18.12,0,0,0,6.21.76c1.47-.08,4.36-.46,5.07-2a.82.82,0,0,0-.7-1.22,6.28,6.28,0,0,0-2,.76,9.56,9.56,0,0,1-2.41.54,16.63,16.63,0,0,1-5.74-.59A21.38,21.38,0,0,1,75,84.15c-1.41-.82-2.64-1.9-4-2.76a.26.26,0,0,0-.37.29Z"/><path class="cls-9" d="M82.5,87.22a7,7,0,0,0,7.22-.56c2.18-1.78,2.15-4.76,1.47-7.27-.31-1.14-1.8-.77-1.93.26-.24,2.1.08,5.44-2.73,5.69L87,87.13c1.15-.78,2.24-1.63,3.33-2.49l-1.52-1.17a3.49,3.49,0,0,1-2.68,1.47l.93,1.23A1.39,1.39,0,0,0,86.91,85a.69.69,0,0,0-.76-.31,1.31,1.31,0,0,0-.85.74,1,1,0,0,0,.84,1.46,5.63,5.63,0,0,0,4.35-2.44c.7-1-.73-1.79-1.52-1.17-1,.77-1.92,1.51-2.93,2.2-.71.49-.54,1.89.49,1.79,4.17-.38,4.18-4,4.66-7.35H89.3c.43,1.77.65,3.82-.75,5.22s-3.9.91-5.74,1c-.58,0-.87.86-.31,1.14Z"/><path class="cls-9" d="M61.59,130.21a31.09,31.09,0,0,0,5-4.07q2.67-2.36,5.22-4.85a61.41,61.41,0,0,0,8.7-10.14c1.27-1.94,2.41-3.9,3.85-5.73,1.31-1.64,2.66-3.24,3.88-5,2.68-3.76,4.47-8.28,6.11-12.57.35-.91-1.17-1.55-1.56-.66-1.79,4-3.38,8.2-5.85,11.89-1.26,1.89-2.79,3.6-4.2,5.38a61.33,61.33,0,0,0-3.55,5.26A59.66,59.66,0,0,1,70.55,120q-2.53,2.49-5.15,4.93a42.52,42.52,0,0,0-4.6,4.5c-.37.49.33,1.05.79.79Z"/><path class="cls-9" d="M94.11,87.24A18.5,18.5,0,0,0,91.85,90,8.26,8.26,0,0,0,90,93.41c-.06.37.32.83.71.55a9.64,9.64,0,0,0,2.06-2.43A19.28,19.28,0,0,0,95.08,88a.62.62,0,0,0-1-.74Z"/><path class="cls-9" d="M61.64,129.52c0,.58.34,1.26.28,1.76a.75.75,0,0,0,1.13.64c2.08-1.49,3.25-4,4.84-5.91s4.36-3.45,5.11-6a.37.37,0,0,0-.54-.41,21.79,21.79,0,0,0-5.84,5.12A33.38,33.38,0,0,0,64.3,128c-.4.59-.81,1.16-1.26,1.71l-.6.71c.33-.39.2-.4.07-1s-.84-.36-.87.12Z"/><path class="cls-9" d="M63.12,130.15a35.7,35.7,0,0,1,5.69-5.08c1.92-1.49,4.79-3.35,5.5-5.83a.31.31,0,0,0-.46-.35A23,23,0,0,0,71,121.18c-1.11.92-2.24,1.82-3.37,2.71-2,1.58-4.34,3.16-5.6,5.42-.37.67.57,1.46,1.09.84Z"/><path class="cls-9" d="M63.42,130.19a14.34,14.34,0,0,0,3.74-3.08c1.38-1.42,2.71-2.85,4.18-4.19,2.44-2.24,5.83-5,6.69-8.38a.31.31,0,0,0-.52-.3A42.11,42.11,0,0,0,74.2,118c-1.22,1.38-2.57,2.63-3.9,3.9a99.25,99.25,0,0,0-7.27,7.8.32.32,0,0,0,.39.51Z"/><path class="cls-9" d="M72.26,120.93a22.07,22.07,0,0,0,5.85-7.34.22.22,0,0,0-.38-.22,37,37,0,0,1-5.88,7.14c-.29.25.13.66.41.42Z"/><path class="cls-9" d="M92,87.35c-1.43,2-1.91,5-2.21,7.36,0,.45.56.49.77.21,1.45-2,1.68-4.81,2.61-7.08.29-.72-.78-1-1.17-.49Z"/><path class="cls-9" d="M92.42,87.87c-.2,1.53-1,2.95-1.07,4.49a.26.26,0,0,0,.48.13,9.15,9.15,0,0,0,1.32-4.62.37.37,0,0,0-.73,0Z"/><path class="cls-9" d="M65.8,89.86c-3.26.14-6.61,1.77-9.44,3.3a34.23,34.23,0,0,0-8.19,6.32c-4.92,5.11-7.31,11.43-8.08,18.4A41.41,41.41,0,0,0,43,138.58,30.48,30.48,0,0,0,57.81,154a32.73,32.73,0,0,0,8.09,2.74c1.35.27,1.94-1.76.58-2.08-7.64-1.76-14.62-5.77-19.06-12.36-4-5.89-5.58-13.14-5.63-20.17,0-7.19,1.66-14.15,6.27-19.8a31.56,31.56,0,0,1,8.14-7,33.45,33.45,0,0,1,4.68-2.33c1.68-.67,3.45-1.06,5.12-1.73.73-.3.71-1.51-.2-1.47Z"/><path class="cls-9" d="M41.38,109.41c-3,3.36-2.31,9.22-1.79,13.28A76.09,76.09,0,0,0,42.71,137a33,33,0,0,0,8,13.21,25.38,25.38,0,0,0,6.47,4.48c2.7,1.33,5.74,2.74,8.82,2.28,1.09-.16.72-1.72-.24-1.8-10.78-.92-18.25-9.85-21.46-19.53a78.8,78.8,0,0,1-2.86-12.81c-.68-4.4-.83-8.74.76-13a.52.52,0,0,0-.86-.5Z"/><path class="cls-9" d="M42,110.87c.48-1.39.84-2.77,1.45-4.12A23.09,23.09,0,0,0,45,103.19a.27.27,0,0,0-.46-.26c-1.92,1.6-3.68,5.29-3.41,7.82a.48.48,0,0,0,.93.12Z"/><path class="cls-9" d="M58.69,94.18c2.42-.71,4.65-2.05,7-2.84a9.8,9.8,0,0,1,3.67-.61c.73,0,1.71,0,1.46-1a.87.87,0,0,0-.62-.62,11.19,11.19,0,0,0-6.12,1,21.51,21.51,0,0,0-5.89,3.31c-.37.3,0,.89.45.77Z"/><path class="cls-9" d="M42.41,131.37a48,48,0,0,0,2.93,9.29,24.76,24.76,0,0,0,5.4,7.5,22,22,0,0,0,8,4.75,35.9,35.9,0,0,0,4.68,1.26c1.25.24,3.07.27,3.53-1.16a.83.83,0,0,0-.79-1c-.59,0-1.09.25-1.69.26a7.28,7.28,0,0,1-2-.43c-1.44-.41-2.88-.73-4.29-1.26A19.69,19.69,0,0,1,51.32,146c-3.92-3.9-6.67-9.57-8.28-14.81a.33.33,0,0,0-.63.18Z"/><path class="cls-9" d="M65.13,152.46a7.35,7.35,0,0,0,.45,4.79c.41.67,1.54.23,1.29-.54a27.9,27.9,0,0,1-.79-4.25.5.5,0,0,0-1,0Z"/><path class="cls-9" d="M65.79,154c0,.24,0,.48,0,.72a.92.92,0,0,0,.16.69.34.34,0,0,0,.46,0,.92.92,0,0,0,.16-.69c0-.24,0-.48,0-.72a.4.4,0,0,0-.8,0Z"/><path class="cls-9" d="M59.5,118.35c-1.75,1-.67,5-.21,6.48.56,1.73,2.09,5.6,4.33,5.63a.87.87,0,0,0,.74-1.29c-.39-.74-1.26-1.23-1.76-1.92a12.26,12.26,0,0,1-1.51-2.92,17.59,17.59,0,0,1-.81-3c-.15-.86.18-1.87-.08-2.66a.49.49,0,0,0-.7-.29Z"/><path class="cls-9" d="M91,86.75c-.89,1.19-.7,3-1,4.39-.44,2-1.51,3.83-1.29,5.92,0,.17.25.26.34.09A21.53,21.53,0,0,0,91.5,86.89a.28.28,0,0,0-.52-.14Z"/><path class="cls-9" d="M53.38,44.59a4.23,4.23,0,0,0,1.09,1.51,7.2,7.2,0,0,0,1.62,1.45c.71.41,1.58-.63.9-1.16-.52-.42-1-.83-1.52-1.29A3.93,3.93,0,0,0,54,44a.51.51,0,0,0-.63.63Z"/><path class="cls-9" d="M54.11,44.46c0,1.29.37,11.41,3.45,9.43a.75.75,0,0,0,.15-1.16c-.46-.52-.84-.46-1.1-1.22a14.55,14.55,0,0,1-.47-2.93c-.15-1.26-.19-3.74-1.51-4.43a.35.35,0,0,0-.52.31Z"/><path class="cls-9" d="M56.68,46.36l-.11,0a.49.49,0,0,0-.5.14,3.23,3.23,0,0,0-.61,1.67c-.07.56-.11,1.4.36,1.8a.3.3,0,0,0,.41,0c.52-.44.42-1.37.48-2,0-.32.52-1.46,0-1.59Z"/><path class="cls-9" d="M55.94,52.47a2.13,2.13,0,0,0,.49,1.47,1.84,1.84,0,0,0,1.27.76c.38,0,.71-.55.35-.84s-.64-.26-.91-.51a3.2,3.2,0,0,1-.68-1c-.13-.26-.51-.12-.52.14Z"/><path class="cls-9" d="M75.35,54c.94,2.27,4.09,2.8,6.25,2.75,2.35,0,6-.81,7.19-3.08a.36.36,0,0,0-.4-.52c-2.09.54-3.83,1.74-6,2a9.59,9.59,0,0,1-3.46-.21A15.12,15.12,0,0,1,76,53.47c-.3-.15-.8.1-.64.49Z"/><path class="cls-9" d="M75.63,68.59c1.1,1.43,2.84,1.73,4.56,1.74s4-.16,5.14-1.45a.24.24,0,0,0-.17-.42,22.89,22.89,0,0,0-4.17.59,9.47,9.47,0,0,1-5.13-.69c-.14-.07-.35.09-.23.23Z"/><path class="cls-9" d="M13.44,179.29a10.24,10.24,0,0,1,3.2-7.42,10.32,10.32,0,0,1,7.68-3.26c2.79-.05,5.59.51,8.37.69a55.64,55.64,0,0,1,9.68,1.56A81.56,81.56,0,0,1,60,177.68,64.36,64.36,0,0,1,67.43,182a52.28,52.28,0,0,0,7.61,4.7c1.24.57,2.31-1.27,1.07-1.82A55.87,55.87,0,0,1,68,179.92a70.67,70.67,0,0,0-9-4.86,79.14,79.14,0,0,0-19.33-6.54c-3.17-.61-6.36-.77-9.56-1.08s-6.21-.76-9.29,0c-4.65,1.14-9.82,7-8.69,12a.64.64,0,0,0,1.25-.17Z"/><path class="cls-9" d="M54,174.15c4.12.89,7.41,3.94,11.16,5.71a53.69,53.69,0,0,0,6,2.29c2,.67,4.29,1.7,6.43,1.89,1,.09,1.23-1.3.48-1.76-1.83-1.1-4.34-1.45-6.38-2.08a48.4,48.4,0,0,1-7-2.68c-3.4-1.67-6.67-4.84-10.74-4.24-.44.06-.41.78,0,.87Z"/><path class="cls-9" d="M63.44,177.92a39.14,39.14,0,0,1,5.91,2.75c1.83,1.06,3.6,2.23,5.5,3.16,0-.44-.11-.89-.17-1.33-.33.41-.57,1-1,1.31a.87.87,0,0,0,.88,1.51,23.36,23.36,0,0,0,2.35-1.17L75.7,183c-.3.58-.59,1.17-.89,1.76a.89.89,0,0,0,1,1.29l.23-.08-.62-1.5a2.56,2.56,0,0,0-.47.66.73.73,0,0,0,.82,1.06,2,2,0,0,0,.89-.47.89.89,0,0,0-.62-1.51,2.13,2.13,0,0,0-.7.14l1,1.3.87-1.76c.38-.75-.4-1.7-1.2-1.21a20.5,20.5,0,0,1-2.34,1.18l.88,1.51A7.25,7.25,0,0,0,76,183.53a.84.84,0,0,0-.31-1.16c-3.77-1.74-7.79-5.41-12.16-5.25a.41.41,0,0,0-.11.8Z"/><path class="cls-9" d="M71.39,182.88a10.65,10.65,0,0,0,2.28,2c.76.5,2.13,1.26,3,.61a.41.41,0,0,0,.08-.64,12.5,12.5,0,0,0-2.39-1.13,16.35,16.35,0,0,1-2.22-1.59.52.52,0,0,0-.74.74Z"/><path class="cls-9" d="M28.61,168.47c-1.41-1.48-3.92-1.47-5.8-1.18a10.72,10.72,0,0,0-5.57,3,16.67,16.67,0,0,0-4.81,11.9,1,1,0,0,0,1.89.25c1.19-4.12,2.08-8.76,6-11.19,5.12-3.19,11.41-1.15,16.93-2.5a.37.37,0,0,0,0-.7,31,31,0,0,0-9.56-.59,18.52,18.52,0,0,0-8.62,2.38c-4.17,2.61-5.26,7.73-6.61,12.09l1.89.26a15.74,15.74,0,0,1,4-10.24A9.7,9.7,0,0,1,23,169.23c1.84-.5,3.64.1,5.47-.15.29,0,.33-.44.16-.61Z"/><path class="cls-9" d="M77,187.07c2.71-4.62,8.8-7,13.62-8.63a133.34,133.34,0,0,1,16.53-3.82,153,153,0,0,1,20.08-2.91c7.21-.42,14.91-.13,21.64,2.74a15.71,15.71,0,0,1,5.09,3.41c1.67,1.69,2.23,3.79,3,5.94.11.3.6.46.76.1,1.43-3.09-1-6.39-3.21-8.39a21.73,21.73,0,0,0-8.68-4.3c-7-2-14.57-1.9-21.77-1.24a187,187,0,0,0-18.8,3.12,110.81,110.81,0,0,0-16.85,4.24c-4.89,1.78-10.14,4.31-12,9.5-.13.35.41.55.59.24Z"/><path class="cls-9" d="M121.42,171.08c4.94-2,10.58-.17,15.67.07,2.93.14,5.88.19,8.81.45a40.55,40.55,0,0,1,4.78.73,35.63,35.63,0,0,0,4.39,1.09c.94.08,1.1-1.2.44-1.64a12.51,12.51,0,0,0-4.29-1.4,39.35,39.35,0,0,0-4.31-.66c-3.26-.34-6.55-.32-9.82-.4-5.21-.13-11.28-2-15.91,1.19-.27.19-.11.7.24.57Z"/><path class="cls-9" d="M148,172.77a10.82,10.82,0,0,1,5.91,2.3c1,.78,2.21,2.76,3.58,2.53a.37.37,0,0,0,.26-.27c.16-.9-.46-1.31-1.08-1.91a25,25,0,0,0-2.5-2.1,8.28,8.28,0,0,0-6.31-1.58c-.63.12-.41,1,.14,1Z"/><path class="cls-9" d="M153.1,172.16c-.13-.15-.19,0-.2.46l-.65.17c-.46-.16-.09,0,.09.11s.36.24.53.36a10.93,10.93,0,0,1,1,.71,9.47,9.47,0,0,1,1.62,2.4c.43.73.62,1.74,1.51,2a.57.57,0,0,0,.64-.26c.49-.88-.22-1.82-.66-2.6a9.76,9.76,0,0,0-2-2.78c-.67-.52-2-1.62-2.85-1.15a.67.67,0,0,0-.34.58c0,.45.31.51.58.77a.54.54,0,0,0,.76-.76Z"/><path class="cls-9" d="M155.83,171.91a4.56,4.56,0,0,0-.59-.2.81.81,0,0,0-1,.76,2.94,2.94,0,0,0,.59,1.56,7.54,7.54,0,0,1,.56,3c.11,1.24.14,3.81,1.49,4.42a.5.5,0,0,0,.74-.42,7.42,7.42,0,0,0-.28-1.55,24.44,24.44,0,0,1-.33-2.84c-.07-.77-.14-1.53-.26-2.29-.06-.43-1-1.57-.93-1.77l-.5.5.17.07c.81.25,1.13-1,.35-1.26Z"/><path class="cls-9" d="M155.36,172.89c-.19,0-.29-.65-.26-.15a1.76,1.76,0,0,0,.06.39c.11.37.22.73.31,1.11.28,1.24.58,2.48.84,3.73s.49,2.49.74,3.73a3.64,3.64,0,0,0,1,2.39.46.46,0,0,0,.63-.17c.45-.85,0-2.06-.14-2.93-.3-1.47-.6-2.93-.92-4.39-.24-1-.69-4.72-2.36-4.4a.35.35,0,0,0,.09.69Z"/><path class="cls-9" d="M156.4,174.71a32.74,32.74,0,0,1,.86,4.39,15.41,15.41,0,0,0,.42,3.79.33.33,0,0,0,.64,0c.48-1.32.15-2.93,0-4.3a18.42,18.42,0,0,0-1-4.12.45.45,0,0,0-.86.24Z"/><path class="cls-9" d="M140.19,169.91a14.33,14.33,0,0,1,7.27.05c1.13.23,2.25.55,3.37.86a5.66,5.66,0,0,0,2.54.5.26.26,0,0,0,.16-.38,4.56,4.56,0,0,0-2.39-1.24,27,27,0,0,0-4.17-1c-2.21-.39-5.06-.7-7,.66-.28.2-.12.7.24.58Z"/><path class="cls-9" d="M149.49,171.13c2,.09,3.79,1.17,5.77,1.46.38.06.66-.44.28-.65a12.77,12.77,0,0,0-6-1.51.35.35,0,0,0,0,.7Z"/><path class="cls-9" d="M69.42,192.9c-.41-.06-.57-.07-.86.2l.54.53a18.76,18.76,0,0,1,2.85-2c1.17-.87,2.35-1.74,3.51-2.62,2.31-1.74,4.65-3.45,7-5.08a100.06,100.06,0,0,1,14.89-8c.25-.12.06-.44-.17-.41-5.57.83-10.52,3.63-15.15,6.7-2.42,1.6-4.73,3.35-7,5.11s-4.56,3.38-6.62,5.3a.59.59,0,0,0,0,.82l.14.15a.38.38,0,0,0,.65-.26l.25-.13c.21,0,.13-.32,0-.34Z"/><path class="cls-10" d="M98.6,133.13c-.09.14-.3.16-.5.2C98.19,133.18,98.41,133.17,98.6,133.13Z"/><path class="cls-10" d="M101.38,133.77c.43-.18.39.13,0,0Z"/><path class="cls-10" d="M96.52,133.82a3.88,3.88,0,0,1-1,.55C95.71,134.08,96.16,134,96.52,133.82Z"/><path class="cls-10" d="M103.52,133.87c.09-.15.23.06.39,0C103.84,134,103.61,133.88,103.52,133.87Z"/><path class="cls-10" d="M100.54,133.87a3.9,3.9,0,0,1-.8.2C99.89,133.89,100.24,133.91,100.54,133.87Z"/><path class="cls-10" d="M95.82,134.32c.15.13-.23.16-.25.3C95.42,134.47,95.77,134.42,95.82,134.32Z"/><path class="cls-10" d="M94.93,134.72a.33.33,0,0,1,.29-.2C95.15,134.61,95.11,134.74,94.93,134.72Z"/><path class="cls-10" d="M95.37,134.52c-.07.34-.61.41-.94.59C94.58,134.64,95.15,134.9,95.37,134.52Z"/><path class="cls-10" d="M97.41,135.16a.48.48,0,0,1-.4.2A.73.73,0,0,1,97.41,135.16Z"/><path class="cls-10" d="M94.13,135.36c-.16.16-.33.3-.49.45C93.57,135.62,93.93,135.44,94.13,135.36Z"/><path class="cls-10" d="M94.28,135.41c-.08.18-.28.25-.4.4C93.8,135.65,94.13,135.5,94.28,135.41Z"/><path class="cls-10" d="M109.77,135.86c.15-.08.43.14.5.3A3.48,3.48,0,0,1,109.77,135.86Z"/><path class="cls-10" d="M110.32,136a1.89,1.89,0,0,1,.79.69A2.91,2.91,0,0,1,110.32,136Z"/><path class="cls-10" d="M92.64,136.9c-.35.22-.36.8-.69,1-.09-.11.15-.31.25-.39-.2-.05-.36.37-.5.54a1.81,1.81,0,0,1,.65-.94c0-.05-.07,0-.1-.05s.21-.32.44-.35c0,.06,0,.1,0,.1a.4.4,0,0,1-.25.3C92.52,137.05,92.6,137,92.64,136.9Z"/><path class="cls-10" d="M94.83,136.9c.14.1-.34.42-.5.55C94.42,137.19,94.66,137.08,94.83,136.9Z"/><path class="cls-10" d="M110.42,137.15c-.17,0-.15-.15-.25-.2C110.24,136.83,110.55,137.05,110.42,137.15Z"/><path class="cls-10" d="M109.32,137.75c.18,0,.21.05.3.09S109.29,137.88,109.32,137.75Z"/><path class="cls-10" d="M91.55,138.14c.1.2-.2.48-.35.75a5.46,5.46,0,0,1-.44.84A5.49,5.49,0,0,1,91.55,138.14Z"/><path class="cls-10" d="M90.26,141.07a2,2,0,0,1,.5-1.29C90.51,140.24,90.52,140.65,90.26,141.07Z"/><path class="cls-10" d="M111,141.37a1.39,1.39,0,0,1-.3-.5C111,140.89,110.93,141.18,111,141.37Z"/><path class="cls-10" d="M89.66,141.82c.11,0,.06.34,0,.39S89.73,142,89.66,141.82Z"/><path class="cls-10" d="M89.37,144.05v-.3c.09-.62.15,0,0,.3Z"/><path class="cls-10" d="M111.46,143.85c.16,0,.08.29.1.45C111.36,144.32,111.5,144,111.46,143.85Z"/><path class="cls-10" d="M89.37,144.35a.76.76,0,0,1,0,.59Z"/><path class="cls-10" d="M89.37,145.59c.18-.07.12.5,0,.3Z"/><path class="cls-10" d="M90,146.83c.19.27.17.76.3,1.09C90,147.9,90,147.21,90,146.83Z"/><path class="cls-10" d="M89.66,147.48c.13.15.13.43.2.64A.82.82,0,0,1,89.66,147.48Z"/><path class="cls-10" d="M113.69,149.56c.22,0,0,.36-.1.35C113.56,149.73,113.65,149.67,113.69,149.56Z"/><path class="cls-10" d="M95.87,152.79a1.31,1.31,0,0,1,.5.25C96.18,153.17,95.94,152.94,95.87,152.79Z"/><path class="cls-10" d="M98.9,154.38c.12-.11.5,0,.45.2C99.12,154.58,99.06,154.43,98.9,154.38Z"/><path class="cls-10" d="M109.23,155.22a1.62,1.62,0,0,1-.8.5C108.56,155.41,108.9,155.33,109.23,155.22Z"/><path class="cls-10" d="M98.55,133a5.47,5.47,0,0,1-1.14.4A3.27,3.27,0,0,1,98.55,133Z"/><path class="cls-10" d="M93.29,136.35c-.17,0-.19.26-.35.1a.5.5,0,0,1,.35-.34c0,.13-.1.1-.1.2s.09,0,.1,0a20,20,0,0,1,3.08-2.08.6.6,0,0,1-.4.25c.47.15.67-.39,1.09-.45.15.07-.08.18-.2.15.26.12.47-.23.8-.2,0,.11.17.18,0,.2a15,15,0,0,1,3.57-.74,12.78,12.78,0,0,1-1.64.29c-.24.08-.84.5-1.34.35,0,.07.13,0,.2,0s-.31.21-.4.1c-.41.37-1.44.53-1.88,1,.14.12.28-.17.49-.15-.15.26-.6.22-.74.5.14,0,.37-.26.6-.3a11.3,11.3,0,0,1-1.39,1c.13-.36.45-.36.64-.59-.4.05-.55.35-.84.5.18.22,0,.42-.3.49-.15,0,.05-.1,0-.2-.18.25-.63.44-.5.85-.1.2-.33.26-.49.39,0,.08.06,0,.14,0a1,1,0,0,1-.24.4c.27-.28.47-.45.69-.69.13.14-.14.32-.3.34-.32.77-1.1,1.48-1.44,2.39-.13-.18.17-.37.15-.6a8.34,8.34,0,0,0-.44.9c.07.14.1-.16.15-.2A11.87,11.87,0,0,0,91.4,144a1.33,1.33,0,0,1-.05-.79c-.06,0-.2,0-.15-.3-.06.49,0,1.3,0,1.79,0,.06.1.05.1,0a18.77,18.77,0,0,0,.8,3.72.14.14,0,0,1-.1-.15c-.15.09.11.18,0,.35,0,0,0-.12.15-.1a10,10,0,0,0,3,4.07c.17,0-.21-.17,0-.2a6.93,6.93,0,0,0,2,1.29c.12,0-.11-.15-.2-.15.18-.15.37.09.35.3.35.15.8.3.89.55.06-.32.46.2.75.29a19.09,19.09,0,0,0,2.48.3,8.1,8.1,0,0,0,1.49-.05s0-.1.1-.1c.74.09,1.23-.31,1.69-.34a10.68,10.68,0,0,0,7.05-9.59,3.9,3.9,0,0,0-.1-1.68c0,.21-.17.13-.15.44a25.52,25.52,0,0,0-.85-3.67,2.43,2.43,0,0,0,.15.55c-.21.18-.09-.41-.29-.4s0,.06,0,.15-.13-.11-.15-.2c-.17,0,0,.09-.05.25-.23-.11-.17-.5-.4-.6-.07-.14.14-.25,0-.3,0-.15.11,0,.2,0-.11-.08-.29-.36-.1-.44,0-.24-.31-.16-.3-.4.27.09.07-.05,0-.2.14,0,.1.1.2.1,0-.18-.23-.2-.25-.4.28-.18.35.2.5.3.14-.25-.34-.68-.6-.84.14-.15.28.12.4.15.07-.21-.36-.3-.45-.5.14-.12.31.15.45.2s0-.09,0-.1.26.13.3.3a.18.18,0,0,0-.15,0,1.26,1.26,0,0,0,.35.34c.17-.39-.41-.45-.4-.84.11,0,.12.17.2.25s.09-.14.25-.1a5.35,5.35,0,0,0-.8-.7c.07-.11.27.06.35.1-.08-.27-.49-.2-.5-.54a4.35,4.35,0,0,1,1,.74c.1,0,0-.19-.09-.2.44.12.88.67,1.24,1.05-.33-.36,0-.32.24,0,.15.19.16.6.5.59a4.22,4.22,0,0,1,.7,1.29c-.18-.22-.47-.33-.55-.64,0,.37.5.69.69,1,.09,0,0-.24,0-.35.49.35.6,1.08.79,1.74.06-.32-.19-.77-.25-1.14a12.12,12.12,0,0,1,.85,4.56c-.05,0,0-.06-.05-.09a7.9,7.9,0,0,0-.1,1.68c-.06,0,0-.1-.1-.1a18.93,18.93,0,0,1-2.09,5.47c.5-.38.63-1.13,1-1.59a1.25,1.25,0,0,1-.44.89,11.4,11.4,0,0,1-3.48,4c-.15-.17-.3.08-.34-.1a13.24,13.24,0,0,1-8,2.14c0,.06.13,0,.2,0,0,.22-1.76-.12-.55,0-.83-.18-1.64-.37-2.43-.6,0,.09.17,0,.2.1-.73,0-1.3-.59-1.94-.84-.13,0,.11.12.15.15a6.54,6.54,0,0,1-2.53-1.54c.21,0,.5.29.7.44,0-.11-.16-.24-.2-.39-.55,0-.85-.59-1.34-.8a1.34,1.34,0,0,0-.35-.79c.08.22-.43-.15-.2,0a1.64,1.64,0,0,1-.69-.85c0-.1-.32-.36-.4-.59a.89.89,0,0,0-.25-.45c0,.19.3.43.3.75-.75-.68-.6-1.77-1.09-2.78-.2.18,0,.44,0,.69a3.54,3.54,0,0,1-.5-1c.08,0,.08,0,.15,0-.29-.91-.19-2-.5-3.13-.13.19,0,.85-.25.79,0,.16.09.18.05.35-.15-.09-.13-.55,0-.59a11,11,0,0,1,0-3.13c.14.08-.07.22,0,.4.4-.75.13-1.52.4-2.14.11.09-.08.28,0,.45a9.49,9.49,0,0,1,1.69-3.18.13.13,0,0,1,0-.2c-.16-.06,0,.16-.2.1C92.11,137.81,92.73,137,93.29,136.35ZM95.82,135c.31-.19.61-.14.74-.44-.21,0-.35.27-.54.15C96,134.83,95.71,134.88,95.82,135Zm-.94.4c.08,0,.19-.22.34-.1,0-.37.6-.32.55-.54C95.46,134.89,95,135.14,94.88,135.36Zm.59.25c.06-.11.48-.33.35-.3S95.36,135.48,95.47,135.61Zm-.94.15c.14,0,.13.07.25.05s.23-.22.1-.3C94.84,135.67,94.63,135.66,94.53,135.76Zm.55.3c.08-.12.48-.39.39-.35S95,136,95.08,136.06Zm-.75.59c.08-.14.44-.25.35-.39C94.64,136.43,94.24,136.51,94.33,136.65Zm16.48.6c.09,0,.13-.06,0-.05a6.12,6.12,0,0,1-.39-.5c-.09,0-.13-.07-.15,0A3.51,3.51,0,0,1,110.81,137.25Zm1.44,1.14c.18,0-.14-.37-.24-.45C112,138.16,112.22,138.19,112.25,138.39Zm-20.75.79c.1-.09,0-.09.15,0a.37.37,0,0,1,0-.29c-.11,0-.19,0-.2.1C91.66,139,91.36,139.33,91.5,139.18Zm-.35.25a.23.23,0,0,0,.1.2s.06-.08.1-.1,0,.1.05.1a.3.3,0,0,1,0-.15s-.1,0-.1,0,.06,0,.05-.05A.37.37,0,0,0,91.15,139.43Zm-.15.7c0-.06.08-.06.15,0,0-.19.15-.15.15-.3C91.1,139.76,91,140.05,91,140.13Zm.75.15c-.06.4-.37.82-.35,1.14.14-.09.12-.51.3-.4-.07-.4.17-.59.2-.79C91.87,140.33,91.82,140.33,91.75,140.28Zm-1.09.54s0-.09,0-.1.05.12.15.1c0-.18.12-.27.14-.44-.13,0-.1.08-.19,0C90.81,140.54,90.53,140.69,90.66,140.82Zm-.2.9c-.1,0,.11-.31,0-.35C90.38,141.49,90.32,141.84,90.46,141.72Zm-.4,1.78a4.73,4.73,0,0,0,.15-1C90.18,142.78,89.86,143.27,90.06,143.5Zm1.09-.64s0-.1,0-.1,0,.1,0,.1.06-.26,0-.25S91,142.8,91.15,142.86Zm-1.39,1.44a2.84,2.84,0,0,0,0-.85A1.18,1.18,0,0,0,89.76,144.3Zm.6,3a1.27,1.27,0,0,0-.1-.65A1.27,1.27,0,0,0,90.36,147.28Zm21.74,4.81c.18.09-.31.38-.14.3s.28-.28.44-.4A1.14,1.14,0,0,1,112.1,152.09Zm-18.41,1.44s-.1,0-.1.05.12,0,.24,0,.16.15,0,.25c.21,0,.23.27.45.3a1.16,1.16,0,0,0-.74-.7S93.66,153.49,93.69,153.53Z"/><path class="cls-10" d="M98.65,133.72c-.1.25-.51.19-.74.3A2,2,0,0,1,98.65,133.72Z"/><path class="cls-10" d="M97.41,134.67c0,.14.11.06.15.2-.25,0-.32.17-.55.19,0,0,0-.05,0-.1-.18,0-.27.13-.45.15C96.81,134.9,97.16,134.83,97.41,134.67Z"/><path class="cls-10" d="M99.15,134.12s-.14.08-.05.1c-.23.11-.66.37-.85.2a1.29,1.29,0,0,1-.64.35A3,3,0,0,1,99.15,134.12Z"/><path class="cls-11" d="M78.62,133l51.11-3-1.65,27.32S101.35,137.35,78.62,133Z"/><path class="cls-12" d="M78.62,125.61S94.78,93.73,98.38,92.36s4.28,7.11.27,12.41-10.94,22.08-10.94,22.08Z"/><path class="cls-13" d="M94.93,125.61s10.56-25.81,13.35-27,2.48,4.33-6.9,27Z"/><path class="cls-14" d="M109.82,125.61s3.54-26.57,7.27-27.14,9.23,25.75,9.23,25.75Z"/><path class="cls-1" d="M158.31,173.28c-.12-.28-.24-.59-.37-.88,0,0,0,0,0,0,.74-1.76-.44-4.51-1.53-5.87-1.86-2.33-4.8-3.52-7.3-5a46.93,46.93,0,0,0-8.69-4.25l-1.13-.39c-2.05-.94-4.14-1.79-6.24-2.53l-.81-.42c.94-2.82.64-5.86,1-8.77.44-3.52,1.18-7,1.52-10.54.22-2.24.13-9.3-3.36-8.8a.48.48,0,0,0,0-.17,81.36,81.36,0,0,0-3.29-16.15c-1.54-5.53-3.72-10.84-7.38-15.33a21.47,21.47,0,0,0-13.29-7.92,54.56,54.56,0,0,0-14.72,0,27.4,27.4,0,0,0,0-7,40.9,40.9,0,0,0,5-11.48A57.89,57.89,0,0,0,99.9,57.67a.65.65,0,0,0,.31,0c4-1.34,3.9-7.13,4-10.51a28.57,28.57,0,0,0-.27-5.23,7.06,7.06,0,0,0-.51-1.31,8.11,8.11,0,0,0,.2-1.48,1.84,1.84,0,0,0,.74,0,.31.31,0,0,0,.22-.29c0-.12.07-.23.06-.36s-.3-.31-.39-.11l-.1.17a4.21,4.21,0,0,1-.51-.12c0-1.52-.3-3.06-.44-4.55-.21-2.09-.39-4.17-.67-6.26A30.72,30.72,0,0,0,98.81,16a18.78,18.78,0,0,0-9.1-7.8A27,27,0,0,0,83.57,6.7c-1.38-.2-2.88-.51-4.35-.65-1.5-.57-3-1.14-4.52-1.63-2.77-.9-7.07-1.75-9.27.75-.12.14-.06.45.17.42h.09c1.09.39,2.24.6,3.33,1l.39.16.43.2a20.56,20.56,0,0,0-2.19.3c-2,.37-5,1.41-5.83,3.52a.15.15,0,0,0,0,.09l-.11.05a.2.2,0,0,0-.08.27l-.09.11c0,.06,0,.14.1.12l.36-.1c1.21.13,2.42,0,3.64.19l.14,0a15.2,15.2,0,0,1-1.36,1.07c-1.3.87-2.63,1.7-4,2.53A13.53,13.53,0,0,0,56.8,18a16.71,16.71,0,0,0-3.42,5.2C52.05,26.4,52.2,30,52.77,33.29c.32,1.85.67,5.46,2.51,6.7a.43.43,0,0,1,0,.11,2.62,2.62,0,0,0-1.59-.71,2.23,2.23,0,0,0-1.87,1.28c-1.23,2.09-.58,5.14,0,7.3A37.4,37.4,0,0,1,53,53a24.9,24.9,0,0,0,.69,4.62c.34,1.13,2,3.3,3.38,3.32a56.82,56.82,0,0,0,2,5.63,32.65,32.65,0,0,0,3,6.27,51.41,51.41,0,0,0,4.19,5.77,22.12,22.12,0,0,0,2.63,3c0,1.33.39,2.72.4,4a16.14,16.14,0,0,0,.06,2.65C56,89.2,42.47,98.69,39.18,112c-1.39,5.64-1,11.61.12,17.32a42.83,42.83,0,0,0,5.79,16.28,25.22,25.22,0,0,0,3.08,4c.48.58,1,1.14,1.5,1.7a10.8,10.8,0,0,0-4.93.5,3.59,3.59,0,0,0-2.23,2.45c-1.59-.49-3.47-.14-5.07,0a42.81,42.81,0,0,0-8.25,1.44A46,46,0,0,0,18,160.25a16.41,16.41,0,0,0-7.41,8.25,10.09,10.09,0,0,0-.47,4.9,3.88,3.88,0,0,0,.77,1.83,25.86,25.86,0,0,0,.87,11.69,17.77,17.77,0,0,0,3.12,5.73c.83,1,2.41,2.95,4,3.25L19,196a.37.37,0,0,0,.3.13c3.13,0,6.25,0,9.38-.13l2.29,0c4.73-.06,9.46-.15,14.2-.22,9.24-.12,18.49.08,27.73,0,1.39.1,2.77.2,4.15.28,9.72.56,19.46.57,29.19.22,3.41-.12,6.82-.3,10.23-.51q7.68,0,15.36-.16c4.17-.08,8.33-.29,12.49-.54,2.09-.12,4.18-.26,6.26-.4a16.68,16.68,0,0,0,3.17-.24,5.49,5.49,0,0,0,1.7-1.27.63.63,0,0,0,.2-.26,12,12,0,0,0,2.57-3.23,16.25,16.25,0,0,0,1.8-6.09,17.89,17.89,0,0,0-.33-6.84A23.32,23.32,0,0,0,158.31,173.28ZM106.12,88a19.94,19.94,0,0,1,13.07,7.7c3.49,4.25,5.39,9.61,6.85,14.84.71,2.54,1.3,5.12,1.92,7.69.31,1.32.76,2.66,1,4a26.1,26.1,0,0,0,.74,3.62.34.34,0,0,0,.06.15l-.8.06-12.09.84-24.19,1.68-3,.2-3,.26-6,.52-12.08,1h0A2.27,2.27,0,0,0,66.31,132a3.89,3.89,0,0,0-.33,1.3,7.39,7.39,0,0,0,0,1.33,7.4,7.4,0,0,1,0-1.33,3.65,3.65,0,0,1,.36-1.26,2.2,2.2,0,0,1,.86-.95,2.15,2.15,0,0,1,1.23-.28h0l12.11-.63,6-.32,3-.16,3-.22,24.19-1.68,12.09-.84,1.08-.08a.25.25,0,0,0,.12.17,1.1,1.1,0,0,0,.48.19.58.58,0,0,0,.61,0,1.19,1.19,0,0,1,.62.26,4.47,4.47,0,0,1,1.06,2.26l0,.14c0,.21,0,.42-.06.65l-.16,1.51-.32,3-2,18.63v0h0a.32.32,0,0,0,0,.09.74.74,0,0,0,0,.33l-.5,4.69-62.15,7.52-.15-3.55c0-1.35-.09-2.69-.17-4L67,150.72l-.32-5.27a.26.26,0,0,0,0-.38l0,0-.14-2.37L66,134.6l.18,8.08,0,1.83a19.47,19.47,0,0,1-2.7-5.18,17.67,17.67,0,0,1-1.24-5.64l0,0a25.91,25.91,0,0,1,2.37-2.43c.82-.85,1.6-1.74,2.41-2.61,1.73-1.85,3.42-3.73,5.09-5.64,3.2-3.66,6.25-7.46,9.16-11.36a142.71,142.71,0,0,0,8-11.93A85.6,85.6,0,0,0,95.6,87.86,68.44,68.44,0,0,1,106.12,88ZM68.9,169a4.18,4.18,0,0,0-.45-1.33c-.09-.17-.19-.33-.29-.49l62.22-7.54.21,0a5.6,5.6,0,0,1,.36.74,3.93,3.93,0,0,1,.26,1.25,2.38,2.38,0,0,1-.27,1.18,2.72,2.72,0,0,1-.72.83l-1.9.13c-.66.05-1.32.08-2,.16-1.31.17-2.62.31-3.93.46l-7.87.91L98.8,167.12l-15.75,1.8-3.93.46-2,.22-1,.11c-.33,0-.66.1-1,.15-2.3.38-4.6.75-6.89,1.15a2.09,2.09,0,0,0,.36-.47A2.34,2.34,0,0,0,68.9,169Zm-8-30a20.38,20.38,0,0,0,1.84,4.48,12.68,12.68,0,0,1-1.49-1.53,16.2,16.2,0,0,1-3-6.6,32.34,32.34,0,0,1-.38-11.27c.27,1,.6,2,.91,3s.75,2,1.18,3a10.32,10.32,0,0,0,1.09,2.21,4,4,0,0,0-.75,2.14A11.7,11.7,0,0,0,60.9,139ZM91.21,14.68h0l-.07,0ZM64.92,73.24c-3.87-5.4-5.64-11.56-7.64-17.79a.19.19,0,0,0-.37.1c.18,1.11.41,2.23.68,3.34a6.85,6.85,0,0,1-1,.23c-1.47-.65-1.8-3.44-1.93-4.8a33.48,33.48,0,0,0-1-5.79l0-.06c-.21-1.19-.44-2.38-.68-3.57-.07-.32-.12-.65-.16-1a7.79,7.79,0,0,1,0-1.08A4.62,4.62,0,0,1,53,41.66c.7-1,2.53-.42,3,.74a.45.45,0,0,0,.15.18,2,2,0,0,0,.38.82c.3,1,.68,1.85,1.17,2a6.74,6.74,0,0,0,.56,1.22.16.16,0,0,0,.29-.13s0,0,0-.08a.22.22,0,0,0,.07-.17c0-2.25-.24-4.52-.25-6.79,0-1.7-.1-3.41-.15-5.12-.11-3.72-.08-7.5,1.14-11.06,1.8-5.29,7-8.47,12.34-10.3,1-.26,2.08-.46,3.1-.7a19.25,19.25,0,0,0,2.67-.72,7.53,7.53,0,0,0,1,4.88.42.42,0,0,0,.56.21.41.41,0,0,0,.16,0,.16.16,0,0,0,.14-.11.33.33,0,0,0,.05-.22.45.45,0,0,0,0-.23l0-.12a4.12,4.12,0,0,1,1.25-2.87,7.19,7.19,0,0,1,1.71-1.29,6,6,0,0,1,.58-.26c-.78,1.93.07,4,.7,5.92a.31.31,0,0,0,.3.23h.14a.29.29,0,0,0,.3-.3,8.6,8.6,0,0,1,.05-1h0a4.43,4.43,0,0,1,1.34-2.54,3.27,3.27,0,0,1,1.41-.43l1,.27a41.34,41.34,0,0,1,5.63,4l.28.29c.88,1,1.71,2,2.51,3.07.19.25.37.5.56.74a16.61,16.61,0,0,1,1.65,4.54,59.27,59.27,0,0,1,.79,8.93c.1,2,.26,3.93.43,5.9a5.82,5.82,0,0,0,.07.73q.14,1.56.3,3.09a.19.19,0,1,0,.39,0c0-.29.06-.58.07-.87l0,0a9.47,9.47,0,0,0,1.23-3.21.62.62,0,0,0,0,.13.54.54,0,0,0,.37.5.29.29,0,0,1,0,.09c.08.68.14,1.37.17,2.06s0,1.43,0,2.14c-.19,1.16-.39,2.31-.5,3.47s-.13,2.09-.22,3.13a14.37,14.37,0,0,1-.24,1.62,5.17,5.17,0,0,1-1,1.5,1.81,1.81,0,0,1-.81-.31V55a.41.41,0,0,0,0-.11,19.15,19.15,0,0,0-.11-3.21.18.18,0,0,0-.35,0c-.14,1-.23,2-.33,3a.22.22,0,0,0-.15.27s0,.05,0,.08c-1,3.9-1.59,7.9-2.71,11.79a49,49,0,0,1-2,5.75c-.31.63-.63,1.25-1,1.86a23.41,23.41,0,0,1-6.32,6.76,12,12,0,0,1-6,2.71,23.37,23.37,0,0,1-4.74-.86,18.31,18.31,0,0,1-4.63-2.76A31,31,0,0,1,64.92,73.24ZM46.26,143.49a39.1,39.1,0,0,1-4-9.57c-1.95-6.6-3.06-13.78-1.77-20.61,2.56-13.55,16.27-22.23,29.19-23.6a.89.89,0,0,0,.29-.08h0a1.24,1.24,0,0,0,.39.22l.2,0c0,.46.11.92.2,1.37a.27.27,0,0,0,.51,0c.53-1.71.18-3.72,0-5.47s-.23-3.27-.47-4.88l.71.54c2.46,1.82,5.44,3.44,8.55,3.27,2.08.45,4.52-.85,6.17-1.88a25.29,25.29,0,0,0,4.81-3.9,45.59,45.59,0,0,0-.15,5.6c0,.63,0,1.3-.06,2a.68.68,0,0,0,0,1.17,10.65,10.65,0,0,0,.42,3.26.11.11,0,0,0,.21,0,10.36,10.36,0,0,0,.42-3.12c1,.06,1.93.07,2.89.06-2.07,3.8-3.93,7.69-6.18,11.41-2.48,4.1-5.2,8.06-8.06,11.9s-6.12,7.81-9.36,11.56c-1.65,1.93-3.34,3.82-5,5.7-.79.87-1.56,1.75-2.35,2.6-.42.45-.87.84-1.26,1.28a2.16,2.16,0,0,0,0-.58.19.19,0,0,0,0-.07.84.84,0,0,0,0-.17h0a.12.12,0,0,0,0-.11c-.15-.39-.38-.77-.6-1.23-.56-1.16-1-2.35-1.49-3.56-.34-.95-.62-1.94-1-2.92-.1-.36-.2-.73-.28-1.1a7,7,0,0,1-.26-2.31,15.6,15.6,0,0,1,.8-1.58.24.24,0,0,0-.37-.29,7,7,0,0,0-1.51,2.26.53.53,0,0,0-.45.32c-1.84,4.69-1.75,10.36-.63,15.2.84,3.66,3,7.58,6.25,9.73.21.14.43.27.65.39a10.06,10.06,0,0,0,2,.86.7.7,0,0,0,.67-.13l.1,3.72.18,7.15a35.42,35.42,0,0,1-13.32-5.33.91.91,0,0,0-.28-.83A49.15,49.15,0,0,1,46.26,143.49Zm-.53,9.61.34.13h5.58a1,1,0,0,0,.92.13,35.49,35.49,0,0,0,14,5.58c0,1.31.1,2.61.16,3.91l.14,3.2-10.44-6.59-2.79-1.76-1.38-.89c-.47-.29-1-.55-1.43-.82q-2.58-1.45-5.18-2.87Zm-1.63.9a2.74,2.74,0,0,1,1.47-.85c1.61,1.17,3.24,2.33,4.87,3.48.45.31.9.64,1.36.94l1.39.87L56,160.2l11,6.92v.24l.23,0a6.56,6.56,0,0,1,.5.79,3.28,3.28,0,0,1,.36,1,1.48,1.48,0,0,1-.14.94,1.57,1.57,0,0,1-.52.54L56,163.56l-5.82-3.62-2.9-1.81-3-1.62A4.15,4.15,0,0,1,44,156a.42.42,0,0,0-.16-.5,3.63,3.63,0,0,1-.08-.73A2.1,2.1,0,0,1,44.1,154ZM12.67,172c.69-5.16,4.6-8.88,9.15-11.47l.21-.1a49.57,49.57,0,0,1,10.86-3.52A62.83,62.83,0,0,1,40,156a10,10,0,0,1,1.22,0c.77.08,1.53.19,2.28.34h.16a5,5,0,0,0,.22.56l0,0,.06,0,2.82,2,2.91,1.81,5.82,3.62,11.63,7.23.22.14.22-.12a2.92,2.92,0,0,0,.62-.44c2.37-.13,4.73-.3,7.09-.45l1-.07,1-.12,2-.23,3.93-.45L98.9,168l15.74-1.81,7.87-.9c1.31-.15,2.62-.32,3.94-.45.65-.06,1.3-.19,2-.29l2-.32h.1l.06-.05a3.26,3.26,0,0,0,.83-1.15,2.81,2.81,0,0,0,.17-1.4,3.73,3.73,0,0,0-.43-1.28,5.28,5.28,0,0,0-.44-.68h.08l0-.35.46-4.34a19.63,19.63,0,0,0,6,3,58.83,58.83,0,0,1,8.1,3.55c1.89,1.07,3.78,2.2,5.64,3.36.48.39.95.79,1.41,1.21A10,10,0,0,1,155,170c-7.18-2.39-15.41-1.93-22.83-1.7a138.55,138.55,0,0,0-26.3,3.31c-7.79,1.77-15.41,4.14-22.28,8.27-1.32.79-2.65,1.65-3.94,2.57-6.68-2.45-12.93-6-19.49-8.74A92.24,92.24,0,0,0,39.3,167.6c-8.32-1.36-20.17-2.45-26.21,4.66h0A.31.31,0,0,0,12.67,172ZM68.8,193.44c-9.42.07-18.85-.09-28.26.28-4.14.16-8.29.22-12.43.31-1.74.05-3.49.06-5.23.05a13.82,13.82,0,0,0-3.34.23c-.44-.37-.92-.69-1.35-1.05a13.8,13.8,0,0,1-2.32-2.51,15.51,15.51,0,0,1-2.1-4c-.16-.59-.29-1.19-.4-1.79a33.62,33.62,0,0,1-.46-6.72c0-.94.08-1.88.13-2.83a.56.56,0,0,0,0-.52c0-.54,0-1.08,0-1.62,7.17-7.55,19-6,28.35-4.34a89.54,89.54,0,0,1,20.22,6.51c3.21,1.41,6.38,2.93,9.54,4.46a42.72,42.72,0,0,0,7.39,3.25A38.87,38.87,0,0,0,68.8,193.44Zm89.37-10.81a15.93,15.93,0,0,1-1.59,6.06,9.45,9.45,0,0,1-2,2.73l-.27.26a22.9,22.9,0,0,1-5.49.73q-3.69.26-7.38.46c-4.75.25-9.49.41-14.24.41q-14.52,0-29,0-14.2,0-28.41.13a53.45,53.45,0,0,1,10.21-10l.3,0c.34,0,.46-.28.38-.54q1.66-1.2,3.45-2.28c6.78-4.1,14.39-6.34,22.07-8.09a137.31,137.31,0,0,1,26-3.26c7.51-.26,15.54-.56,22.8,1.73.16.34.46.66.62.94a15.47,15.47,0,0,1,1,2l.06.15c.07.15.13.29.19.44a22.76,22.76,0,0,1,1.33,5.08A21.64,21.64,0,0,1,158.17,182.63Z"/><path class="cls-1" d="M57.39,48c.07.14.3.06.31-.09a4.14,4.14,0,0,0-2.18-3.72c-.35-.2-1.36-.67-1.72-.31a1.29,1.29,0,0,0,0,1.58.09.09,0,0,0,.17,0c.06-.58,0-1.08.75-.88a3.48,3.48,0,0,1,1.28.79,4.49,4.49,0,0,1,.81,1,.13.13,0,0,0,0,.14C57.28,48,55.69,49,56,50.52a3.32,3.32,0,0,0,.74,1.53c.75.9,1.58,1.31.87,2.66a.12.12,0,0,0,.16.16c1.61-.78.57-2.2-.3-3.1C56.16,50.45,57.14,49.24,57.39,48Z"/><path class="cls-1" d="M75.61,43c.07,0,0-.15,0-.14-.54,0-1.09.07-1.63.12a5.71,5.71,0,0,0,.38-.48A7.71,7.71,0,0,0,75,41.6a4.07,4.07,0,0,0,1.26.15.11.11,0,0,0,0-.21c-.39-.11-.81-.22-1.24-.32a.15.15,0,0,0-.16,0A19.6,19.6,0,0,0,72,40.77a.18.18,0,0,0-.16,0A9.58,9.58,0,0,0,66,42c-.06,0,0,.16,0,.13q.42-.15.84-.27a3.29,3.29,0,0,0,1,1.15,5.37,5.37,0,0,0,.76.47h-.43a0,0,0,0,0,0,.09c1,.55,2.24.11,3.32,0C72.89,43.5,74.41,43.73,75.61,43ZM73,41.31A9.3,9.3,0,0,1,74,41.4a4.35,4.35,0,0,1,.52.1c-.16.18-.29.39-.44.59s-.57.66-.84,1l-.81.1A1.71,1.71,0,0,0,73,41.31Zm-1.78,0h.59c.12.43,0,.94-.51,1s-.88-.43-.93-1C70.61,41.3,70.89,41.28,71.18,41.28Zm-1.54,2.19a.15.15,0,0,0,0-.19,1,1,0,0,0-.45-.19,2.84,2.84,0,0,1-.86-.41c-.4-.26-.74-.59-1.12-.88a15.62,15.62,0,0,1,2.25-.41,1.56,1.56,0,0,0,.9,2Zm0-2.1.47,0a1.21,1.21,0,0,0,.24,1,1.12,1.12,0,0,0,1.94-1.06h.17a1.26,1.26,0,0,1-1.21,1.86C70.11,43.2,69.58,42.37,69.62,41.37Z"/><path class="cls-1" d="M87.26,41.52l1-.28c-.05.48.45,1,.88,1.33-.27,0-.54.06-.81.1h0a11.77,11.77,0,0,0,4,.26A7.31,7.31,0,0,0,96,42.32a.1.1,0,0,0-.07-.18c-.38,0-.75.1-1.13.13a2.47,2.47,0,0,0,.39-1.47,4.92,4.92,0,0,0,1.35.4c.06,0,.09-.08,0-.12-2.34-2.28-6.87-1-9.42.25C87.08,41.39,87.15,41.56,87.26,41.52Zm7.52-.84h.06a3.18,3.18,0,0,1-.5,1.62l-1.58.08a1.67,1.67,0,0,0,.7-1.84A6.64,6.64,0,0,1,94.78,40.68Zm-2.69-.08h0a.55.55,0,0,1,0,.34.79.79,0,0,1-.49.47.77.77,0,0,1-.66,0,1.07,1.07,0,0,1-.39-.6C91.11,40.69,91.6,40.63,92.09,40.6Zm-1.85.21a1.28,1.28,0,0,0,.5.9,1.17,1.17,0,0,0,1.09.13,1.26,1.26,0,0,0,.78-.73,1,1,0,0,0,.06-.55h.39c.46.89-.32,1.52-1.19,1.75a1.65,1.65,0,0,1-1.32-.17c-.46-.29-.46-.8-.54-1.27Zm-.53.1a1.77,1.77,0,0,0,.52,1.5l.08.06-.72.06a.15.15,0,0,0-.06-.09c-.4-.27-1-.74-1-1.28C89,41.07,89.33,41,89.71,40.91Z"/><path class="cls-1" d="M75.9,52.94c0-.12-.18-.15-.2,0-.24,1.07-.63,1.51.63,2a13.15,13.15,0,0,0,5.51,1.14,6.05,6.05,0,0,0,2.42-.75c.6-.3.89-.79,1.69-.76a5.89,5.89,0,0,0,1.39-.06c1.42-.25.6-2,.22-2.63a.12.12,0,1,0-.21.12c.51,1,.33,1.79-1,1.81a2.49,2.49,0,0,0-1,.11,9.89,9.89,0,0,1-4,1.31,18.29,18.29,0,0,1-3.71-.66,5.88,5.88,0,0,1-1.74-.5C75.75,54,75.9,53.14,75.9,52.94Z"/><path class="cls-1" d="M76.13,65.31c1.84.72,4.16.4,6.06.38,1.31,0,3.56,0,4.89-.91a5.17,5.17,0,0,0,2.15-2.17,4.28,4.28,0,0,0,1-1.81,5.75,5.75,0,0,0,1-.33,2,2,0,0,0,.49,1,.25.25,0,0,0,.27.07c.48-.19-.06-.67-.19-.94a3.44,3.44,0,0,1-.3-1,1.71,1.71,0,0,0-.2-.71,0,0,0,0,0-.08,0A1.59,1.59,0,0,0,91.15,60c-5.92.48-11.82.76-17.75.65a.15.15,0,0,0-.18,0l-2.54-.08a1.58,1.58,0,0,0,.17-.75.12.12,0,0,0-.23,0,5.83,5.83,0,0,1-.28.76,3.56,3.56,0,0,1-.45.69.16.16,0,1,0,.25.2,4.71,4.71,0,0,0,.47-.72l.73.11s0,0,0,0a9.66,9.66,0,0,0,2,2.7A4.75,4.75,0,0,0,76.13,65.31ZM73.48,61.1c2.55.22,5.1.2,7.68.21,1.88,0,3.77-.07,5.65-.17l.9,0a12.4,12.4,0,0,1-.23,2.72c-.1.09-.19.19-.29.29a12.33,12.33,0,0,1-5.49,1,23.42,23.42,0,0,1-6.09-.37,12.9,12.9,0,0,1-1.82-1.34h0c0-.42-.28-.78-.31-1.23S73.5,61.46,73.48,61.1Z"/><path class="cls-1" d="M85.16,68.14c-1.4,0-2.81.35-4.21.47a31,31,0,0,1-4.2,0,.07.07,0,0,0,0,.14,15.54,15.54,0,0,0,8.47-.29A.17.17,0,0,0,85.16,68.14Z"/><path class="cls-1" d="M91.48,124.18A32.24,32.24,0,0,1,96,117.83a34.4,34.4,0,0,0,3.82-6.32,55.14,55.14,0,0,0,4.81-16,.28.28,0,0,0-.54-.15c-1.82,5.43-2.76,11-5.3,16.19a46.32,46.32,0,0,1-4,6.6,24.8,24.8,0,0,0-3.45,6A.08.08,0,0,0,91.48,124.18Z"/><path class="cls-1" d="M103.8,126.82c2.45-4.68,5.17-9.79,6.32-15,.48-2.16.7-4.38,1.11-6.56a24,24,0,0,1,.74-2.92c.24-.71.92-1.53.94-2.27a.08.08,0,0,0-.1-.08c-1.26.26-1.81,2.9-2.08,3.91-.59,2.17-.81,4.43-1.2,6.64-1,5.72-4.46,10.61-5.87,16.2A.08.08,0,0,0,103.8,126.82Z"/><path class="cls-15" d="M84.56,35.26,85.32,38a64.24,64.24,0,0,1,8.25-2.74c2.93-.58,4.4.66,4.4.66l-3-2.87Z"/><path class="cls-15" d="M77,35.61l-.52,2.8a63.7,63.7,0,0,0-8.45-2c-3-.33-4.33,1-4.33,1l2.79-3.12Z"/><text class="cls-16" transform="translate(150.24 134.3)"><tspan class="cls-17">T</tspan><tspan x="48.09" y="0">echno Bodhi</tspan></text><text class="cls-18" transform="translate(175.8 192.42)">SPIR<tspan class="cls-19" x="105.62" y="0">I</tspan><tspan x="118.24" y="0">T</tspan><tspan class="cls-20" x="148.15" y="0">U</tspan><tspan x="180.53" y="0">AL</tspan><tspan class="cls-21" x="238.19" y="0">I</tspan><tspan class="cls-22" x="250.81" y="0">T</tspan><tspan x="281.11" y="0">Y &amp; REC</tspan><tspan class="cls-23" x="459.07" y="0">O</tspan><tspan x="492.42" y="0">VE</tspan><tspan class="cls-24" x="551.8" y="0">R</tspan><tspan x="582.42" y="0">Y</tspan></text></svg>